<svg width="89" height="72" viewBox="0 0 89 72" fill="none" xmlns="http://www.w3.org/2000/svg">
<path d="M44.5187 7.41669C54.4567 7.41681 62.6274 15.2265 63.0421 25.1218H62.9445C62.956 25.4093 62.9011 25.6959 62.7833 25.9587H63.3624C68.0491 25.9587 72.9653 29.332 74.7023 37.529L77.5538 60.5007C79.6512 75.4778 71.2279 81.5837 59.921 81.5837H29.1788C17.8393 81.5836 9.15421 77.3666 11.5138 60.5007L14.3986 37.529C15.8734 29.0959 20.953 25.9587 25.7052 25.9587H25.9952C25.9464 25.6819 25.9464 25.3985 25.9952 25.1218C26.41 15.2264 34.5805 7.41669 44.5187 7.41669ZM33.7345 38.3044C31.9247 38.3046 30.4573 39.8147 30.4572 41.6774C30.4572 43.5403 31.9246 45.0513 33.7345 45.0515C35.5445 45.0515 37.0118 43.5404 37.0118 41.6774C37.0117 39.8146 35.5445 38.3044 33.7345 38.3044ZM55.2013 38.3044C53.3915 38.3046 51.9241 39.8147 51.924 41.6774C51.924 43.5403 53.3914 45.0512 55.2013 45.0515C57.0113 45.0515 58.4786 43.5404 58.4786 41.6774C58.4785 39.8146 57.0112 38.3044 55.2013 38.3044ZM44.3732 12.2468C37.2379 12.2468 31.4532 18.011 31.4532 25.1218C31.5021 25.3985 31.5021 25.6819 31.4532 25.9587H57.4542C57.3511 25.6916 57.2967 25.408 57.2931 25.1218C57.2931 18.0111 51.5084 12.2468 44.3732 12.2468Z" fill="#2F67F9"/>
</svg>
