<svg width="239" height="463" viewBox="0 0 239 463" fill="none" xmlns="http://www.w3.org/2000/svg">
<path d="M102.431 416.468C102.431 416.468 97.966 444.758 96.6763 447.854L96.6502 447.917C95.3687 450.994 94.0301 454.209 85.7487 457.354C77.4111 460.52 43.91 462.561 34.2792 459.465C24.6485 456.369 32.0161 447.854 32.0161 447.854C-3.44108 394.619 -3.03226 371.187 10.4843 333.438C10.3591 269.517 11.4524 233.825 39.3873 173.423C48.2654 102.374 57.9725 74.3112 82.9648 53.848C82.9648 53.848 66.5411 39.0926 82.9648 27.271C99.3364 15.4868 102.858 39.3209 102.88 39.4724C109.493 36.1031 123.59 31.9158 148.983 36.7704C177.461 42.2149 191.409 58.9543 196.685 67.1689C196.685 67.1689 205.755 46.7625 218.428 64.6357C231.101 82.5089 209.154 91.3047 209.154 91.3047C211.328 100.566 211.193 111.982 209.246 164.698C231.917 233.675 230.727 274.549 231.425 344.626C243.091 378.153 232.223 401.286 212.053 444.223L211.768 444.829C211.768 444.829 214.29 443.351 214.29 452.147C214.29 460.943 179.836 460.518 158.423 457.354C158.423 457.354 151.699 455.524 145.879 447.854C140.06 440.184 137.861 414.974 137.861 414.974C125.163 417.576 114.544 417.866 102.431 416.468Z" fill="#BDCEFA"/>
<path d="M81.6247 410.923C80.5427 410.701 79.4855 411.398 79.2634 412.48C79.0412 413.562 79.7383 414.619 80.8203 414.841L81.2225 412.882L81.6247 410.923ZM153.502 413.039C154.561 412.723 155.163 411.609 154.847 410.551C154.531 409.492 153.417 408.89 152.359 409.206L152.931 411.123L153.502 413.039ZM102.431 416.468L102.66 414.481L102.431 416.468ZM85.7487 457.354L86.4588 459.224L85.7487 457.354ZM32.0161 447.854L33.5285 449.163L34.5243 448.012L33.6807 446.746L32.0161 447.854ZM10.4843 333.438L12.3672 334.112L12.4849 333.783L12.4843 333.434L10.4843 333.438ZM39.3873 173.423L41.2026 174.263L41.3333 173.98L41.3719 173.671L39.3873 173.423ZM87.9157 52.5165C88.8006 51.8553 88.9819 50.6021 88.3208 49.7172C87.6597 48.8323 86.4064 48.6509 85.5216 49.312L86.7186 50.9142L87.9157 52.5165ZM158.423 457.354L157.898 459.284L158.013 459.315L158.131 459.332L158.423 457.354ZM211.768 444.829L209.958 443.978C209.585 444.771 209.772 445.715 210.42 446.306C211.067 446.896 212.023 446.997 212.779 446.554L211.768 444.829ZM231.425 344.626L229.425 344.646L229.428 344.974L229.536 345.283L231.425 344.626ZM209.246 164.698L207.248 164.624L207.234 164.982L207.346 165.322L209.246 164.698ZM209.543 85.304C209.221 84.2474 208.104 83.6516 207.047 83.9734C205.991 84.2951 205.395 85.4126 205.717 86.4692L207.63 85.8866L209.543 85.304ZM82.9648 53.848L84.2318 55.3955L82.9648 53.848ZM100.897 39.7355C101.042 40.8305 102.048 41.6007 103.143 41.4558C104.238 41.3109 105.008 40.3057 104.863 39.2107L102.88 39.4731L100.897 39.7355ZM96.6475 41.3014C95.8855 42.101 95.9158 43.3669 96.7154 44.129C97.515 44.8911 98.781 44.8607 99.543 44.0611L98.0953 42.6812L96.6475 41.3014ZM148.983 36.7704L149.358 34.806L148.983 36.7704ZM197.489 72.686C197.971 73.6799 199.168 74.0947 200.161 73.6127C201.155 73.1306 201.57 71.9341 201.088 70.9403L199.289 71.8132L197.489 72.686ZM196.685 67.1689L195.002 68.2496L196.685 67.1689ZM209.154 91.3047L207.207 91.7617L209.154 91.3047ZM96.6502 447.917L94.8039 447.148L96.6502 447.917ZM212.053 444.223L210.243 443.372L212.053 444.223ZM81.2225 412.882L80.8203 414.841C88.7021 416.459 95.6552 417.699 102.202 418.455L102.431 416.468L102.66 414.481C96.2806 413.744 89.4565 412.531 81.6247 410.923L81.2225 412.882ZM102.431 416.468C100.456 416.156 100.455 416.156 100.455 416.156C100.455 416.156 100.455 416.157 100.455 416.157C100.455 416.158 100.455 416.159 100.455 416.161C100.454 416.164 100.453 416.169 100.452 416.176C100.45 416.189 100.447 416.21 100.443 416.236C100.434 416.29 100.422 416.369 100.405 416.473C100.372 416.68 100.324 416.985 100.262 417.374C100.137 418.152 99.9582 419.267 99.7391 420.616C99.3009 423.313 98.7035 426.94 98.066 430.662C97.4281 434.387 96.752 438.197 96.1563 441.262C95.8581 442.797 95.5828 444.131 95.3445 445.169C95.0926 446.267 94.9152 446.881 94.83 447.085L96.6763 447.854L98.5225 448.623C98.7597 448.054 99.004 447.106 99.2432 446.064C99.4959 444.963 99.781 443.579 100.083 442.025C100.687 438.916 101.369 435.072 102.009 431.338C102.649 427.6 103.248 423.961 103.687 421.257C103.907 419.905 104.087 418.786 104.212 418.005C104.274 417.615 104.323 417.308 104.356 417.1C104.372 416.996 104.385 416.916 104.394 416.862C104.398 416.835 104.401 416.814 104.403 416.801C104.404 416.794 104.405 416.788 104.406 416.785C104.406 416.783 104.406 416.782 104.406 416.781C104.406 416.78 104.407 416.78 104.407 416.78C104.407 416.78 104.407 416.78 102.431 416.468ZM85.7487 457.354L85.0386 455.484C83.1918 456.186 79.7395 456.885 75.2822 457.472C70.8819 458.052 65.6672 458.503 60.4013 458.76C55.1343 459.018 49.8459 459.08 45.2959 458.888C40.6877 458.694 37.0223 458.246 34.8913 457.561L34.2792 459.465L33.6671 461.369C36.3515 462.232 40.4852 462.689 45.1277 462.885C49.8284 463.082 55.2422 463.017 60.5965 462.755C65.9519 462.494 71.2777 462.034 75.8048 461.438C80.2749 460.849 84.1368 460.105 86.4588 459.224L85.7487 457.354ZM34.2792 459.465L34.8913 457.561C32.7979 456.888 31.9663 456.034 31.624 455.397C31.2762 454.751 31.2306 453.953 31.4747 452.99C31.7207 452.02 32.2202 451.063 32.7014 450.309C32.9358 449.941 33.1523 449.643 33.3071 449.441C33.3841 449.34 33.445 449.264 33.484 449.217C33.5035 449.193 33.5174 449.176 33.5251 449.167C33.5289 449.163 33.5312 449.16 33.5318 449.159C33.5321 449.159 33.5319 449.159 33.5314 449.16C33.5311 449.16 33.5308 449.16 33.5303 449.161C33.53 449.161 33.5296 449.162 33.5295 449.162C33.529 449.162 33.5285 449.163 32.0161 447.854C30.5037 446.546 30.5032 446.546 30.5026 446.547C30.5023 446.547 30.5017 446.548 30.5013 446.548C30.5003 446.55 30.4993 446.551 30.4981 446.552C30.4958 446.555 30.493 446.558 30.4898 446.562C30.4834 446.569 30.4753 446.579 30.4655 446.591C30.4458 446.614 30.4196 446.645 30.3874 446.685C30.3232 446.763 30.2352 446.873 30.1296 447.011C29.919 447.287 29.6352 447.678 29.3294 448.157C28.73 449.096 27.9896 450.461 27.5975 452.007C27.2036 453.56 27.1218 455.471 28.1013 457.292C29.0861 459.123 30.9451 460.494 33.6671 461.369L34.2792 459.465ZM32.0161 447.854L33.6807 446.746C16.0063 420.209 7.43609 401.334 4.86197 384.536C2.29665 367.795 5.64861 352.876 12.3672 334.112L10.4843 333.438L8.60132 332.763C1.80339 351.749 -1.80732 367.421 0.908119 385.142C3.61475 402.805 12.5687 422.264 30.3515 448.963L32.0161 447.854ZM10.4843 333.438L12.4843 333.434C12.3593 269.606 13.4522 234.265 41.2026 174.263L39.3873 173.423L37.5721 172.584C9.45253 233.384 8.35891 269.428 8.48426 333.442L10.4843 333.438ZM102.431 416.468L102.202 418.455C114.512 419.876 125.345 419.58 138.263 416.933L137.861 414.974L137.46 413.014C124.982 415.571 114.577 415.857 102.66 414.481L102.431 416.468ZM137.861 414.974L138.263 416.933C143.012 415.96 148.033 414.671 153.502 413.039L152.931 411.123L152.359 409.206C146.978 410.812 142.072 412.069 137.46 413.014L137.861 414.974ZM137.861 414.974C135.869 415.148 135.869 415.148 135.869 415.148C135.869 415.148 135.869 415.149 135.869 415.149C135.869 415.151 135.869 415.152 135.869 415.154C135.87 415.157 135.87 415.162 135.871 415.169C135.872 415.182 135.874 415.202 135.876 415.227C135.881 415.277 135.887 415.35 135.896 415.446C135.914 415.637 135.941 415.917 135.977 416.274C136.05 416.989 136.16 418.015 136.31 419.27C136.61 421.778 137.072 425.207 137.718 428.884C138.364 432.555 139.2 436.508 140.254 440.051C141.293 443.542 142.604 446.846 144.286 449.063L145.879 447.854L147.473 446.645C146.245 445.028 145.098 442.304 144.088 438.91C143.094 435.57 142.289 431.782 141.658 428.191C141.027 424.607 140.576 421.254 140.282 418.795C140.135 417.567 140.027 416.564 139.957 415.87C139.922 415.523 139.896 415.254 139.879 415.072C139.87 414.981 139.864 414.912 139.86 414.866C139.858 414.843 139.856 414.826 139.855 414.815C139.855 414.81 139.854 414.806 139.854 414.803C139.854 414.802 139.854 414.801 139.854 414.8C139.854 414.8 139.854 414.8 139.854 414.8C139.854 414.8 139.854 414.8 137.861 414.974ZM145.879 447.854L144.286 449.063C147.377 453.137 150.722 455.677 153.32 457.204C154.618 457.968 155.73 458.478 156.533 458.803C156.934 458.965 157.259 459.08 157.491 459.158C157.607 459.197 157.701 459.226 157.769 459.246C157.803 459.257 157.831 459.265 157.853 459.271C157.864 459.274 157.873 459.277 157.881 459.279C157.884 459.28 157.888 459.281 157.891 459.282C157.892 459.282 157.894 459.282 157.895 459.283C157.895 459.283 157.896 459.283 157.897 459.283C157.897 459.283 157.898 459.284 158.423 457.354C158.948 455.424 158.949 455.424 158.95 455.424C158.95 455.424 158.951 455.425 158.951 455.425C158.952 455.425 158.953 455.425 158.954 455.425C158.955 455.426 158.956 455.426 158.956 455.426C158.957 455.426 158.957 455.426 158.955 455.426C158.95 455.424 158.94 455.421 158.924 455.417C158.891 455.407 158.834 455.389 158.755 455.363C158.597 455.31 158.351 455.223 158.031 455.094C157.39 454.835 156.458 454.409 155.347 453.756C153.128 452.451 150.201 450.242 147.473 446.645L145.879 447.854ZM158.423 457.354L158.131 459.332C168.945 460.93 183.047 461.838 194.492 461.232C200.194 460.93 205.374 460.247 209.185 459.02C211.083 458.409 212.787 457.618 214.052 456.559C215.355 455.468 216.29 453.994 216.29 452.147H214.29H212.29C212.29 452.499 212.148 452.935 211.483 453.492C210.78 454.081 209.625 454.676 207.959 455.212C204.641 456.28 199.869 456.942 194.281 457.238C183.146 457.827 169.315 456.941 158.716 455.375L158.423 457.354ZM214.29 452.147H216.29C216.29 449.865 216.127 448.156 215.851 446.872C215.58 445.61 215.166 444.603 214.543 443.882C213.854 443.085 212.987 442.731 212.153 442.735C211.778 442.737 211.465 442.81 211.238 442.887C211.123 442.925 211.025 442.967 210.946 443.004C210.906 443.023 210.871 443.041 210.839 443.057C210.823 443.066 210.809 443.074 210.795 443.081C210.788 443.085 210.781 443.089 210.775 443.092C210.772 443.094 210.769 443.096 210.766 443.098C210.764 443.099 210.762 443.1 210.761 443.1C210.759 443.102 210.757 443.103 211.768 444.829C212.779 446.554 212.777 446.555 212.775 446.557C212.774 446.557 212.772 446.558 212.77 446.559C212.768 446.561 212.765 446.562 212.762 446.564C212.756 446.567 212.75 446.571 212.745 446.574C212.734 446.58 212.722 446.586 212.712 446.592C212.69 446.603 212.668 446.614 212.647 446.624C212.604 446.644 212.561 446.662 212.515 446.678C212.426 446.707 212.31 446.734 212.171 446.735C211.81 446.737 211.573 446.564 211.515 446.496C211.512 446.493 211.57 446.559 211.655 446.757C211.74 446.955 211.843 447.261 211.941 447.713C212.137 448.626 212.29 450.03 212.29 452.147H214.29ZM231.425 344.626L233.425 344.606C232.727 274.551 233.927 233.384 211.146 164.073L209.246 164.698L207.346 165.322C229.908 233.967 228.727 274.547 229.425 344.646L231.425 344.626ZM39.3873 173.423L41.3719 173.671C50.2535 102.594 59.9171 75.3039 84.2318 55.3955L82.9648 53.848L81.6977 52.3005C56.0279 73.3186 46.2772 102.155 37.4028 173.175L39.3873 173.423ZM82.9648 53.848L84.2318 55.3955C85.4223 54.4207 86.6496 53.4624 87.9157 52.5165L86.7186 50.9142L85.5216 49.312C84.2107 50.2915 82.9365 51.2862 81.6977 52.3005L82.9648 53.848ZM82.9648 53.848C84.3014 52.3603 84.302 52.3608 84.3025 52.3613C84.3026 52.3613 84.3031 52.3618 84.3033 52.3619C84.3036 52.3623 84.3038 52.3624 84.3037 52.3623C84.3034 52.3621 84.3023 52.361 84.3001 52.3591C84.2959 52.3552 84.2878 52.3478 84.2762 52.3371C84.253 52.3156 84.2154 52.2805 84.165 52.2325C84.0642 52.1363 83.9124 51.9883 83.7213 51.7928C83.3384 51.4012 82.8015 50.8225 82.203 50.0912C80.9961 48.6163 79.5891 46.5808 78.6645 44.2541C77.743 41.935 77.3373 39.4241 77.975 36.901C78.6067 34.4019 80.3268 31.634 84.1332 28.8942L82.9648 27.271L81.7964 25.6477C77.3909 28.8188 75.005 32.3284 74.097 35.9208C73.195 39.4891 73.8158 42.8836 74.9472 45.7311C76.0757 48.571 77.7481 50.9632 79.1074 52.6243C79.792 53.4611 80.4099 54.1275 80.861 54.589C81.0869 54.8201 81.2719 55.0006 81.4036 55.1264C81.4695 55.1892 81.5222 55.2385 81.5601 55.2736C81.5791 55.2911 81.5943 55.3051 81.6058 55.3155C81.6115 55.3207 81.6162 55.325 81.6199 55.3283C81.6218 55.33 81.6234 55.3315 81.6248 55.3327C81.6255 55.3334 81.6263 55.3341 81.6267 55.3344C81.6274 55.3351 81.6281 55.3358 82.9648 53.848ZM148.983 36.7704L148.607 38.7348C176.392 44.0468 189.925 60.3442 195.002 68.2496L196.685 67.1689L198.368 66.0882C192.894 57.5644 178.53 40.3831 149.358 34.806L148.983 36.7704ZM196.685 67.1689L195.002 68.2496C195.965 69.7495 196.168 70.028 196.368 70.3854C196.569 70.7435 196.705 71.0696 197.489 72.686L199.289 71.8132L201.088 70.9403C200.393 69.5067 200.135 68.9242 199.857 68.4293C199.579 67.9338 199.22 67.4152 198.368 66.0882L196.685 67.1689ZM196.685 67.1689C198.512 67.9812 198.512 67.9819 198.512 67.9825C198.512 67.9826 198.512 67.9831 198.511 67.9833C198.511 67.9837 198.511 67.9838 198.511 67.9836C198.512 67.9831 198.512 67.9815 198.514 67.9787C198.516 67.9732 198.521 67.9629 198.527 67.9482C198.541 67.9188 198.563 67.8715 198.593 67.8083C198.654 67.6817 198.748 67.4915 198.873 67.2517C199.123 66.7708 199.497 66.0969 199.983 65.3397C200.972 63.7992 202.348 62.0327 203.998 60.8041C205.621 59.5962 207.352 59.0109 209.239 59.4412C211.196 59.8873 213.769 61.5232 216.797 65.7925L218.428 64.6357L220.06 63.4788C216.75 58.8115 213.438 56.2958 210.129 55.5413C206.751 54.7709 203.839 55.936 201.61 57.5956C199.408 59.2344 197.725 61.4524 196.617 63.1796C196.054 64.0563 195.621 64.8369 195.326 65.4022C195.178 65.6855 195.065 65.9162 194.986 66.0799C194.947 66.1617 194.916 66.2269 194.895 66.2736C194.884 66.2969 194.876 66.3157 194.869 66.3296C194.866 66.3365 194.864 66.3423 194.862 66.3468C194.861 66.349 194.86 66.351 194.859 66.3526C194.859 66.3534 194.858 66.3544 194.858 66.3548C194.858 66.3557 194.857 66.3566 196.685 67.1689ZM209.246 164.698L211.245 164.771C212.218 138.425 212.74 122.352 212.745 111.707C212.751 101.053 212.241 95.7024 211.102 90.8478L209.154 91.3047L207.207 91.7617C208.241 96.1679 208.751 101.156 208.745 111.705C208.74 122.261 208.221 138.254 207.248 164.624L209.246 164.698ZM209.154 91.3047L211.102 90.8478C210.878 89.8945 210.483 88.4936 210.155 87.3654C209.989 86.7939 209.836 86.2794 209.725 85.9079C209.669 85.722 209.624 85.5717 209.593 85.4675C209.577 85.4154 209.565 85.3749 209.556 85.3472C209.552 85.3333 209.549 85.3227 209.547 85.3155C209.545 85.3118 209.545 85.3091 209.544 85.3071C209.544 85.3062 209.543 85.3055 209.543 85.3049C209.543 85.3047 209.543 85.3045 209.543 85.3043C209.543 85.3042 209.543 85.3042 209.543 85.3041C209.543 85.3041 209.543 85.304 207.63 85.8866C205.717 86.4692 205.717 86.4692 205.717 86.4692C205.717 86.4692 205.717 86.4692 205.717 86.4693C205.717 86.4693 205.717 86.4695 205.717 86.4697C205.717 86.47 205.717 86.4706 205.717 86.4714C205.718 86.473 205.718 86.4754 205.719 86.4787C205.721 86.4853 205.724 86.4953 205.728 86.5084C205.736 86.5347 205.748 86.5738 205.764 86.6244C205.794 86.7255 205.838 86.8724 205.893 87.0545C206.002 87.4188 206.151 87.9229 206.314 88.4818C206.643 89.6146 207.011 90.9228 207.207 91.7617L209.154 91.3047ZM218.428 64.6357L216.797 65.7925C219.757 69.9669 220.561 73.4093 220.332 76.1786C220.102 78.9683 218.801 81.3538 217.043 83.3511C215.278 85.356 213.12 86.8894 211.365 87.9313C210.494 88.4481 209.74 88.8338 209.209 89.0879C208.944 89.2148 208.736 89.3083 208.598 89.3685C208.529 89.3986 208.478 89.4202 208.446 89.4336C208.43 89.4402 208.419 89.4448 208.413 89.4472C208.41 89.4485 208.408 89.4492 208.408 89.4493C208.408 89.4494 208.408 89.4494 208.408 89.4492C208.408 89.4491 208.409 89.4489 208.409 89.4489C208.41 89.4486 208.41 89.4483 209.154 91.3047C209.899 93.1612 209.899 93.1608 209.9 93.1604C209.901 93.1603 209.902 93.1598 209.903 93.1595C209.905 93.1588 209.907 93.1579 209.909 93.1569C209.914 93.155 209.92 93.1525 209.928 93.1494C209.943 93.1432 209.963 93.1349 209.988 93.1244C210.038 93.1033 210.109 93.0734 210.198 93.0347C210.375 92.9573 210.626 92.8444 210.936 92.6959C211.556 92.3992 212.418 91.9581 213.407 91.3709C215.37 90.2051 217.907 88.4224 220.045 85.9942C222.189 83.5584 223.998 80.3937 224.319 76.5074C224.641 72.6006 223.436 68.2411 220.06 63.4788L218.428 64.6357ZM96.6763 447.854L94.83 447.085L94.8039 447.148L96.6502 447.917L98.4964 448.686L98.5225 448.623L96.6763 447.854ZM96.6502 447.917L94.8039 447.148C94.1662 448.679 93.63 449.935 92.387 451.219C91.1287 452.52 89.0124 453.975 85.0386 455.484L85.7487 457.354L86.4588 459.224C90.7663 457.588 93.4601 455.863 95.2618 454.001C97.0788 452.122 97.8527 450.232 98.4965 448.686L96.6502 447.917ZM82.9648 27.271L84.1332 28.8942C87.9571 26.1418 90.6688 25.7237 92.5501 26.1379C94.4658 26.5597 96.0592 27.9603 97.3768 29.9863C98.6876 32.0016 99.5747 34.413 100.137 36.3919C100.695 38.3527 100.904 39.779 100.901 39.7623L102.88 39.4724L104.859 39.1824C104.846 39.0914 103.918 32.7069 100.73 27.8054C99.1181 25.3269 96.76 22.969 93.4102 22.2315C90.0261 21.4864 86.1583 22.5081 81.7964 25.6477L82.9648 27.271ZM102.88 39.4724L103.788 41.2544C109.94 38.1202 123.572 33.9486 148.607 38.7348L148.983 36.7704L149.358 34.806C123.608 29.8829 109.047 34.086 101.972 37.6903L102.88 39.4724ZM231.425 344.626L229.536 345.283C240.894 377.924 230.475 400.304 210.243 443.372L212.053 444.223L213.863 445.073C233.971 402.269 245.288 378.382 233.314 343.969L231.425 344.626ZM212.053 444.223L210.242 443.372L209.958 443.978L211.768 444.829L213.578 445.679L213.863 445.073L212.053 444.223ZM98.0953 42.6812C99.543 44.0611 99.5426 44.0615 99.5422 44.0619C99.5421 44.0621 99.5417 44.0625 99.5415 44.0628C99.541 44.0633 99.5405 44.0638 99.54 44.0643C99.5391 44.0652 99.5383 44.0661 99.5375 44.0668C99.5361 44.0684 99.5349 44.0696 99.5341 44.0704C99.5325 44.0721 99.5322 44.0723 99.5334 44.0711C99.5357 44.0688 99.5435 44.061 99.557 44.0479C99.5839 44.0217 99.6335 43.9745 99.7067 43.9088C99.8531 43.7775 100.094 43.572 100.437 43.3121C101.123 42.7925 102.219 42.0538 103.788 41.2544L102.88 39.4724L101.972 37.6903C100.185 38.6007 98.889 39.4665 98.0213 40.1239C97.5877 40.4524 97.2616 40.7286 97.0352 40.9318C96.922 41.0333 96.8338 41.1166 96.7695 41.1791C96.7373 41.2103 96.7112 41.2364 96.6909 41.2568C96.6808 41.2671 96.6721 41.2759 96.6649 41.2834C96.6613 41.2871 96.658 41.2905 96.6551 41.2935C96.6537 41.295 96.6523 41.2964 96.6511 41.2977C96.6504 41.2984 96.6498 41.299 96.6492 41.2996C96.6489 41.2999 96.6485 41.3004 96.6484 41.3005C96.6479 41.301 96.6475 41.3014 98.0953 42.6812ZM211.768 444.829L213.578 445.679C213.674 445.476 213.768 445.275 213.863 445.073L212.053 444.223L210.243 443.372C210.148 443.573 210.053 443.776 209.958 443.978L211.768 444.829ZM102.88 39.4724L100.901 39.7623C100.901 39.758 100.9 39.7535 100.899 39.7491C100.899 39.7468 100.899 39.7446 100.898 39.7423C100.898 39.7412 100.898 39.74 100.898 39.7389C100.898 39.7383 100.898 39.7378 100.898 39.7372C100.898 39.7369 100.898 39.7366 100.898 39.7363C100.898 39.7362 100.898 39.736 100.897 39.7359C100.897 39.7358 100.897 39.7358 100.897 39.7357C100.897 39.7356 100.897 39.7356 100.897 39.7356C100.897 39.7356 100.897 39.7355 100.897 39.7355C100.897 39.7355 100.897 39.7354 102.88 39.4731C104.863 39.2107 104.863 39.2107 104.863 39.2106C104.863 39.2106 104.863 39.2106 104.863 39.2106C104.863 39.2105 104.863 39.2105 104.863 39.2105C104.863 39.2104 104.863 39.2103 104.863 39.2103C104.863 39.2101 104.863 39.21 104.863 39.2098C104.863 39.2095 104.863 39.2093 104.863 39.209C104.863 39.2084 104.862 39.2078 104.862 39.2072C104.862 39.2061 104.862 39.2049 104.862 39.2038C104.862 39.2014 104.861 39.1991 104.861 39.1967C104.86 39.192 104.86 39.1872 104.859 39.1824L102.88 39.4724ZM96.6763 447.854L94.83 447.085C94.8214 447.106 94.8126 447.127 94.8039 447.148L96.6502 447.917L98.4965 448.686C98.5051 448.665 98.5138 448.644 98.5225 448.623L96.6763 447.854Z" fill="#7698EF" fill-opacity="0.3"/>
<path d="M153.056 215.503C151.064 248.065 150.03 266.269 137.732 305.15C137.732 305.15 133.853 323.112 148.595 332.031C163.337 340.949 176.27 329.146 184.222 320.49C192.175 311.835 208.664 261.593 208.664 261.593" stroke="#7698EF" stroke-width="4" stroke-linecap="round"/>
<path d="M97.0544 208.709C93.535 241.118 91.4891 259.22 97.038 299.895C97.038 299.895 97.8298 318.326 81.8365 324.156C65.8432 329.987 55.1142 315.806 48.7523 305.713C42.3905 295.619 34.6324 242.941 34.6324 242.941" stroke="#7698EF" stroke-width="4" stroke-linecap="round"/>
<path d="M213.19 78.99C214.419 77.7938 214.742 73.0788 213.19 71.32C211.638 69.5612 207.953 69.7016 205.948 70.4756C203.944 71.2497 203.75 78.4991 203.944 78.99C204.138 79.4809 211.961 80.1863 213.19 78.99Z" fill="#88A5F2" stroke="#88A5F2" stroke-width="4" stroke-linecap="round"/>
<path d="M83.4585 41.5097C82.8173 39.857 84.3757 35.4436 86.4693 34.5748C88.5628 33.7059 91.8401 35.5462 93.3487 37.1779C94.8572 38.8096 92.1869 45.4545 91.8188 45.8082C91.4507 46.1619 84.0998 43.1624 83.4585 41.5097Z" fill="#7698EF" stroke="#7698EF" stroke-width="4" stroke-linecap="round"/>
<ellipse cx="5.7591" cy="8.07805" rx="5.7591" ry="8.07805" transform="matrix(0.920304 0.391203 -0.337827 0.941208 172.934 90.8125)" fill="#060698"/>
<ellipse cx="5.7591" cy="8.07805" rx="5.7591" ry="8.07805" transform="matrix(0.920304 0.391203 -0.337827 0.941208 104.78 69.8428)" fill="#060698"/>
<ellipse cx="135.663" cy="110.515" rx="27.028" ry="29.4134" fill="#6088E4"/>
<path d="M154.928 109.208C153.113 116.464 143.52 119.94 133.501 116.972C123.482 114.004 116.831 105.716 118.646 98.4608C120.46 91.2051 130.054 87.7292 140.073 90.697C150.092 93.6648 156.743 101.953 154.928 109.208Z" fill="#060698"/>
<path d="M127.645 123.251L130.037 113.47L136.374 116.074L133.529 124.518C133.529 124.518 132.43 127.262 130.037 127.192C127.645 127.121 127.645 123.251 127.645 123.251Z" fill="#060698"/>
<path d="M133.81 220.247C132.379 223.455 128.803 227.466 125.941 227.466H120.218H107.341L112.349 215.674L114.495 210.621C114.495 210.621 117.356 203.401 123.079 203.401H140.964C140.964 203.401 135.241 217.038 133.81 220.247Z" fill="#6088E4"/>
<path d="M107.341 227.466C107.341 227.466 114.655 227.466 120.218 227.466M107.341 227.466H120.218M107.341 227.466L112.349 215.674M120.218 227.466C122.815 227.466 125.03 227.466 125.941 227.466C128.803 227.466 132.379 223.455 133.81 220.247C135.241 217.038 140.964 203.401 140.964 203.401C140.964 203.401 128.803 203.401 123.079 203.401C117.356 203.401 114.495 210.621 114.495 210.621L112.349 215.674M120.218 227.466C120.218 227.466 125.226 223.215 126.656 219.445C128.087 215.674 130.233 210.621 130.233 210.621C130.233 210.621 123.079 210.621 120.218 210.621C117.356 210.621 112.349 215.674 112.349 215.674" stroke="#060698" stroke-width="3" stroke-linecap="round"/>
<path d="M155.768 20.6843C156.859 20.9183 157.996 20.9688 159.159 20.9588L159.162 20.9587C159.162 20.9587 159.317 14.705 158.692 13.5755C158.066 12.446 156.438 7.48908 154.715 6.95575C152.993 6.42241 152.234 8.69898 152.111 9.48262C151.988 10.2663 153.76 13.0304 154.468 14.2766C155.175 15.5228 155.768 20.6843 155.768 20.6843Z" fill="#3CFFB9"/>
<path d="M159.159 20.9588C157.996 20.9688 156.859 20.9183 155.768 20.6843C151.206 19.7054 150.185 13.9557 145.251 12.9067C140.112 11.8141 136.577 13.1633 132.395 16.1858C126.648 20.3392 122.982 25.8819 124.948 32.9215C126.427 38.2197 129.713 40.8575 134.675 43.1714C140.062 45.684 143.913 42.2031 149.684 43.4357C155.991 44.7829 158.514 50.7582 164.876 50.1952C168.694 49.8574 171.303 49.2735 173.888 46.4791C176.902 43.221 177.048 39.8296 176.648 35.3015C176.177 29.9655 174.635 26.2603 170.356 22.9873C166.82 20.2817 162.862 20.9263 159.162 20.9587L159.159 20.9588Z" fill="#3CFFB9"/>
<path d="M155.768 20.6843C151.206 19.7054 150.185 13.9557 145.251 12.9067C140.112 11.8141 136.577 13.1633 132.395 16.1858C126.648 20.3392 122.982 25.8819 124.948 32.9215C126.427 38.2197 129.713 40.8575 134.675 43.1714C140.062 45.684 143.913 42.2031 149.684 43.4357C155.991 44.7829 158.514 50.7582 164.876 50.1952C168.694 49.8574 171.303 49.2735 173.888 46.4791C176.902 43.221 177.048 39.8296 176.648 35.3015C176.177 29.9655 174.635 26.2603 170.356 22.9873M155.768 20.6843C155.768 20.6843 155.175 15.5228 154.468 14.2766C153.76 13.0304 151.988 10.2663 152.111 9.48262C152.234 8.69898 152.993 6.42241 154.715 6.95575C156.438 7.48908 158.066 12.446 158.692 13.5755C159.317 14.705 159.162 20.9587 159.162 20.9587M155.768 20.6843C156.859 20.9183 157.996 20.9688 159.159 20.9588M170.356 22.9873C166.82 20.2817 162.862 20.9263 159.162 20.9587M170.356 22.9873C166.819 20.281 162.859 20.9267 159.159 20.9588M159.162 20.9587L159.159 20.9588" stroke="#23C38A" stroke-width="2" stroke-linecap="round"/>
</svg>
