<svg width="83" height="153" viewBox="0 0 83 153" fill="none" xmlns="http://www.w3.org/2000/svg">
<path d="M35.6039 136.226C35.6039 136.226 34.0654 145.974 33.6211 147.041L33.6121 147.062C33.1705 148.122 32.7093 149.23 29.8559 150.314C26.9832 151.405 15.4402 152.108 12.1219 151.041C8.80361 149.974 11.3422 147.041 11.3422 147.041C-0.874743 128.698 -0.733883 120.625 3.92328 107.618C3.88016 85.5938 4.25685 73.2959 13.8819 52.4843C16.9409 28.0042 20.2855 18.3349 28.8967 11.2842C28.8967 11.2842 23.2379 6.20021 28.8967 2.12702C34.5376 -1.93325 35.7509 6.27889 35.7586 6.33106C38.0372 5.17016 42.8943 3.72741 51.6435 5.4001C61.4558 7.27602 66.2617 13.0436 68.0794 15.874C68.0794 15.874 71.2044 8.84289 75.5711 15.0012C79.9378 21.1594 72.3758 24.1901 72.3758 24.1901C73.1247 27.3809 73.0782 31.3145 72.4075 49.4779C80.2188 73.2445 79.8086 87.3276 80.0491 111.473C84.0688 123.025 80.3243 130.995 73.3744 145.789L73.2764 145.998C73.2764 145.998 74.1452 145.489 74.1452 148.519C74.1452 151.55 62.2742 151.404 54.8962 150.314C54.8962 150.314 52.5792 149.683 50.5741 147.041C48.569 144.398 47.8115 135.711 47.8115 135.711C43.4364 136.608 39.7776 136.708 35.6039 136.226Z" fill="#BDCEFA"/>
<path d="M28.4975 134.011C27.9565 133.9 27.4279 134.249 27.3168 134.79C27.2058 135.331 27.5543 135.859 28.0953 135.97L28.2964 134.991L28.4975 134.011ZM53.2896 135.343C53.8188 135.185 54.1198 134.628 53.9619 134.099C53.804 133.569 53.247 133.268 52.7178 133.426L53.0037 134.385L53.2896 135.343ZM35.6039 136.226L35.7186 135.233L35.7186 135.233L35.6039 136.226ZM29.8559 150.314L30.211 151.248L30.211 151.248L29.8559 150.314ZM11.3422 147.041L12.0984 147.695L12.5962 147.119L12.1744 146.486L11.3422 147.041ZM3.92328 107.618L4.86475 107.955L4.92362 107.791L4.92328 107.616L3.92328 107.618ZM13.8819 52.4843L14.7896 52.9041L14.8549 52.7628L14.8742 52.6083L13.8819 52.4843ZM30.7886 11.0745C31.2311 10.7439 31.3218 10.1173 30.9912 9.67487C30.6607 9.23244 30.034 9.14174 29.5916 9.4723L30.1901 10.2734L30.7886 11.0745ZM54.8962 150.314L54.6337 151.279L54.6912 151.294L54.7501 151.303L54.8962 150.314ZM73.2764 145.998L72.3712 145.573C72.1849 145.969 72.2785 146.441 72.6021 146.737C72.9257 147.032 73.4039 147.082 73.7819 146.861L73.2764 145.998ZM80.0491 111.473L79.0492 111.483L79.0508 111.647L79.1047 111.801L80.0491 111.473ZM72.4075 49.4779L71.4082 49.441L71.4015 49.62L71.4575 49.7901L72.4075 49.4779ZM72.8071 22.032C72.6463 21.5036 72.0875 21.2058 71.5592 21.3666C71.0309 21.5275 70.733 22.0862 70.8939 22.6146L71.8505 22.3233L72.8071 22.032ZM28.8967 11.2842L29.5302 12.058L28.8967 11.2842ZM28.8967 2.12702L28.3125 1.3154L28.8967 2.12702ZM34.7673 6.4625C34.8397 7.01001 35.3423 7.39512 35.8898 7.32266C36.4373 7.25021 36.8224 6.74762 36.75 6.20011L35.7586 6.33131L34.7673 6.4625ZM33.3861 6.74676C33.0051 7.14655 33.0203 7.77953 33.42 8.16057C33.8198 8.54161 34.4528 8.52641 34.8339 8.12662L34.11 7.43669L33.3861 6.74676ZM51.6435 5.4001L51.8313 4.41789L51.6435 5.4001ZM68.0768 17.9106C68.3178 18.4075 68.916 18.615 69.4129 18.3739C69.9099 18.1329 70.1173 17.5347 69.8763 17.0378L68.9765 17.4742L68.0768 17.9106ZM68.0794 15.874L67.2379 16.4144L68.0794 15.874ZM72.3758 24.1901L71.4023 24.4186L72.3758 24.1901ZM33.6121 147.062L32.6889 146.678L32.6889 146.678L33.6121 147.062ZM73.3744 145.789L72.4693 145.364L72.4693 145.364L73.3744 145.789ZM28.2964 134.991L28.0953 135.97C30.8149 136.529 33.2206 136.958 35.4892 137.22L35.6039 136.226L35.7186 135.233C33.5333 134.981 31.1921 134.564 28.4975 134.011L28.2964 134.991ZM35.6039 136.226C34.6161 136.07 34.6161 136.07 34.6161 136.07C34.6161 136.07 34.6161 136.071 34.6161 136.071C34.616 136.071 34.6159 136.071 34.6159 136.072C34.6157 136.073 34.6154 136.075 34.615 136.077C34.6143 136.082 34.6132 136.089 34.6118 136.098C34.6089 136.116 34.6045 136.143 34.5989 136.179C34.5875 136.25 34.5709 136.355 34.5494 136.489C34.5066 136.757 34.4449 137.141 34.3695 137.606C34.2186 138.534 34.0129 139.783 33.7935 141.065C33.5738 142.347 33.3413 143.657 33.1367 144.71C33.0343 145.237 32.9402 145.693 32.8592 146.046C32.8186 146.223 32.7828 146.367 32.7522 146.479C32.737 146.534 32.7241 146.578 32.7136 146.61C32.7025 146.645 32.6971 146.658 32.6979 146.656L33.6211 147.041L34.5442 147.425C34.6377 147.2 34.7271 146.848 34.8085 146.493C34.8967 146.109 34.9957 145.628 35.1 145.091C35.3088 144.017 35.5442 142.69 35.7648 141.402C35.9855 140.113 36.1922 138.858 36.3436 137.926C36.4194 137.46 36.4813 137.074 36.5244 136.805C36.5459 136.67 36.5627 136.565 36.5741 136.493C36.5798 136.457 36.5842 136.429 36.5872 136.411C36.5886 136.401 36.5898 136.394 36.5905 136.389C36.5909 136.387 36.5912 136.385 36.5914 136.384C36.5915 136.383 36.5915 136.383 36.5916 136.383C36.5916 136.382 36.5916 136.382 36.5916 136.382C36.5917 136.382 36.5917 136.382 35.6039 136.226ZM29.8559 150.314L29.5009 149.379C28.9015 149.606 27.7438 149.844 26.209 150.046C24.7028 150.245 22.9146 150.399 21.1072 150.488C19.2992 150.576 17.4868 150.597 15.9308 150.532C14.3457 150.465 13.1192 150.311 12.428 150.089L12.1219 151.041L11.8159 151.993C12.7838 152.304 14.2445 152.463 15.8468 152.53C17.4781 152.599 19.3532 152.576 21.2048 152.485C23.057 152.395 24.9006 152.236 26.4703 152.029C28.0115 151.826 29.374 151.566 30.211 151.248L29.8559 150.314ZM12.1219 151.041L12.428 150.089C11.7555 149.873 11.5489 149.619 11.4808 149.492C11.4101 149.361 11.3845 149.172 11.457 148.887C11.5304 148.597 11.6838 148.299 11.8403 148.054C11.9156 147.936 11.9849 147.84 12.0339 147.776C12.0583 147.744 12.0771 147.721 12.0886 147.707C12.0943 147.7 12.0982 147.695 12.0999 147.693C12.1007 147.692 12.1011 147.692 12.1008 147.692C12.1007 147.692 12.1004 147.692 12.1 147.693C12.0998 147.693 12.0996 147.693 12.0993 147.694C12.0992 147.694 12.0989 147.694 12.0989 147.694C12.0986 147.695 12.0984 147.695 11.3422 147.041C10.586 146.386 10.5857 146.387 10.5854 146.387C10.5853 146.387 10.585 146.387 10.5848 146.388C10.5844 146.388 10.5839 146.389 10.5834 146.389C10.5824 146.39 10.5812 146.392 10.5798 146.393C10.5772 146.396 10.5739 146.4 10.5701 146.405C10.5624 146.414 10.5524 146.426 10.5403 146.441C10.5162 146.47 10.4838 146.511 10.4452 146.561C10.3683 146.662 10.2653 146.804 10.1544 146.978C9.93867 147.316 9.6648 147.818 9.51836 148.395C9.371 148.976 9.33293 149.721 9.7195 150.44C10.1088 151.163 10.8291 151.676 11.8159 151.993L12.1219 151.041ZM11.3422 147.041L12.1744 146.486C6.0931 137.356 3.17003 130.898 2.29341 125.177C1.42119 119.485 2.55601 114.403 4.86475 107.955L3.92328 107.618L2.98181 107.281C0.633393 113.84 -0.6308 119.298 0.316483 125.48C1.25936 131.633 4.37432 138.383 10.5099 147.595L11.3422 147.041ZM3.92328 107.618L4.92328 107.616C4.88025 85.6384 5.25677 73.5162 14.7896 52.9041L13.8819 52.4843L12.9743 52.0645C3.25693 73.0757 2.88007 85.5493 2.92328 107.62L3.92328 107.618ZM35.6039 136.226L35.4892 137.22C39.7615 137.713 43.527 137.61 48.0123 136.691L47.8115 135.711L47.6108 134.732C43.3457 135.606 39.7937 135.703 35.7186 135.233L35.6039 136.226ZM47.8115 135.711L48.0123 136.691C49.6592 136.354 51.3982 135.907 53.2896 135.343L53.0037 134.385L52.7178 133.426C50.8708 133.977 49.1895 134.408 47.6108 134.732L47.8115 135.711ZM47.8115 135.711C46.8153 135.798 46.8153 135.798 46.8153 135.799C46.8153 135.799 46.8154 135.799 46.8154 135.799C46.8154 135.8 46.8155 135.8 46.8155 135.801C46.8156 135.802 46.8158 135.804 46.816 135.806C46.8164 135.811 46.817 135.818 46.8178 135.827C46.8194 135.844 46.8218 135.87 46.8249 135.903C46.8312 135.97 46.8405 136.067 46.8531 136.191C46.8783 136.439 46.9163 136.794 46.9683 137.229C47.0721 138.097 47.2319 139.284 47.456 140.558C47.6795 141.829 47.97 143.204 48.3381 144.441C48.6983 145.651 49.1624 146.834 49.7775 147.645L50.5741 147.041L51.3708 146.436C50.9833 145.925 50.6008 145.032 50.255 143.87C49.9172 142.735 49.6423 141.443 49.4258 140.212C49.2099 138.984 49.055 137.835 48.9541 136.991C48.9038 136.57 48.867 136.226 48.8429 135.989C48.8308 135.87 48.822 135.778 48.8161 135.716C48.8132 135.685 48.8111 135.662 48.8097 135.646C48.809 135.639 48.8085 135.633 48.8082 135.629C48.808 135.627 48.8079 135.626 48.8078 135.625C48.8078 135.625 48.8078 135.625 48.8077 135.625C48.8077 135.625 48.8077 135.625 48.8077 135.624C48.8077 135.625 48.8077 135.625 47.8115 135.711ZM50.5741 147.041L49.7775 147.645C50.8705 149.086 52.0557 149.987 52.9802 150.53C53.4421 150.802 53.8392 150.984 54.1284 151.101C54.273 151.16 54.391 151.202 54.4769 151.23C54.5198 151.244 54.5548 151.255 54.5811 151.263C54.5943 151.267 54.6053 151.271 54.6141 151.273C54.6185 151.274 54.6224 151.275 54.6256 151.276C54.6273 151.277 54.6288 151.277 54.6301 151.278C54.6308 151.278 54.6314 151.278 54.632 151.278C54.6323 151.278 54.6327 151.278 54.6329 151.278C54.6333 151.278 54.6337 151.279 54.8962 150.314C55.1588 149.349 55.1591 149.349 55.1595 149.349C55.1596 149.349 55.16 149.349 55.1602 149.349C55.1607 149.349 55.1611 149.349 55.1615 149.349C55.1623 149.35 55.1629 149.35 55.1635 149.35C55.1645 149.35 55.165 149.35 55.1649 149.35C55.1648 149.35 55.1626 149.35 55.1583 149.348C55.1497 149.346 55.133 149.341 55.1087 149.333C55.06 149.316 54.9813 149.289 54.8774 149.247C54.6694 149.163 54.362 149.022 53.9939 148.806C53.2586 148.374 52.2828 147.638 51.3708 146.436L50.5741 147.041ZM54.8962 150.314L54.7501 151.303C58.4929 151.856 63.3727 152.171 67.3403 151.96C69.3139 151.856 71.1301 151.619 72.4816 151.184C73.1537 150.967 73.7835 150.679 74.2628 150.278C74.7614 149.861 75.1452 149.272 75.1452 148.519H74.1452H73.1452C73.1452 148.525 73.1581 148.594 72.9787 148.745C72.7799 148.911 72.4247 149.101 71.8686 149.28C70.7637 149.636 69.151 149.862 67.2346 149.963C63.4222 150.165 58.6775 149.861 55.0424 149.324L54.8962 150.314ZM74.1452 148.519H75.1452C75.1452 147.721 75.0886 147.108 74.9871 146.637C74.8881 146.177 74.7302 145.773 74.4676 145.469C74.1724 145.127 73.7878 144.964 73.4075 144.966C73.2383 144.967 73.0971 145 72.9945 145.034C72.9425 145.052 72.8977 145.071 72.861 145.088C72.8425 145.097 72.8257 145.105 72.8107 145.113C72.8032 145.117 72.7962 145.121 72.7895 145.125C72.7862 145.126 72.783 145.128 72.7798 145.13C72.7783 145.131 72.7767 145.132 72.7752 145.133C72.7745 145.133 72.7734 145.134 72.773 145.134C72.7719 145.135 72.7708 145.135 73.2764 145.998C73.7819 146.861 73.7808 146.861 73.7797 146.862C73.7794 146.862 73.7783 146.863 73.7776 146.863C73.7761 146.864 73.7746 146.865 73.7732 146.866C73.7703 146.868 73.7674 146.869 73.7645 146.871C73.7586 146.874 73.7528 146.877 73.7469 146.88C73.7353 146.886 73.7234 146.892 73.7113 146.898C73.6872 146.909 73.6612 146.92 73.6329 146.93C73.5778 146.948 73.5044 146.965 73.4168 146.966C73.1993 146.967 73.0319 146.866 72.9539 146.776C72.9086 146.723 72.9679 146.76 73.0319 147.057C73.0933 147.343 73.1452 147.803 73.1452 148.519H74.1452ZM80.0491 111.473L81.0491 111.463C80.8087 87.3287 81.2235 73.0985 73.3575 49.1656L72.4075 49.4779L71.4575 49.7901C79.2142 73.3904 78.8086 87.3266 79.0492 111.483L80.0491 111.473ZM13.8819 52.4843L14.8742 52.6083C17.935 28.1139 21.2578 18.8313 29.5302 12.058L28.8967 11.2842L28.2632 10.5105C19.3132 17.8386 15.9468 27.8945 12.8897 52.3603L13.8819 52.4843ZM28.8967 11.2842L29.5302 12.058C29.9367 11.7252 30.3559 11.3978 30.7886 11.0745L30.1901 10.2734L29.5916 9.4723C29.1364 9.81236 28.6938 10.158 28.2632 10.5105L28.8967 11.2842ZM28.8967 11.2842C29.565 10.5404 29.5653 10.5406 29.5656 10.5409C29.5657 10.5409 29.5659 10.5412 29.5661 10.5413C29.5663 10.5415 29.5665 10.5417 29.5666 10.5418C29.5668 10.542 29.5667 10.5419 29.5662 10.5414C29.5653 10.5406 29.5631 10.5386 29.5597 10.5354C29.5528 10.5291 29.541 10.5181 29.5249 10.5027C29.4926 10.4718 29.4428 10.4234 29.3797 10.3588C29.2531 10.2293 29.0743 10.0367 28.8749 9.79293C28.4709 9.29922 28.0067 8.6256 27.704 7.8638C27.4028 7.10583 27.2797 6.30938 27.4789 5.52127C27.6751 4.74515 28.216 3.84912 29.4809 2.93863L28.8967 2.12702L28.3125 1.3154C26.748 2.44152 25.8742 3.70843 25.5399 5.03115C25.2086 6.34189 25.4391 7.58016 25.8453 8.60235C26.25 9.62071 26.8468 10.4727 27.327 11.0595C27.5696 11.356 27.7888 11.5924 27.9495 11.7569C28.0301 11.8393 28.0964 11.904 28.1442 11.9496C28.1681 11.9724 28.1874 11.9905 28.2016 12.0036C28.2087 12.0102 28.2146 12.0156 28.219 12.0196C28.2213 12.0217 28.2232 12.0234 28.2247 12.0248C28.2255 12.0255 28.2262 12.0262 28.2268 12.0267C28.2271 12.027 28.2275 12.0273 28.2277 12.0275C28.228 12.0278 28.2284 12.0281 28.8967 11.2842ZM51.6435 5.4001L51.4557 6.38231C60.9213 8.19195 65.5195 13.7386 67.2379 16.4144L68.0794 15.874L68.9208 15.3336C67.0039 12.3487 61.9903 6.3601 51.8313 4.41789L51.6435 5.4001ZM68.0794 15.874L67.2379 16.4144C67.5785 16.9446 67.6361 17.0219 67.6991 17.1343C67.7623 17.247 67.7997 17.3395 68.0768 17.9106L68.9765 17.4742L69.8763 17.0378C69.6436 16.558 69.5452 16.3374 69.4436 16.1562C69.3419 15.9748 69.2058 15.7774 68.9208 15.3336L68.0794 15.874ZM68.0794 15.874C68.9932 16.2801 68.993 16.2805 68.9929 16.2808C68.9928 16.2809 68.9927 16.2812 68.9926 16.2813C68.9925 16.2816 68.9924 16.2818 68.9924 16.2819C68.9923 16.2821 68.9924 16.2818 68.9927 16.2812C68.9933 16.2799 68.9946 16.2771 68.9966 16.2727C69.0007 16.2639 69.0076 16.249 69.0173 16.2286C69.0369 16.1879 69.0675 16.1255 69.1089 16.0463C69.1918 15.8872 69.3161 15.6632 69.4775 15.4116C69.8088 14.8954 70.2591 14.3218 70.7849 13.9303C71.2968 13.5493 71.8017 13.3927 72.336 13.5145C72.9049 13.6442 73.7342 14.1395 74.7553 15.5796L75.5711 15.0012L76.3868 14.4227C75.2246 12.7837 74.0258 11.8485 72.7806 11.5646C71.5008 11.2727 70.4058 11.7192 69.5906 12.3261C68.7892 12.9227 68.1854 13.722 67.7942 14.3316C67.5945 14.6429 67.4405 14.9202 67.3355 15.1215C67.2828 15.2225 67.2421 15.3052 67.2137 15.3644C67.1995 15.3941 67.1883 15.4179 67.1803 15.4354C67.1763 15.4441 67.173 15.4512 67.1706 15.4566C67.1694 15.4594 67.1683 15.4617 67.1675 15.4635C67.1671 15.4645 67.1667 15.4653 67.1664 15.466C67.1662 15.4664 67.166 15.4668 67.1659 15.467C67.1657 15.4674 67.1656 15.4678 68.0794 15.874ZM72.4075 49.4779L73.4068 49.5148C73.7419 40.439 73.9221 34.8946 73.924 31.2198C73.9258 27.5407 73.7501 25.6691 73.3494 23.9616L72.3758 24.1901L71.4023 24.4186C71.7504 25.9019 71.9258 27.5925 71.924 31.2188C71.9221 34.8493 71.7437 40.3533 71.4082 49.441L72.4075 49.4779ZM72.3758 24.1901L73.3494 23.9616C73.2702 23.6242 73.132 23.1344 73.0191 22.746C72.9616 22.5481 72.9087 22.3701 72.8702 22.2415C72.851 22.1771 72.8353 22.1251 72.8244 22.0889C72.8189 22.0709 72.8147 22.0568 72.8117 22.0471C72.8103 22.0423 72.8091 22.0386 72.8084 22.0361C72.808 22.0348 72.8077 22.0338 72.8075 22.0331C72.8074 22.0328 72.8073 22.0325 72.8072 22.0323C72.8072 22.0322 72.8072 22.0321 72.8072 22.0321C72.8072 22.0321 72.8071 22.032 72.8071 22.032C72.8071 22.032 72.8071 22.032 71.8505 22.3233C70.8939 22.6146 70.8939 22.6146 70.8939 22.6145C70.8939 22.6146 70.8939 22.6146 70.8939 22.6146C70.8939 22.6146 70.8939 22.6146 70.8939 22.6147C70.8939 22.6148 70.894 22.615 70.8941 22.6152C70.8942 22.6158 70.8945 22.6166 70.8948 22.6177C70.8955 22.6199 70.8965 22.6233 70.8979 22.6278C70.9006 22.6367 70.9046 22.6501 70.9099 22.6674C70.9203 22.702 70.9355 22.7523 70.9542 22.8148C70.9916 22.9397 71.0429 23.1126 71.0986 23.3042C71.2121 23.6949 71.3365 24.1384 71.4023 24.4186L72.3758 24.1901ZM75.5711 15.0012L74.7553 15.5796C75.7428 16.9722 75.9888 18.087 75.9174 18.9528C75.8451 19.8288 75.4362 20.5901 74.8604 21.2442C74.2812 21.9021 73.5672 22.4111 72.9787 22.7604C72.688 22.933 72.4365 23.0616 72.2605 23.1459C72.1727 23.1879 72.1042 23.2186 72.0598 23.238C72.0376 23.2477 72.0214 23.2545 72.0119 23.2585C72.0071 23.2605 72.004 23.2618 72.0026 23.2623C72.002 23.2626 72.0017 23.2627 72.0019 23.2626C72.002 23.2626 72.0022 23.2625 72.0025 23.2624C72.0027 23.2623 72.003 23.2622 72.0031 23.2622C72.0034 23.262 72.0038 23.2619 72.3758 24.1901C72.7479 25.1183 72.7483 25.1181 72.7488 25.118C72.749 25.1179 72.7494 25.1177 72.7498 25.1175C72.7506 25.1172 72.7515 25.1169 72.7525 25.1164C72.7545 25.1156 72.757 25.1146 72.76 25.1134C72.7658 25.111 72.7735 25.1078 72.7829 25.1039C72.8017 25.0961 72.8275 25.0851 72.8596 25.0711C72.9238 25.0431 73.0136 25.0027 73.124 24.9498C73.3445 24.8443 73.6496 24.688 73.9996 24.4802C74.6925 24.0689 75.5961 23.4353 76.3616 22.5658C77.1304 21.6924 77.7932 20.5414 77.9106 19.1172C78.029 17.6826 77.5827 16.1093 76.3868 14.4227L75.5711 15.0012ZM33.6211 147.041L32.6979 146.656L32.6889 146.678L33.6121 147.062L34.5352 147.447L34.5442 147.425L33.6211 147.041ZM33.6121 147.062L32.6889 146.678C32.4697 147.204 32.3034 147.587 31.9197 147.984C31.5284 148.388 30.8441 148.869 29.5009 149.379L29.8559 150.314L30.211 151.248C31.7211 150.675 32.6941 150.06 33.3571 149.374C34.0278 148.681 34.3129 147.98 34.5352 147.447L33.6121 147.062ZM28.8967 2.12702L29.4809 2.93863C30.7566 2.02038 31.6011 1.92324 32.1325 2.04025C32.6811 2.16104 33.1707 2.5692 33.6018 3.23209C34.0295 3.88968 34.3248 4.68729 34.5146 5.3547C34.7018 6.01306 34.7712 6.49025 34.7692 6.47605L35.7586 6.33106L36.748 6.18607C36.7431 6.15235 36.4169 3.89223 35.2784 2.14166C34.7001 1.25253 33.8282 0.365697 32.5626 0.0870316C31.2798 -0.195416 29.8572 0.203529 28.3125 1.3154L28.8967 2.12702ZM35.7586 6.33106L36.2125 7.22208C38.2605 6.1787 42.8854 4.74384 51.4557 6.38231L51.6435 5.4001L51.8313 4.41789C42.9031 2.71099 37.8139 4.16162 35.3046 5.44003L35.7586 6.33106ZM80.0491 111.473L79.1047 111.801C82.9701 122.91 79.4503 130.504 72.4693 145.364L73.3744 145.789L74.2795 146.214C81.1984 131.487 85.1675 123.139 80.9936 111.144L80.0491 111.473ZM73.3744 145.789L72.4693 145.364L72.3712 145.573L73.2764 145.998L74.1815 146.423L74.2796 146.214L73.3744 145.789ZM34.11 7.43669C34.8339 8.12662 34.8337 8.12684 34.8335 8.12705C34.8334 8.12711 34.8332 8.12732 34.8331 8.12745C34.8328 8.12772 34.8326 8.12798 34.8323 8.12824C34.8318 8.12874 34.8314 8.12922 34.8309 8.12966C34.8301 8.13055 34.8294 8.13131 34.8287 8.13195C34.8275 8.13323 34.8267 8.13402 34.8264 8.13432C34.8258 8.13494 34.8271 8.13365 34.8303 8.13054C34.8367 8.12434 34.8507 8.11089 34.8728 8.09105C34.9171 8.05138 34.9934 7.98606 35.1046 7.90183C35.3267 7.73352 35.6889 7.48888 36.2125 7.22208L35.7586 6.33106L35.3046 5.44003C34.672 5.76234 34.2098 6.07052 33.8968 6.30774C33.7403 6.42629 33.6213 6.52693 33.5371 6.60251C33.495 6.6403 33.4616 6.67181 33.4365 6.69615C33.424 6.70832 33.4136 6.7187 33.4052 6.72717C33.401 6.73141 33.3973 6.73517 33.3941 6.73844C33.3925 6.74007 33.3911 6.74158 33.3897 6.74297C33.3891 6.74367 33.3884 6.74433 33.3878 6.74496C33.3875 6.74528 33.3872 6.74558 33.3869 6.74588C33.3868 6.74603 33.3866 6.74625 33.3865 6.74633C33.3863 6.74655 33.3861 6.74676 34.11 7.43669ZM73.2764 145.998L74.1815 146.423C74.2143 146.353 74.2469 146.284 74.2795 146.214L73.3744 145.789L72.4693 145.364C72.4368 145.433 72.4039 145.503 72.3712 145.573L73.2764 145.998ZM35.7586 6.33106L34.7692 6.47605C34.7688 6.47383 34.7685 6.47158 34.7682 6.46933C34.768 6.4682 34.7679 6.46706 34.7677 6.46593C34.7676 6.46536 34.7676 6.46479 34.7675 6.46422C34.7675 6.46393 34.7674 6.46364 34.7674 6.46336C34.7674 6.46321 34.7673 6.46307 34.7673 6.46293C34.7673 6.46286 34.7673 6.46279 34.7673 6.46271C34.7673 6.46268 34.7673 6.46264 34.7673 6.46261C34.7673 6.46259 34.7673 6.46257 34.7673 6.46255C34.7673 6.46254 34.7673 6.46253 34.7673 6.46252C34.7673 6.46252 34.7673 6.46251 35.7586 6.33131C36.75 6.2001 36.75 6.2001 36.75 6.20009C36.75 6.20008 36.75 6.20007 36.75 6.20006C36.75 6.20004 36.75 6.20002 36.75 6.2C36.75 6.19997 36.75 6.19993 36.75 6.1999C36.7499 6.19983 36.7499 6.19975 36.7499 6.19968C36.7499 6.19954 36.7499 6.19939 36.7499 6.19925C36.7498 6.19896 36.7498 6.19868 36.7497 6.19839C36.7497 6.19781 36.7496 6.19723 36.7495 6.19665C36.7494 6.1955 36.7492 6.19433 36.749 6.19316C36.7487 6.19082 36.7484 6.18845 36.748 6.18606L35.7586 6.33106ZM33.6211 147.041L32.6979 146.656C32.695 146.663 32.6919 146.67 32.6889 146.678L33.6121 147.062L34.5352 147.447C34.5382 147.439 34.5412 147.432 34.5442 147.425L33.6211 147.041Z" fill="#7698EF" fill-opacity="0.3"/>
<path d="M53.0471 66.983C52.3606 78.2024 52.0044 84.4745 47.767 97.8714C47.767 97.8714 46.4304 104.06 51.5099 107.133C56.5893 110.206 61.0455 106.139 63.7856 103.157C66.5256 100.175 72.207 82.8636 72.207 82.8636" stroke="#7698EF" stroke-width="2" stroke-linecap="round"/>
<path d="M33.7515 64.6423C32.5389 75.8089 31.8339 82.0459 33.7458 96.0606C33.7458 96.0606 34.0187 102.411 28.5081 104.42C22.9976 106.429 19.3009 101.543 17.1088 98.0652C14.9168 94.5875 12.2438 76.4371 12.2438 76.4371" stroke="#7698EF" stroke-width="2" stroke-linecap="round"/>
<path d="M73.7663 19.9471C74.1896 19.5349 74.301 17.9103 73.7663 17.3043C73.2316 16.6983 71.9617 16.7467 71.271 17.0134C70.5804 17.2801 70.5136 19.7779 70.5804 19.9471C70.6472 20.1162 73.343 20.3592 73.7663 19.9471Z" fill="#88A5F2" stroke="#88A5F2" stroke-width="2" stroke-linecap="round"/>
<path d="M29.0668 7.03302C28.8459 6.46357 29.3829 4.94292 30.1042 4.64356C30.8256 4.3442 31.9548 4.97829 32.4745 5.54049C32.9943 6.1027 32.0742 8.39223 31.9474 8.51409C31.8206 8.63595 29.2878 7.60248 29.0668 7.03302Z" fill="#7698EF" stroke="#7698EF" stroke-width="2" stroke-linecap="round"/>
<ellipse cx="1.98432" cy="2.78332" rx="1.98432" ry="2.78332" transform="matrix(0.920304 0.391203 -0.337827 0.941208 59.8958 24.0207)" fill="#060698"/>
<ellipse cx="1.98432" cy="2.78332" rx="1.98432" ry="2.78332" transform="matrix(0.920304 0.391203 -0.337827 0.941208 36.4135 16.7955)" fill="#060698"/>
<ellipse cx="47.054" cy="30.8094" rx="9.3126" ry="10.1345" fill="#6088E4"/>
<path d="M53.6919 30.3591C53.0666 32.8591 49.7612 34.0568 46.3091 33.0342C42.857 32.0116 40.5654 29.156 41.1907 26.656C41.816 24.1561 45.1214 22.9584 48.5735 23.981C52.0256 25.0036 54.3172 27.8592 53.6919 30.3591Z" fill="#060698"/>
<path d="M44.2914 35.1976L45.1158 31.8275L47.2991 32.7246L46.3188 35.634C46.3188 35.634 45.9401 36.5796 45.1158 36.5553C44.2914 36.5311 44.2914 35.1976 44.2914 35.1976Z" fill="#060698"/>
<path d="M46.4158 68.6175C45.9228 69.7231 44.6904 71.105 43.7044 71.105H41.7325H37.2957L39.0211 67.042L39.7606 65.3007C39.7606 65.3007 40.7465 62.8132 42.7184 62.8132H48.8807C48.8807 62.8132 46.9088 67.5119 46.4158 68.6175Z" fill="#6088E4"/>
<path d="M37.2957 71.105C37.2957 71.105 39.8158 71.105 41.7325 71.105M37.2957 71.105H41.7325M37.2957 71.105L39.0211 67.042M41.7325 71.105C42.6273 71.105 43.3906 71.105 43.7044 71.105C44.6904 71.105 45.9228 69.7231 46.4158 68.6175C46.9088 67.5119 48.8807 62.8132 48.8807 62.8132C48.8807 62.8132 44.6904 62.8132 42.7184 62.8132C40.7465 62.8132 39.7606 65.3007 39.7606 65.3007L39.0211 67.042M41.7325 71.105C41.7325 71.105 43.4579 69.6401 43.9509 68.3411C44.4439 67.042 45.1833 65.3007 45.1833 65.3007C45.1833 65.3007 42.7184 65.3007 41.7325 65.3007C40.7465 65.3007 39.0211 67.042 39.0211 67.042" stroke="#060698" stroke-linecap="round"/>
</svg>
