<svg width="239" height="441" viewBox="0 0 239 441" fill="none" xmlns="http://www.w3.org/2000/svg">
<path d="M102.431 394.468C102.431 394.468 97.966 422.758 96.6763 425.854L96.6502 425.917C95.3687 428.994 94.0301 432.209 85.7487 435.354C77.4111 438.52 43.91 440.561 34.2792 437.465C24.6485 434.369 32.0161 425.854 32.0161 425.854C-3.44108 372.619 -3.03226 349.187 10.4843 311.438C10.3591 247.517 11.4524 211.825 39.3873 151.423C48.2654 80.3744 57.9725 52.3112 82.9648 31.848C82.9648 31.848 66.5411 17.0926 82.9648 5.27095C99.3364 -6.51318 102.858 17.3209 102.88 17.4724C109.493 14.1031 123.59 9.91579 148.983 14.7704C177.461 20.2149 191.409 36.9543 196.685 45.1689C196.685 45.1689 205.755 24.7625 218.428 42.6357C231.101 60.5089 209.154 69.3047 209.154 69.3047C211.328 78.5656 211.193 89.9818 209.246 142.698C231.917 211.675 230.727 252.549 231.425 322.626C243.091 356.153 232.223 379.286 212.053 422.223L211.768 422.829C211.768 422.829 214.29 421.351 214.29 430.147C214.29 438.943 179.836 438.518 158.423 435.354C158.423 435.354 151.699 433.524 145.879 425.854C140.06 418.184 137.861 392.974 137.861 392.974C125.163 395.576 114.544 395.866 102.431 394.468Z" fill="#BDCEFA"/>
<path d="M81.6247 388.923C80.5427 388.701 79.4855 389.398 79.2634 390.48C79.0412 391.562 79.7383 392.619 80.8203 392.841L81.2225 390.882L81.6247 388.923ZM153.502 391.039C154.561 390.723 155.163 389.609 154.847 388.551C154.531 387.492 153.417 386.89 152.359 387.206L152.931 389.123L153.502 391.039ZM102.431 394.468L102.66 392.481L102.431 394.468ZM85.7487 435.354L86.4588 437.224L85.7487 435.354ZM32.0161 425.854L33.5285 427.163L34.5243 426.012L33.6807 424.746L32.0161 425.854ZM10.4843 311.438L12.3672 312.112L12.4849 311.783L12.4843 311.434L10.4843 311.438ZM39.3873 151.423L41.2026 152.263L41.3333 151.98L41.3719 151.671L39.3873 151.423ZM87.9157 30.5165C88.8006 29.8553 88.9819 28.6021 88.3208 27.7172C87.6597 26.8323 86.4064 26.6509 85.5216 27.312L86.7186 28.9142L87.9157 30.5165ZM158.423 435.354L157.898 437.284L158.013 437.315L158.131 437.332L158.423 435.354ZM211.768 422.829L209.958 421.978C209.585 422.771 209.772 423.715 210.42 424.306C211.067 424.896 212.023 424.997 212.779 424.554L211.768 422.829ZM231.425 322.626L229.425 322.646L229.428 322.974L229.536 323.283L231.425 322.626ZM209.246 142.698L207.248 142.624L207.234 142.982L207.346 143.322L209.246 142.698ZM209.543 63.304C209.221 62.2474 208.104 61.6516 207.047 61.9734C205.991 62.2951 205.395 63.4126 205.717 64.4692L207.63 63.8866L209.543 63.304ZM82.9648 31.848L84.2318 33.3955L82.9648 31.848ZM100.897 17.7355C101.042 18.8305 102.048 19.6007 103.143 19.4558C104.238 19.3109 105.008 18.3057 104.863 17.2107L102.88 17.4731L100.897 17.7355ZM96.6475 19.3014C95.8855 20.101 95.9158 21.3669 96.7154 22.129C97.515 22.8911 98.781 22.8607 99.543 22.0611L98.0953 20.6812L96.6475 19.3014ZM148.983 14.7704L149.358 12.806L148.983 14.7704ZM197.489 50.686C197.971 51.6799 199.168 52.0947 200.161 51.6127C201.155 51.1306 201.57 49.9341 201.088 48.9403L199.289 49.8132L197.489 50.686ZM196.685 45.1689L195.002 46.2496L196.685 45.1689ZM209.154 69.3047L207.207 69.7617L209.154 69.3047ZM96.6502 425.917L94.8039 425.148L96.6502 425.917ZM212.053 422.223L210.243 421.372L212.053 422.223ZM81.2225 390.882L80.8203 392.841C88.7021 394.459 95.6552 395.699 102.202 396.455L102.431 394.468L102.66 392.481C96.2806 391.744 89.4565 390.531 81.6247 388.923L81.2225 390.882ZM102.431 394.468C100.456 394.156 100.455 394.156 100.455 394.156C100.455 394.156 100.455 394.157 100.455 394.157C100.455 394.158 100.455 394.159 100.455 394.161C100.454 394.164 100.453 394.169 100.452 394.176C100.45 394.189 100.447 394.21 100.443 394.236C100.434 394.29 100.422 394.369 100.405 394.473C100.372 394.68 100.324 394.985 100.262 395.374C100.137 396.152 99.9582 397.267 99.7391 398.616C99.3009 401.313 98.7035 404.94 98.066 408.662C97.4281 412.387 96.752 416.197 96.1563 419.262C95.8581 420.797 95.5828 422.131 95.3445 423.169C95.0926 424.267 94.9152 424.881 94.83 425.085L96.6763 425.854L98.5225 426.623C98.7597 426.054 99.004 425.106 99.2432 424.064C99.4959 422.963 99.781 421.579 100.083 420.025C100.687 416.916 101.369 413.072 102.009 409.338C102.649 405.6 103.248 401.961 103.687 399.257C103.907 397.905 104.087 396.786 104.212 396.005C104.274 395.615 104.323 395.308 104.356 395.1C104.372 394.996 104.385 394.916 104.394 394.862C104.398 394.835 104.401 394.814 104.403 394.801C104.404 394.794 104.405 394.788 104.406 394.785C104.406 394.783 104.406 394.782 104.406 394.781C104.406 394.78 104.407 394.78 104.407 394.78C104.407 394.78 104.407 394.78 102.431 394.468ZM85.7487 435.354L85.0386 433.484C83.1918 434.186 79.7395 434.885 75.2822 435.472C70.8819 436.052 65.6672 436.503 60.4013 436.76C55.1343 437.018 49.8459 437.08 45.2959 436.888C40.6877 436.694 37.0223 436.246 34.8913 435.561L34.2792 437.465L33.6671 439.369C36.3515 440.232 40.4852 440.689 45.1277 440.885C49.8284 441.082 55.2422 441.017 60.5965 440.755C65.9519 440.494 71.2777 440.034 75.8048 439.438C80.2749 438.849 84.1368 438.105 86.4588 437.224L85.7487 435.354ZM34.2792 437.465L34.8913 435.561C32.7979 434.888 31.9663 434.034 31.624 433.397C31.2762 432.751 31.2306 431.953 31.4747 430.99C31.7207 430.02 32.2202 429.063 32.7014 428.309C32.9358 427.941 33.1523 427.643 33.3071 427.441C33.3841 427.34 33.445 427.264 33.484 427.217C33.5035 427.193 33.5174 427.176 33.5251 427.167C33.5289 427.163 33.5312 427.16 33.5318 427.159C33.5321 427.159 33.5319 427.159 33.5314 427.16C33.5311 427.16 33.5308 427.16 33.5303 427.161C33.53 427.161 33.5296 427.162 33.5295 427.162C33.529 427.162 33.5285 427.163 32.0161 425.854C30.5037 424.546 30.5032 424.546 30.5026 424.547C30.5023 424.547 30.5017 424.548 30.5013 424.548C30.5003 424.55 30.4993 424.551 30.4981 424.552C30.4958 424.555 30.493 424.558 30.4898 424.562C30.4834 424.569 30.4753 424.579 30.4655 424.591C30.4458 424.614 30.4196 424.645 30.3874 424.685C30.3232 424.763 30.2352 424.873 30.1296 425.011C29.919 425.287 29.6352 425.678 29.3294 426.157C28.73 427.096 27.9896 428.461 27.5975 430.007C27.2036 431.56 27.1218 433.471 28.1013 435.292C29.0861 437.123 30.9451 438.494 33.6671 439.369L34.2792 437.465ZM32.0161 425.854L33.6807 424.746C16.0063 398.209 7.43609 379.334 4.86197 362.536C2.29665 345.795 5.64861 330.876 12.3672 312.112L10.4843 311.438L8.60132 310.763C1.80339 329.749 -1.80732 345.421 0.908119 363.142C3.61475 380.805 12.5687 400.264 30.3515 426.963L32.0161 425.854ZM10.4843 311.438L12.4843 311.434C12.3593 247.606 13.4522 212.265 41.2026 152.263L39.3873 151.423L37.5721 150.584C9.45253 211.384 8.35891 247.428 8.48426 311.442L10.4843 311.438ZM102.431 394.468L102.202 396.455C114.512 397.876 125.345 397.58 138.263 394.933L137.861 392.974L137.46 391.014C124.982 393.571 114.577 393.857 102.66 392.481L102.431 394.468ZM137.861 392.974L138.263 394.933C143.012 393.96 148.033 392.671 153.502 391.039L152.931 389.123L152.359 387.206C146.978 388.812 142.072 390.069 137.46 391.014L137.861 392.974ZM137.861 392.974C135.869 393.148 135.869 393.148 135.869 393.148C135.869 393.148 135.869 393.149 135.869 393.149C135.869 393.151 135.869 393.152 135.869 393.154C135.87 393.157 135.87 393.162 135.871 393.169C135.872 393.182 135.874 393.202 135.876 393.227C135.881 393.277 135.887 393.35 135.896 393.446C135.914 393.637 135.941 393.917 135.977 394.274C136.05 394.989 136.16 396.015 136.31 397.27C136.61 399.778 137.072 403.207 137.718 406.884C138.364 410.555 139.2 414.508 140.254 418.051C141.293 421.542 142.604 424.846 144.286 427.063L145.879 425.854L147.473 424.645C146.245 423.028 145.098 420.304 144.088 416.91C143.094 413.57 142.289 409.782 141.658 406.191C141.027 402.607 140.576 399.254 140.282 396.795C140.135 395.567 140.027 394.564 139.957 393.87C139.922 393.523 139.896 393.254 139.879 393.072C139.87 392.981 139.864 392.912 139.86 392.866C139.858 392.843 139.856 392.826 139.855 392.815C139.855 392.81 139.854 392.806 139.854 392.803C139.854 392.802 139.854 392.801 139.854 392.8C139.854 392.8 139.854 392.8 139.854 392.8C139.854 392.8 139.854 392.8 137.861 392.974ZM145.879 425.854L144.286 427.063C147.377 431.137 150.722 433.677 153.32 435.204C154.618 435.968 155.73 436.478 156.533 436.803C156.934 436.965 157.259 437.08 157.491 437.158C157.607 437.197 157.701 437.226 157.769 437.246C157.803 437.257 157.831 437.265 157.853 437.271C157.864 437.274 157.873 437.277 157.881 437.279C157.884 437.28 157.888 437.281 157.891 437.282C157.892 437.282 157.894 437.282 157.895 437.283C157.895 437.283 157.896 437.283 157.897 437.283C157.897 437.283 157.898 437.284 158.423 435.354C158.948 433.424 158.949 433.424 158.95 433.424C158.95 433.424 158.951 433.425 158.951 433.425C158.952 433.425 158.953 433.425 158.954 433.425C158.955 433.426 158.956 433.426 158.956 433.426C158.957 433.426 158.957 433.426 158.955 433.426C158.95 433.424 158.94 433.421 158.924 433.417C158.891 433.407 158.834 433.389 158.755 433.363C158.597 433.31 158.351 433.223 158.031 433.094C157.39 432.835 156.458 432.409 155.347 431.756C153.128 430.451 150.201 428.242 147.473 424.645L145.879 425.854ZM158.423 435.354L158.131 437.332C168.945 438.93 183.047 439.838 194.492 439.232C200.194 438.93 205.374 438.247 209.185 437.02C211.083 436.409 212.787 435.618 214.052 434.559C215.355 433.468 216.29 431.994 216.29 430.147H214.29H212.29C212.29 430.499 212.148 430.935 211.483 431.492C210.78 432.081 209.625 432.676 207.959 433.212C204.641 434.28 199.869 434.942 194.281 435.238C183.146 435.827 169.315 434.941 158.716 433.375L158.423 435.354ZM214.29 430.147H216.29C216.29 427.865 216.127 426.156 215.851 424.872C215.58 423.61 215.166 422.603 214.543 421.882C213.854 421.085 212.987 420.731 212.153 420.735C211.778 420.737 211.465 420.81 211.238 420.887C211.123 420.925 211.025 420.967 210.946 421.004C210.906 421.023 210.871 421.041 210.839 421.057C210.823 421.066 210.809 421.074 210.795 421.081C210.788 421.085 210.781 421.089 210.775 421.092C210.772 421.094 210.769 421.096 210.766 421.098C210.764 421.099 210.762 421.1 210.761 421.1C210.759 421.102 210.757 421.103 211.768 422.829C212.779 424.554 212.777 424.555 212.775 424.557C212.774 424.557 212.772 424.558 212.77 424.559C212.768 424.561 212.765 424.562 212.762 424.564C212.756 424.567 212.75 424.571 212.745 424.574C212.734 424.58 212.722 424.586 212.712 424.592C212.69 424.603 212.668 424.614 212.647 424.624C212.604 424.644 212.561 424.662 212.515 424.678C212.426 424.707 212.31 424.734 212.171 424.735C211.81 424.737 211.573 424.564 211.515 424.496C211.512 424.493 211.57 424.559 211.655 424.757C211.74 424.955 211.843 425.261 211.941 425.713C212.137 426.626 212.29 428.03 212.29 430.147H214.29ZM231.425 322.626L233.425 322.606C232.727 252.551 233.927 211.384 211.146 142.073L209.246 142.698L207.346 143.322C229.908 211.967 228.727 252.547 229.425 322.646L231.425 322.626ZM39.3873 151.423L41.3719 151.671C50.2535 80.5938 59.9171 53.3039 84.2318 33.3955L82.9648 31.848L81.6977 30.3005C56.0279 51.3186 46.2772 80.155 37.4028 151.175L39.3873 151.423ZM82.9648 31.848L84.2318 33.3955C85.4223 32.4207 86.6496 31.4624 87.9157 30.5165L86.7186 28.9142L85.5216 27.312C84.2107 28.2915 82.9365 29.2862 81.6977 30.3005L82.9648 31.848ZM82.9648 31.848C84.3014 30.3603 84.302 30.3608 84.3025 30.3613C84.3026 30.3613 84.3031 30.3618 84.3033 30.3619C84.3036 30.3623 84.3038 30.3624 84.3037 30.3623C84.3034 30.3621 84.3023 30.361 84.3001 30.3591C84.2959 30.3552 84.2878 30.3478 84.2762 30.3371C84.253 30.3156 84.2154 30.2805 84.165 30.2325C84.0642 30.1363 83.9124 29.9883 83.7213 29.7928C83.3384 29.4012 82.8015 28.8225 82.203 28.0912C80.9961 26.6163 79.5891 24.5808 78.6645 22.2541C77.743 19.935 77.3373 17.4241 77.975 14.901C78.6067 12.4019 80.3268 9.63397 84.1332 6.89418L82.9648 5.27095L81.7964 3.64772C77.3909 6.81877 75.005 10.3284 74.097 13.9208C73.195 17.4891 73.8158 20.8836 74.9472 23.7311C76.0757 26.571 77.7481 28.9632 79.1074 30.6243C79.792 31.4611 80.4099 32.1275 80.861 32.589C81.0869 32.8201 81.2719 33.0006 81.4036 33.1264C81.4695 33.1892 81.5222 33.2385 81.5601 33.2736C81.5791 33.2911 81.5943 33.3051 81.6058 33.3155C81.6115 33.3207 81.6162 33.325 81.6199 33.3283C81.6218 33.33 81.6234 33.3315 81.6248 33.3327C81.6255 33.3334 81.6263 33.3341 81.6267 33.3344C81.6274 33.3351 81.6281 33.3358 82.9648 31.848ZM148.983 14.7704L148.607 16.7348C176.392 22.0468 189.925 38.3442 195.002 46.2496L196.685 45.1689L198.368 44.0882C192.894 35.5644 178.53 18.3831 149.358 12.806L148.983 14.7704ZM196.685 45.1689L195.002 46.2496C195.965 47.7495 196.168 48.028 196.368 48.3854C196.569 48.7435 196.705 49.0696 197.489 50.686L199.289 49.8132L201.088 48.9403C200.393 47.5067 200.135 46.9242 199.857 46.4293C199.579 45.9338 199.22 45.4152 198.368 44.0882L196.685 45.1689ZM196.685 45.1689C198.512 45.9812 198.512 45.9819 198.512 45.9825C198.512 45.9826 198.512 45.9831 198.511 45.9833C198.511 45.9837 198.511 45.9838 198.511 45.9836C198.512 45.9831 198.512 45.9815 198.514 45.9787C198.516 45.9732 198.521 45.9629 198.527 45.9482C198.541 45.9188 198.563 45.8715 198.593 45.8083C198.654 45.6817 198.748 45.4915 198.873 45.2517C199.123 44.7708 199.497 44.0969 199.983 43.3397C200.972 41.7992 202.348 40.0327 203.998 38.8041C205.621 37.5962 207.352 37.0109 209.239 37.4412C211.196 37.8873 213.769 39.5232 216.797 43.7925L218.428 42.6357L220.06 41.4788C216.75 36.8115 213.438 34.2958 210.129 33.5413C206.751 32.7709 203.839 33.936 201.61 35.5956C199.408 37.2344 197.725 39.4524 196.617 41.1796C196.054 42.0563 195.621 42.8369 195.326 43.4022C195.178 43.6855 195.065 43.9162 194.986 44.0799C194.947 44.1617 194.916 44.2269 194.895 44.2736C194.884 44.2969 194.876 44.3157 194.869 44.3296C194.866 44.3365 194.864 44.3423 194.862 44.3468C194.861 44.349 194.86 44.351 194.859 44.3526C194.859 44.3534 194.858 44.3544 194.858 44.3548C194.858 44.3557 194.857 44.3566 196.685 45.1689ZM209.246 142.698L211.245 142.771C212.218 116.425 212.74 100.352 212.745 89.7066C212.751 79.0526 212.241 73.7024 211.102 68.8478L209.154 69.3047L207.207 69.7617C208.241 74.1679 208.751 79.1563 208.745 89.7045C208.74 100.261 208.221 116.254 207.248 142.624L209.246 142.698ZM209.154 69.3047L211.102 68.8478C210.878 67.8945 210.483 66.4936 210.155 65.3654C209.989 64.7939 209.836 64.2794 209.725 63.9079C209.669 63.722 209.624 63.5717 209.593 63.4675C209.577 63.4154 209.565 63.3749 209.556 63.3472C209.552 63.3333 209.549 63.3227 209.547 63.3155C209.545 63.3118 209.545 63.3091 209.544 63.3071C209.544 63.3062 209.543 63.3055 209.543 63.3049C209.543 63.3047 209.543 63.3045 209.543 63.3043C209.543 63.3042 209.543 63.3042 209.543 63.3041C209.543 63.3041 209.543 63.304 207.63 63.8866C205.717 64.4692 205.717 64.4692 205.717 64.4692C205.717 64.4692 205.717 64.4692 205.717 64.4693C205.717 64.4693 205.717 64.4695 205.717 64.4697C205.717 64.47 205.717 64.4706 205.717 64.4714C205.718 64.473 205.718 64.4754 205.719 64.4787C205.721 64.4853 205.724 64.4953 205.728 64.5084C205.736 64.5347 205.748 64.5738 205.764 64.6244C205.794 64.7255 205.838 64.8724 205.893 65.0545C206.002 65.4188 206.151 65.9229 206.314 66.4818C206.643 67.6146 207.011 68.9228 207.207 69.7617L209.154 69.3047ZM218.428 42.6357L216.797 43.7925C219.757 47.9669 220.561 51.4093 220.332 54.1786C220.102 56.9683 218.801 59.3538 217.043 61.3511C215.278 63.356 213.12 64.8894 211.365 65.9313C210.494 66.4481 209.74 66.8338 209.209 67.0879C208.944 67.2148 208.736 67.3083 208.598 67.3685C208.529 67.3986 208.478 67.4202 208.446 67.4336C208.43 67.4402 208.419 67.4448 208.413 67.4472C208.41 67.4485 208.408 67.4492 208.408 67.4493C208.408 67.4494 208.408 67.4494 208.408 67.4492C208.408 67.4491 208.409 67.4489 208.409 67.4489C208.41 67.4486 208.41 67.4483 209.154 69.3047C209.899 71.1612 209.899 71.1608 209.9 71.1604C209.901 71.1603 209.902 71.1598 209.903 71.1595C209.905 71.1588 209.907 71.1579 209.909 71.1569C209.914 71.155 209.92 71.1525 209.928 71.1494C209.943 71.1432 209.963 71.1349 209.988 71.1244C210.038 71.1033 210.109 71.0734 210.198 71.0347C210.375 70.9573 210.626 70.8444 210.936 70.6959C211.556 70.3992 212.418 69.9581 213.407 69.3709C215.37 68.2051 217.907 66.4224 220.045 63.9942C222.189 61.5584 223.998 58.3937 224.319 54.5074C224.641 50.6006 223.436 46.2411 220.06 41.4788L218.428 42.6357ZM96.6763 425.854L94.83 425.085L94.8039 425.148L96.6502 425.917L98.4964 426.686L98.5225 426.623L96.6763 425.854ZM96.6502 425.917L94.8039 425.148C94.1662 426.679 93.63 427.935 92.387 429.219C91.1287 430.52 89.0124 431.975 85.0386 433.484L85.7487 435.354L86.4588 437.224C90.7663 435.588 93.4601 433.863 95.2618 432.001C97.0788 430.122 97.8527 428.232 98.4965 426.686L96.6502 425.917ZM82.9648 5.27095L84.1332 6.89418C87.9571 4.14177 90.6688 3.72369 92.5501 4.13792C94.4658 4.55971 96.0592 5.96027 97.3768 7.98625C98.6876 10.0016 99.5747 12.413 100.137 14.3919C100.695 16.3527 100.904 17.779 100.901 17.7623L102.88 17.4724L104.859 17.1824C104.846 17.0914 103.918 10.7069 100.73 5.8054C99.1181 3.32694 96.76 0.969031 93.4102 0.231485C90.0261 -0.513626 86.1583 0.508074 81.7964 3.64772L82.9648 5.27095ZM102.88 17.4724L103.788 19.2544C109.94 16.1202 123.572 11.9486 148.607 16.7348L148.983 14.7704L149.358 12.806C123.608 7.88294 109.047 12.086 101.972 15.6903L102.88 17.4724ZM231.425 322.626L229.536 323.283C240.894 355.924 230.475 378.304 210.243 421.372L212.053 422.223L213.863 423.073C233.971 380.269 245.288 356.382 233.314 321.969L231.425 322.626ZM212.053 422.223L210.242 421.372L209.958 421.978L211.768 422.829L213.578 423.679L213.863 423.073L212.053 422.223ZM98.0953 20.6812C99.543 22.0611 99.5426 22.0615 99.5422 22.0619C99.5421 22.0621 99.5417 22.0625 99.5415 22.0628C99.541 22.0633 99.5405 22.0638 99.54 22.0643C99.5391 22.0652 99.5383 22.0661 99.5375 22.0668C99.5361 22.0684 99.5349 22.0696 99.5341 22.0704C99.5325 22.0721 99.5322 22.0723 99.5334 22.0711C99.5357 22.0688 99.5435 22.061 99.557 22.0479C99.5839 22.0217 99.6335 21.9745 99.7067 21.9088C99.8531 21.7775 100.094 21.572 100.437 21.3121C101.123 20.7925 102.219 20.0538 103.788 19.2544L102.88 17.4724L101.972 15.6903C100.185 16.6007 98.889 17.4665 98.0213 18.1239C97.5877 18.4524 97.2616 18.7286 97.0352 18.9318C96.922 19.0333 96.8338 19.1166 96.7695 19.1791C96.7373 19.2103 96.7112 19.2364 96.6909 19.2568C96.6808 19.2671 96.6721 19.2759 96.6649 19.2834C96.6613 19.2871 96.658 19.2905 96.6551 19.2935C96.6537 19.295 96.6523 19.2964 96.6511 19.2977C96.6504 19.2984 96.6498 19.299 96.6492 19.2996C96.6489 19.2999 96.6485 19.3004 96.6484 19.3005C96.6479 19.301 96.6475 19.3014 98.0953 20.6812ZM211.768 422.829L213.578 423.679C213.674 423.476 213.768 423.275 213.863 423.073L212.053 422.223L210.243 421.372C210.148 421.573 210.053 421.776 209.958 421.978L211.768 422.829ZM102.88 17.4724L100.901 17.7623C100.901 17.758 100.9 17.7535 100.899 17.7491C100.899 17.7468 100.899 17.7446 100.898 17.7423C100.898 17.7412 100.898 17.74 100.898 17.7389C100.898 17.7383 100.898 17.7378 100.898 17.7372C100.898 17.7369 100.898 17.7366 100.898 17.7363C100.898 17.7362 100.898 17.736 100.897 17.7359C100.897 17.7358 100.897 17.7358 100.897 17.7357C100.897 17.7356 100.897 17.7356 100.897 17.7356C100.897 17.7356 100.897 17.7355 100.897 17.7355C100.897 17.7355 100.897 17.7354 102.88 17.4731C104.863 17.2107 104.863 17.2107 104.863 17.2106C104.863 17.2106 104.863 17.2106 104.863 17.2106C104.863 17.2105 104.863 17.2105 104.863 17.2105C104.863 17.2104 104.863 17.2103 104.863 17.2103C104.863 17.2101 104.863 17.21 104.863 17.2098C104.863 17.2095 104.863 17.2093 104.863 17.209C104.863 17.2084 104.862 17.2078 104.862 17.2072C104.862 17.2061 104.862 17.2049 104.862 17.2038C104.862 17.2014 104.861 17.1991 104.861 17.1967C104.86 17.192 104.86 17.1872 104.859 17.1824L102.88 17.4724ZM96.6763 425.854L94.83 425.085C94.8214 425.106 94.8126 425.127 94.8039 425.148L96.6502 425.917L98.4965 426.686C98.5051 426.665 98.5138 426.644 98.5225 426.623L96.6763 425.854Z" fill="#7698EF" fill-opacity="0.3"/>
<path d="M153.056 193.503C151.064 226.065 150.03 244.269 137.732 283.15C137.732 283.15 133.853 301.112 148.595 310.031C163.337 318.949 176.27 307.146 184.222 298.49C192.175 289.835 208.664 239.593 208.664 239.593" stroke="#7698EF" stroke-width="4" stroke-linecap="round"/>
<path d="M97.0544 186.709C93.535 219.118 91.4891 237.22 97.038 277.895C97.038 277.895 97.8298 296.326 81.8365 302.156C65.8432 307.987 55.1142 293.806 48.7523 283.713C42.3905 273.619 34.6324 220.941 34.6324 220.941" stroke="#7698EF" stroke-width="4" stroke-linecap="round"/>
<path d="M213.19 56.99C214.419 55.7938 214.742 51.0788 213.19 49.32C211.638 47.5612 207.953 47.7016 205.948 48.4756C203.944 49.2497 203.75 56.4991 203.944 56.99C204.138 57.4809 211.961 58.1863 213.19 56.99Z" fill="#88A5F2" stroke="#88A5F2" stroke-width="4" stroke-linecap="round"/>
<path d="M83.4585 19.5097C82.8173 17.857 84.3757 13.4436 86.4693 12.5748C88.5628 11.7059 91.8401 13.5462 93.3487 15.1779C94.8572 16.8096 92.1869 23.4545 91.8188 23.8082C91.4507 24.1619 84.0998 21.1624 83.4585 19.5097Z" fill="#7698EF" stroke="#7698EF" stroke-width="4" stroke-linecap="round"/>
<ellipse cx="5.7591" cy="8.07805" rx="5.7591" ry="8.07805" transform="matrix(0.920304 0.391203 -0.337827 0.941208 172.934 68.8125)" fill="#060698"/>
<ellipse cx="5.7591" cy="8.07805" rx="5.7591" ry="8.07805" transform="matrix(0.920304 0.391203 -0.337827 0.941208 104.78 47.8428)" fill="#060698"/>
<ellipse cx="135.663" cy="88.515" rx="27.028" ry="29.4134" fill="#6088E4"/>
<path d="M154.928 87.2083C153.113 94.4639 143.52 97.9399 133.501 94.9721C123.482 92.0042 116.831 83.7164 118.646 76.4608C120.46 69.2051 130.054 65.7292 140.073 68.697C150.092 71.6648 156.743 79.9526 154.928 87.2083Z" fill="#060698"/>
<path d="M127.645 101.251L130.037 91.47L136.374 94.0736L133.529 102.518C133.529 102.518 132.43 105.262 130.037 105.192C127.645 105.121 127.645 101.251 127.645 101.251Z" fill="#060698"/>
<path d="M133.81 198.247C132.379 201.455 128.803 205.466 125.941 205.466H120.218H107.341L112.349 193.674L114.495 188.621C114.495 188.621 117.356 181.401 123.079 181.401H140.964C140.964 181.401 135.241 195.038 133.81 198.247Z" fill="#6088E4"/>
<path d="M107.341 205.466C107.341 205.466 114.655 205.466 120.218 205.466M107.341 205.466H120.218M107.341 205.466L112.349 193.674M120.218 205.466C122.815 205.466 125.03 205.466 125.941 205.466C128.803 205.466 132.379 201.455 133.81 198.247C135.241 195.038 140.964 181.401 140.964 181.401C140.964 181.401 128.803 181.401 123.079 181.401C117.356 181.401 114.495 188.621 114.495 188.621L112.349 193.674M120.218 205.466C120.218 205.466 125.226 201.215 126.656 197.445C128.087 193.674 130.233 188.621 130.233 188.621C130.233 188.621 123.079 188.621 120.218 188.621C117.356 188.621 112.349 193.674 112.349 193.674" stroke="#060698" stroke-width="3" stroke-linecap="round"/>
<path d="M127.215 71.5498C127.215 71.5498 131.111 73.892 134.528 73.5593C137.157 73.3034 138.545 70.3256 141.041 71.1896C143.342 71.9862 143.392 75.306 145.475 76.5671C146.831 77.3878 149.388 77.6422 149.388 77.6422" stroke="black" stroke-width="2" stroke-linecap="round"/>
<circle cx="165.283" cy="78.5007" r="8.79213" transform="rotate(15.3638 165.283 78.5007)" fill="black"/>
<circle cx="111.808" cy="63.8074" r="8.79213" transform="rotate(15.3638 111.808 63.8074)" fill="black"/>
<circle cx="121.525" cy="69.2828" r="5.58686" transform="rotate(15.3638 121.525 69.2828)" stroke="black"/>
<circle cx="155.437" cy="78.6012" r="5.58686" transform="rotate(15.3638 155.437 78.6012)" stroke="black"/>
</svg>
