<svg width="239" height="461" viewBox="0 0 239 461" fill="none" xmlns="http://www.w3.org/2000/svg">
<path d="M102.431 414.468C102.431 414.468 97.966 442.758 96.6763 445.854L96.6502 445.917C95.3687 448.994 94.0301 452.209 85.7487 455.354C77.4111 458.52 43.91 460.561 34.2792 457.465C24.6485 454.369 32.0161 445.854 32.0161 445.854C-3.44108 392.619 -3.03226 369.187 10.4843 331.438C10.3591 267.517 11.4524 231.825 39.3873 171.423C48.2654 100.374 57.9725 72.3112 82.9648 51.848C82.9648 51.848 66.5411 37.0926 82.9648 25.271C99.3364 13.4868 102.858 37.3209 102.88 37.4724C109.493 34.1031 123.59 29.9158 148.983 34.7704C177.461 40.2149 191.409 56.9543 196.685 65.1689C196.685 65.1689 205.755 44.7625 218.428 62.6357C231.101 80.5089 209.154 89.3047 209.154 89.3047C211.328 98.5656 211.193 109.982 209.246 162.698C231.917 231.675 230.727 272.549 231.425 342.626C243.091 376.153 232.223 399.286 212.053 442.223L211.768 442.829C211.768 442.829 214.29 441.351 214.29 450.147C214.29 458.943 179.836 458.518 158.423 455.354C158.423 455.354 151.699 453.524 145.879 445.854C140.06 438.184 137.861 412.974 137.861 412.974C125.163 415.576 114.544 415.866 102.431 414.468Z" fill="#BDCEFA"/>
<path d="M81.6247 408.923C80.5427 408.701 79.4855 409.398 79.2634 410.48C79.0412 411.562 79.7383 412.619 80.8203 412.841L81.2225 410.882L81.6247 408.923ZM153.502 411.039C154.561 410.723 155.163 409.609 154.847 408.551C154.531 407.492 153.417 406.89 152.359 407.206L152.931 409.123L153.502 411.039ZM102.431 414.468L102.66 412.481L102.431 414.468ZM85.7487 455.354L86.4588 457.224L85.7487 455.354ZM32.0161 445.854L33.5285 447.163L34.5243 446.012L33.6807 444.746L32.0161 445.854ZM10.4843 331.438L12.3672 332.112L12.4849 331.783L12.4843 331.434L10.4843 331.438ZM39.3873 171.423L41.2026 172.263L41.3333 171.98L41.3719 171.671L39.3873 171.423ZM87.9157 50.5165C88.8006 49.8553 88.9819 48.6021 88.3208 47.7172C87.6597 46.8323 86.4064 46.6509 85.5216 47.312L86.7186 48.9142L87.9157 50.5165ZM158.423 455.354L157.898 457.284L158.013 457.315L158.131 457.332L158.423 455.354ZM211.768 442.829L209.958 441.978C209.585 442.771 209.772 443.715 210.42 444.306C211.067 444.896 212.023 444.997 212.779 444.554L211.768 442.829ZM231.425 342.626L229.425 342.646L229.428 342.974L229.536 343.283L231.425 342.626ZM209.246 162.698L207.248 162.624L207.234 162.982L207.346 163.322L209.246 162.698ZM209.543 83.304C209.221 82.2474 208.104 81.6516 207.047 81.9734C205.991 82.2951 205.395 83.4126 205.717 84.4692L207.63 83.8866L209.543 83.304ZM82.9648 51.848L84.2318 53.3955L82.9648 51.848ZM100.897 37.7355C101.042 38.8305 102.048 39.6007 103.143 39.4558C104.238 39.3109 105.008 38.3057 104.863 37.2107L102.88 37.4731L100.897 37.7355ZM96.6475 39.3014C95.8855 40.101 95.9158 41.3669 96.7154 42.129C97.515 42.8911 98.781 42.8607 99.543 42.0611L98.0953 40.6812L96.6475 39.3014ZM148.983 34.7704L149.358 32.806L148.983 34.7704ZM197.489 70.686C197.971 71.6799 199.168 72.0947 200.161 71.6127C201.155 71.1306 201.57 69.9341 201.088 68.9403L199.289 69.8132L197.489 70.686ZM196.685 65.1689L195.002 66.2496L196.685 65.1689ZM209.154 89.3047L207.207 89.7617L209.154 89.3047ZM96.6502 445.917L94.8039 445.148L96.6502 445.917ZM212.053 442.223L210.243 441.372L212.053 442.223ZM81.2225 410.882L80.8203 412.841C88.7021 414.459 95.6552 415.699 102.202 416.455L102.431 414.468L102.66 412.481C96.2806 411.744 89.4565 410.531 81.6247 408.923L81.2225 410.882ZM102.431 414.468C100.456 414.156 100.455 414.156 100.455 414.156C100.455 414.156 100.455 414.157 100.455 414.157C100.455 414.158 100.455 414.159 100.455 414.161C100.454 414.164 100.453 414.169 100.452 414.176C100.45 414.189 100.447 414.21 100.443 414.236C100.434 414.29 100.422 414.369 100.405 414.473C100.372 414.68 100.324 414.985 100.262 415.374C100.137 416.152 99.9582 417.267 99.7391 418.616C99.3009 421.313 98.7035 424.94 98.066 428.662C97.4281 432.387 96.752 436.197 96.1563 439.262C95.8581 440.797 95.5828 442.131 95.3445 443.169C95.0926 444.267 94.9152 444.881 94.83 445.085L96.6763 445.854L98.5225 446.623C98.7597 446.054 99.004 445.106 99.2432 444.064C99.4959 442.963 99.781 441.579 100.083 440.025C100.687 436.916 101.369 433.072 102.009 429.338C102.649 425.6 103.248 421.961 103.687 419.257C103.907 417.905 104.087 416.786 104.212 416.005C104.274 415.615 104.323 415.308 104.356 415.1C104.372 414.996 104.385 414.916 104.394 414.862C104.398 414.835 104.401 414.814 104.403 414.801C104.404 414.794 104.405 414.788 104.406 414.785C104.406 414.783 104.406 414.782 104.406 414.781C104.406 414.78 104.407 414.78 104.407 414.78C104.407 414.78 104.407 414.78 102.431 414.468ZM85.7487 455.354L85.0386 453.484C83.1918 454.186 79.7395 454.885 75.2822 455.472C70.8819 456.052 65.6672 456.503 60.4013 456.76C55.1343 457.018 49.8459 457.08 45.2959 456.888C40.6877 456.694 37.0223 456.246 34.8913 455.561L34.2792 457.465L33.6671 459.369C36.3515 460.232 40.4852 460.689 45.1277 460.885C49.8284 461.082 55.2422 461.017 60.5965 460.755C65.9519 460.494 71.2777 460.034 75.8048 459.438C80.2749 458.849 84.1368 458.105 86.4588 457.224L85.7487 455.354ZM34.2792 457.465L34.8913 455.561C32.7979 454.888 31.9663 454.034 31.624 453.397C31.2762 452.751 31.2306 451.953 31.4747 450.99C31.7207 450.02 32.2202 449.063 32.7014 448.309C32.9358 447.941 33.1523 447.643 33.3071 447.441C33.3841 447.34 33.445 447.264 33.484 447.217C33.5035 447.193 33.5174 447.176 33.5251 447.167C33.5289 447.163 33.5312 447.16 33.5318 447.159C33.5321 447.159 33.5319 447.159 33.5314 447.16C33.5311 447.16 33.5308 447.16 33.5303 447.161C33.53 447.161 33.5296 447.162 33.5295 447.162C33.529 447.162 33.5285 447.163 32.0161 445.854C30.5037 444.546 30.5032 444.546 30.5026 444.547C30.5023 444.547 30.5017 444.548 30.5013 444.548C30.5003 444.55 30.4993 444.551 30.4981 444.552C30.4958 444.555 30.493 444.558 30.4898 444.562C30.4834 444.569 30.4753 444.579 30.4655 444.591C30.4458 444.614 30.4196 444.645 30.3874 444.685C30.3232 444.763 30.2352 444.873 30.1296 445.011C29.919 445.287 29.6352 445.678 29.3294 446.157C28.73 447.096 27.9896 448.461 27.5975 450.007C27.2036 451.56 27.1218 453.471 28.1013 455.292C29.0861 457.123 30.9451 458.494 33.6671 459.369L34.2792 457.465ZM32.0161 445.854L33.6807 444.746C16.0063 418.209 7.43609 399.334 4.86197 382.536C2.29665 365.795 5.64861 350.876 12.3672 332.112L10.4843 331.438L8.60132 330.763C1.80339 349.749 -1.80732 365.421 0.908119 383.142C3.61475 400.805 12.5687 420.264 30.3515 446.963L32.0161 445.854ZM10.4843 331.438L12.4843 331.434C12.3593 267.606 13.4522 232.265 41.2026 172.263L39.3873 171.423L37.5721 170.584C9.45253 231.384 8.35891 267.428 8.48426 331.442L10.4843 331.438ZM102.431 414.468L102.202 416.455C114.512 417.876 125.345 417.58 138.263 414.933L137.861 412.974L137.46 411.014C124.982 413.571 114.577 413.857 102.66 412.481L102.431 414.468ZM137.861 412.974L138.263 414.933C143.012 413.96 148.033 412.671 153.502 411.039L152.931 409.123L152.359 407.206C146.978 408.812 142.072 410.069 137.46 411.014L137.861 412.974ZM137.861 412.974C135.869 413.148 135.869 413.148 135.869 413.148C135.869 413.148 135.869 413.149 135.869 413.149C135.869 413.151 135.869 413.152 135.869 413.154C135.87 413.157 135.87 413.162 135.871 413.169C135.872 413.182 135.874 413.202 135.876 413.227C135.881 413.277 135.887 413.35 135.896 413.446C135.914 413.637 135.941 413.917 135.977 414.274C136.05 414.989 136.16 416.015 136.31 417.27C136.61 419.778 137.072 423.207 137.718 426.884C138.364 430.555 139.2 434.508 140.254 438.051C141.293 441.542 142.604 444.846 144.286 447.063L145.879 445.854L147.473 444.645C146.245 443.028 145.098 440.304 144.088 436.91C143.094 433.57 142.289 429.782 141.658 426.191C141.027 422.607 140.576 419.254 140.282 416.795C140.135 415.567 140.027 414.564 139.957 413.87C139.922 413.523 139.896 413.254 139.879 413.072C139.87 412.981 139.864 412.912 139.86 412.866C139.858 412.843 139.856 412.826 139.855 412.815C139.855 412.81 139.854 412.806 139.854 412.803C139.854 412.802 139.854 412.801 139.854 412.8C139.854 412.8 139.854 412.8 139.854 412.8C139.854 412.8 139.854 412.8 137.861 412.974ZM145.879 445.854L144.286 447.063C147.377 451.137 150.722 453.677 153.32 455.204C154.618 455.968 155.73 456.478 156.533 456.803C156.934 456.965 157.259 457.08 157.491 457.158C157.607 457.197 157.701 457.226 157.769 457.246C157.803 457.257 157.831 457.265 157.853 457.271C157.864 457.274 157.873 457.277 157.881 457.279C157.884 457.28 157.888 457.281 157.891 457.282C157.892 457.282 157.894 457.282 157.895 457.283C157.895 457.283 157.896 457.283 157.897 457.283C157.897 457.283 157.898 457.284 158.423 455.354C158.948 453.424 158.949 453.424 158.95 453.424C158.95 453.424 158.951 453.425 158.951 453.425C158.952 453.425 158.953 453.425 158.954 453.425C158.955 453.426 158.956 453.426 158.956 453.426C158.957 453.426 158.957 453.426 158.955 453.426C158.95 453.424 158.94 453.421 158.924 453.417C158.891 453.407 158.834 453.389 158.755 453.363C158.597 453.31 158.351 453.223 158.031 453.094C157.39 452.835 156.458 452.409 155.347 451.756C153.128 450.451 150.201 448.242 147.473 444.645L145.879 445.854ZM158.423 455.354L158.131 457.332C168.945 458.93 183.047 459.838 194.492 459.232C200.194 458.93 205.374 458.247 209.185 457.02C211.083 456.409 212.787 455.618 214.052 454.559C215.355 453.468 216.29 451.994 216.29 450.147H214.29H212.29C212.29 450.499 212.148 450.935 211.483 451.492C210.78 452.081 209.625 452.676 207.959 453.212C204.641 454.28 199.869 454.942 194.281 455.238C183.146 455.827 169.315 454.941 158.716 453.375L158.423 455.354ZM214.29 450.147H216.29C216.29 447.865 216.127 446.156 215.851 444.872C215.58 443.61 215.166 442.603 214.543 441.882C213.854 441.085 212.987 440.731 212.153 440.735C211.778 440.737 211.465 440.81 211.238 440.887C211.123 440.925 211.025 440.967 210.946 441.004C210.906 441.023 210.871 441.041 210.839 441.057C210.823 441.066 210.809 441.074 210.795 441.081C210.788 441.085 210.781 441.089 210.775 441.092C210.772 441.094 210.769 441.096 210.766 441.098C210.764 441.099 210.762 441.1 210.761 441.1C210.759 441.102 210.757 441.103 211.768 442.829C212.779 444.554 212.777 444.555 212.775 444.557C212.774 444.557 212.772 444.558 212.77 444.559C212.768 444.561 212.765 444.562 212.762 444.564C212.756 444.567 212.75 444.571 212.745 444.574C212.734 444.58 212.722 444.586 212.712 444.592C212.69 444.603 212.668 444.614 212.647 444.624C212.604 444.644 212.561 444.662 212.515 444.678C212.426 444.707 212.31 444.734 212.171 444.735C211.81 444.737 211.573 444.564 211.515 444.496C211.512 444.493 211.57 444.559 211.655 444.757C211.74 444.955 211.843 445.261 211.941 445.713C212.137 446.626 212.29 448.03 212.29 450.147H214.29ZM231.425 342.626L233.425 342.606C232.727 272.551 233.927 231.384 211.146 162.073L209.246 162.698L207.346 163.322C229.908 231.967 228.727 272.547 229.425 342.646L231.425 342.626ZM39.3873 171.423L41.3719 171.671C50.2535 100.594 59.9171 73.3039 84.2318 53.3955L82.9648 51.848L81.6977 50.3005C56.0279 71.3186 46.2772 100.155 37.4028 171.175L39.3873 171.423ZM82.9648 51.848L84.2318 53.3955C85.4223 52.4207 86.6496 51.4624 87.9157 50.5165L86.7186 48.9142L85.5216 47.312C84.2107 48.2915 82.9365 49.2862 81.6977 50.3005L82.9648 51.848ZM82.9648 51.848C84.3014 50.3603 84.302 50.3608 84.3025 50.3613C84.3026 50.3613 84.3031 50.3618 84.3033 50.3619C84.3036 50.3623 84.3038 50.3624 84.3037 50.3623C84.3034 50.3621 84.3023 50.361 84.3001 50.3591C84.2959 50.3552 84.2878 50.3478 84.2762 50.3371C84.253 50.3156 84.2154 50.2805 84.165 50.2325C84.0642 50.1363 83.9124 49.9883 83.7213 49.7928C83.3384 49.4012 82.8015 48.8225 82.203 48.0912C80.9961 46.6163 79.5891 44.5808 78.6645 42.2541C77.743 39.935 77.3373 37.4241 77.975 34.901C78.6067 32.4019 80.3268 29.634 84.1332 26.8942L82.9648 25.271L81.7964 23.6477C77.3909 26.8188 75.005 30.3284 74.097 33.9208C73.195 37.4891 73.8158 40.8836 74.9472 43.7311C76.0757 46.571 77.7481 48.9632 79.1074 50.6243C79.792 51.4611 80.4099 52.1275 80.861 52.589C81.0869 52.8201 81.2719 53.0006 81.4036 53.1264C81.4695 53.1892 81.5222 53.2385 81.5601 53.2736C81.5791 53.2911 81.5943 53.3051 81.6058 53.3155C81.6115 53.3207 81.6162 53.325 81.6199 53.3283C81.6218 53.33 81.6234 53.3315 81.6248 53.3327C81.6255 53.3334 81.6263 53.3341 81.6267 53.3344C81.6274 53.3351 81.6281 53.3358 82.9648 51.848ZM148.983 34.7704L148.607 36.7348C176.392 42.0468 189.925 58.3442 195.002 66.2496L196.685 65.1689L198.368 64.0882C192.894 55.5644 178.53 38.3831 149.358 32.806L148.983 34.7704ZM196.685 65.1689L195.002 66.2496C195.965 67.7495 196.168 68.028 196.368 68.3854C196.569 68.7435 196.705 69.0696 197.489 70.686L199.289 69.8132L201.088 68.9403C200.393 67.5067 200.135 66.9242 199.857 66.4293C199.579 65.9338 199.22 65.4152 198.368 64.0882L196.685 65.1689ZM196.685 65.1689C198.512 65.9812 198.512 65.9819 198.512 65.9825C198.512 65.9826 198.512 65.9831 198.511 65.9833C198.511 65.9837 198.511 65.9838 198.511 65.9836C198.512 65.9831 198.512 65.9815 198.514 65.9787C198.516 65.9732 198.521 65.9629 198.527 65.9482C198.541 65.9188 198.563 65.8715 198.593 65.8083C198.654 65.6817 198.748 65.4915 198.873 65.2517C199.123 64.7708 199.497 64.0969 199.983 63.3397C200.972 61.7992 202.348 60.0327 203.998 58.8041C205.621 57.5962 207.352 57.0109 209.239 57.4412C211.196 57.8873 213.769 59.5232 216.797 63.7925L218.428 62.6357L220.06 61.4788C216.75 56.8115 213.438 54.2958 210.129 53.5413C206.751 52.7709 203.839 53.936 201.61 55.5956C199.408 57.2344 197.725 59.4524 196.617 61.1796C196.054 62.0563 195.621 62.8369 195.326 63.4022C195.178 63.6855 195.065 63.9162 194.986 64.0799C194.947 64.1617 194.916 64.2269 194.895 64.2736C194.884 64.2969 194.876 64.3157 194.869 64.3296C194.866 64.3365 194.864 64.3423 194.862 64.3468C194.861 64.349 194.86 64.351 194.859 64.3526C194.859 64.3534 194.858 64.3544 194.858 64.3548C194.858 64.3557 194.857 64.3566 196.685 65.1689ZM209.246 162.698L211.245 162.771C212.218 136.425 212.74 120.352 212.745 109.707C212.751 99.0526 212.241 93.7024 211.102 88.8478L209.154 89.3047L207.207 89.7617C208.241 94.1679 208.751 99.1563 208.745 109.705C208.74 120.261 208.221 136.254 207.248 162.624L209.246 162.698ZM209.154 89.3047L211.102 88.8478C210.878 87.8945 210.483 86.4936 210.155 85.3654C209.989 84.7939 209.836 84.2794 209.725 83.9079C209.669 83.722 209.624 83.5717 209.593 83.4675C209.577 83.4154 209.565 83.3749 209.556 83.3472C209.552 83.3333 209.549 83.3227 209.547 83.3155C209.545 83.3118 209.545 83.3091 209.544 83.3071C209.544 83.3062 209.543 83.3055 209.543 83.3049C209.543 83.3047 209.543 83.3045 209.543 83.3043C209.543 83.3042 209.543 83.3042 209.543 83.3041C209.543 83.3041 209.543 83.304 207.63 83.8866C205.717 84.4692 205.717 84.4692 205.717 84.4692C205.717 84.4692 205.717 84.4692 205.717 84.4693C205.717 84.4693 205.717 84.4695 205.717 84.4697C205.717 84.47 205.717 84.4706 205.717 84.4714C205.718 84.473 205.718 84.4754 205.719 84.4787C205.721 84.4853 205.724 84.4953 205.728 84.5084C205.736 84.5347 205.748 84.5738 205.764 84.6244C205.794 84.7255 205.838 84.8724 205.893 85.0545C206.002 85.4188 206.151 85.9229 206.314 86.4818C206.643 87.6146 207.011 88.9228 207.207 89.7617L209.154 89.3047ZM218.428 62.6357L216.797 63.7925C219.757 67.9669 220.561 71.4093 220.332 74.1786C220.102 76.9683 218.801 79.3538 217.043 81.3511C215.278 83.356 213.12 84.8894 211.365 85.9313C210.494 86.4481 209.74 86.8338 209.209 87.0879C208.944 87.2148 208.736 87.3083 208.598 87.3685C208.529 87.3986 208.478 87.4202 208.446 87.4336C208.43 87.4402 208.419 87.4448 208.413 87.4472C208.41 87.4485 208.408 87.4492 208.408 87.4493C208.408 87.4494 208.408 87.4494 208.408 87.4492C208.408 87.4491 208.409 87.4489 208.409 87.4489C208.41 87.4486 208.41 87.4483 209.154 89.3047C209.899 91.1612 209.899 91.1608 209.9 91.1604C209.901 91.1603 209.902 91.1598 209.903 91.1595C209.905 91.1588 209.907 91.1579 209.909 91.1569C209.914 91.155 209.92 91.1525 209.928 91.1494C209.943 91.1432 209.963 91.1349 209.988 91.1244C210.038 91.1033 210.109 91.0734 210.198 91.0347C210.375 90.9573 210.626 90.8444 210.936 90.6959C211.556 90.3992 212.418 89.9581 213.407 89.3709C215.37 88.2051 217.907 86.4224 220.045 83.9942C222.189 81.5584 223.998 78.3937 224.319 74.5074C224.641 70.6006 223.436 66.2411 220.06 61.4788L218.428 62.6357ZM96.6763 445.854L94.83 445.085L94.8039 445.148L96.6502 445.917L98.4964 446.686L98.5225 446.623L96.6763 445.854ZM96.6502 445.917L94.8039 445.148C94.1662 446.679 93.63 447.935 92.387 449.219C91.1287 450.52 89.0124 451.975 85.0386 453.484L85.7487 455.354L86.4588 457.224C90.7663 455.588 93.4601 453.863 95.2618 452.001C97.0788 450.122 97.8527 448.232 98.4965 446.686L96.6502 445.917ZM82.9648 25.271L84.1332 26.8942C87.9571 24.1418 90.6688 23.7237 92.5501 24.1379C94.4658 24.5597 96.0592 25.9603 97.3768 27.9863C98.6876 30.0016 99.5747 32.413 100.137 34.3919C100.695 36.3527 100.904 37.779 100.901 37.7623L102.88 37.4724L104.859 37.1824C104.846 37.0914 103.918 30.7069 100.73 25.8054C99.1181 23.3269 96.76 20.969 93.4102 20.2315C90.0261 19.4864 86.1583 20.5081 81.7964 23.6477L82.9648 25.271ZM102.88 37.4724L103.788 39.2544C109.94 36.1202 123.572 31.9486 148.607 36.7348L148.983 34.7704L149.358 32.806C123.608 27.8829 109.047 32.086 101.972 35.6903L102.88 37.4724ZM231.425 342.626L229.536 343.283C240.894 375.924 230.475 398.304 210.243 441.372L212.053 442.223L213.863 443.073C233.971 400.269 245.288 376.382 233.314 341.969L231.425 342.626ZM212.053 442.223L210.242 441.372L209.958 441.978L211.768 442.829L213.578 443.679L213.863 443.073L212.053 442.223ZM98.0953 40.6812C99.543 42.0611 99.5426 42.0615 99.5422 42.0619C99.5421 42.0621 99.5417 42.0625 99.5415 42.0628C99.541 42.0633 99.5405 42.0638 99.54 42.0643C99.5391 42.0652 99.5383 42.0661 99.5375 42.0668C99.5361 42.0684 99.5349 42.0696 99.5341 42.0704C99.5325 42.0721 99.5322 42.0723 99.5334 42.0711C99.5357 42.0688 99.5435 42.061 99.557 42.0479C99.5839 42.0217 99.6335 41.9745 99.7067 41.9088C99.8531 41.7775 100.094 41.572 100.437 41.3121C101.123 40.7925 102.219 40.0538 103.788 39.2544L102.88 37.4724L101.972 35.6903C100.185 36.6007 98.889 37.4665 98.0213 38.1239C97.5877 38.4524 97.2616 38.7286 97.0352 38.9318C96.922 39.0333 96.8338 39.1166 96.7695 39.1791C96.7373 39.2103 96.7112 39.2364 96.6909 39.2568C96.6808 39.2671 96.6721 39.2759 96.6649 39.2834C96.6613 39.2871 96.658 39.2905 96.6551 39.2935C96.6537 39.295 96.6523 39.2964 96.6511 39.2977C96.6504 39.2984 96.6498 39.299 96.6492 39.2996C96.6489 39.2999 96.6485 39.3004 96.6484 39.3005C96.6479 39.301 96.6475 39.3014 98.0953 40.6812ZM211.768 442.829L213.578 443.679C213.674 443.476 213.768 443.275 213.863 443.073L212.053 442.223L210.243 441.372C210.148 441.573 210.053 441.776 209.958 441.978L211.768 442.829ZM102.88 37.4724L100.901 37.7623C100.901 37.758 100.9 37.7535 100.899 37.7491C100.899 37.7468 100.899 37.7446 100.898 37.7423C100.898 37.7412 100.898 37.74 100.898 37.7389C100.898 37.7383 100.898 37.7378 100.898 37.7372C100.898 37.7369 100.898 37.7366 100.898 37.7363C100.898 37.7362 100.898 37.736 100.897 37.7359C100.897 37.7358 100.897 37.7358 100.897 37.7357C100.897 37.7356 100.897 37.7356 100.897 37.7356C100.897 37.7356 100.897 37.7355 100.897 37.7355C100.897 37.7355 100.897 37.7354 102.88 37.4731C104.863 37.2107 104.863 37.2107 104.863 37.2106C104.863 37.2106 104.863 37.2106 104.863 37.2106C104.863 37.2105 104.863 37.2105 104.863 37.2105C104.863 37.2104 104.863 37.2103 104.863 37.2103C104.863 37.2101 104.863 37.21 104.863 37.2098C104.863 37.2095 104.863 37.2093 104.863 37.209C104.863 37.2084 104.862 37.2078 104.862 37.2072C104.862 37.2061 104.862 37.2049 104.862 37.2038C104.862 37.2014 104.861 37.1991 104.861 37.1967C104.86 37.192 104.86 37.1872 104.859 37.1824L102.88 37.4724ZM96.6763 445.854L94.83 445.085C94.8214 445.106 94.8126 445.127 94.8039 445.148L96.6502 445.917L98.4965 446.686C98.5051 446.665 98.5138 446.644 98.5225 446.623L96.6763 445.854Z" fill="#7698EF" fill-opacity="0.3"/>
<path d="M153.056 213.503C151.064 246.065 150.03 264.269 137.732 303.15C137.732 303.15 133.853 321.112 148.595 330.031C163.337 338.949 176.27 327.146 184.222 318.49C192.175 309.835 208.664 259.593 208.664 259.593" stroke="#7698EF" stroke-width="4" stroke-linecap="round"/>
<path d="M97.0544 206.709C93.535 239.118 91.4891 257.22 97.038 297.895C97.038 297.895 97.8298 316.326 81.8365 322.156C65.8432 327.987 55.1142 313.806 48.7523 303.713C42.3905 293.619 34.6324 240.941 34.6324 240.941" stroke="#7698EF" stroke-width="4" stroke-linecap="round"/>
<path d="M213.19 76.99C214.419 75.7938 214.742 71.0788 213.19 69.32C211.638 67.5612 207.953 67.7016 205.948 68.4756C203.944 69.2497 203.75 76.4991 203.944 76.99C204.138 77.4809 211.961 78.1863 213.19 76.99Z" fill="#88A5F2" stroke="#88A5F2" stroke-width="4" stroke-linecap="round"/>
<path d="M83.4585 39.5097C82.8173 37.857 84.3757 33.4436 86.4693 32.5748C88.5628 31.7059 91.8401 33.5462 93.3487 35.1779C94.8572 36.8096 92.1869 43.4545 91.8188 43.8082C91.4507 44.1619 84.0998 41.1624 83.4585 39.5097Z" fill="#7698EF" stroke="#7698EF" stroke-width="4" stroke-linecap="round"/>
<ellipse cx="5.7591" cy="8.07805" rx="5.7591" ry="8.07805" transform="matrix(0.920304 0.391203 -0.337827 0.941208 172.934 88.8125)" fill="#060698"/>
<ellipse cx="5.7591" cy="8.07805" rx="5.7591" ry="8.07805" transform="matrix(0.920304 0.391203 -0.337827 0.941208 104.78 67.8428)" fill="#060698"/>
<ellipse cx="135.663" cy="108.515" rx="27.028" ry="29.4134" fill="#6088E4"/>
<path d="M154.928 107.208C153.113 114.464 143.52 117.94 133.501 114.972C123.482 112.004 116.831 103.716 118.646 96.4608C120.46 89.2051 130.054 85.7292 140.073 88.697C150.092 91.6648 156.743 99.9526 154.928 107.208Z" fill="#060698"/>
<path d="M127.645 121.251L130.037 111.47L136.374 114.074L133.529 122.518C133.529 122.518 132.43 125.262 130.037 125.192C127.645 125.121 127.645 121.251 127.645 121.251Z" fill="#060698"/>
<path d="M133.81 218.247C132.379 221.455 128.803 225.466 125.941 225.466H120.218H107.341L112.349 213.674L114.495 208.621C114.495 208.621 117.356 201.401 123.079 201.401H140.964C140.964 201.401 135.241 215.038 133.81 218.247Z" fill="#6088E4"/>
<path d="M107.341 225.466C107.341 225.466 114.655 225.466 120.218 225.466M107.341 225.466H120.218M107.341 225.466L112.349 213.674M120.218 225.466C122.815 225.466 125.03 225.466 125.941 225.466C128.803 225.466 132.379 221.455 133.81 218.247C135.241 215.038 140.964 201.401 140.964 201.401C140.964 201.401 128.803 201.401 123.079 201.401C117.356 201.401 114.495 208.621 114.495 208.621L112.349 213.674M120.218 225.466C120.218 225.466 125.226 221.215 126.656 217.445C128.087 213.674 130.233 208.621 130.233 208.621C130.233 208.621 123.079 208.621 120.218 208.621C117.356 208.621 112.349 213.674 112.349 213.674" stroke="#060698" stroke-width="3" stroke-linecap="round"/>
<path d="M181.407 53.6651C174.799 53.5843 126.874 39.8412 124.455 37.6306C122.035 35.4199 137.582 22.9434 142.192 11.2346C146.802 -0.474124 139.468 25.8632 146.089 26.7109C152.71 27.5587 164.54 6.03178 165.375 8.30687C166.209 10.582 159.672 29.8732 167.433 31.6803C175.195 33.4873 183.379 7.21034 179.706 19.9686C176.033 32.7268 188.014 53.7458 181.407 53.6651Z" fill="#DD41DB" stroke="#CF27CC" stroke-width="2" stroke-linecap="round"/>
</svg>
