<svg width="192" height="305" viewBox="0 0 192 305" fill="none" xmlns="http://www.w3.org/2000/svg">
<path d="M158.413 268.93C158.967 270.338 158.275 271.93 156.866 272.485L100.275 294.747C98.8659 295.301 97.2738 294.608 96.7198 293.199L92.3762 282.158C91.8213 280.748 92.515 279.158 93.9239 278.603L150.515 256.341C151.925 255.786 153.515 256.478 154.07 257.888L158.413 268.93Z" fill="#1919EF"/>
<path d="M149.276 256.828L95.1637 278.116L101.515 294.26L155.627 272.972L149.276 256.828Z" fill="#8E98A4"/>
<path d="M160.73 231.988C161.284 233.397 160.591 234.988 159.182 235.542L142.375 242.154C140.966 242.708 139.375 242.016 138.821 240.607L108.052 162.395C107.498 160.986 108.191 159.394 109.6 158.84L126.406 152.228C127.816 151.673 129.407 152.367 129.962 153.776L160.73 231.988Z" fill="#1919EF"/>
<path d="M125.961 152.404L122.373 153.815L155.149 237.13L158.737 235.719L125.961 152.404Z" fill="#8E98A4"/>
<path d="M162.473 250.477C165.244 257.522 161.78 265.481 154.735 268.253L98.9516 290.197C91.9069 292.969 83.9477 289.504 81.1761 282.458L37.343 171.036C34.5717 163.991 38.0361 156.032 45.0814 153.26L100.864 131.316C107.91 128.544 115.868 132.009 118.64 139.054L162.473 250.477Z" fill="#1919EF"/>
<path d="M153.107 257.525C153.69 259.008 152.962 260.682 151.48 261.264L96.5727 282.865C95.0909 283.448 93.418 282.718 92.8348 281.236L68.0515 218.237C67.4684 216.755 68.1968 215.082 69.678 214.499L124.586 192.899C126.067 192.316 127.74 193.044 128.323 194.527L153.107 257.525Z" fill="#DEE1EE"/>
<path d="M122.364 186.177C122.918 187.586 122.225 189.177 120.815 189.732L70.2789 209.613C68.8694 210.167 67.2782 209.474 66.7239 208.065L41.7338 144.541C41.1793 143.131 41.8719 141.54 43.2815 140.986L93.818 121.105C95.2269 120.551 96.8191 121.243 97.3736 122.652L122.364 186.177Z" fill="#DEE1EE"/>
<path d="M99.5596 143.149L54.0983 161.033L67.5997 195.353L113.061 177.469L99.5596 143.149Z" fill="#6088E4"/>
<path d="M81.6725 196.625C82.0171 197.501 81.586 198.49 80.7101 198.834L72.926 201.896C72.0507 202.241 71.0615 201.811 70.7167 200.935C70.3724 200.059 70.803 199.069 71.6783 198.725L79.4625 195.663C80.3383 195.318 81.3282 195.749 81.6725 196.625Z" fill="#1919EF"/>
<path d="M116.178 183.051C116.522 183.927 116.092 184.915 115.216 185.26L107.432 188.322C106.556 188.667 105.567 188.237 105.222 187.36C104.878 186.485 105.308 185.495 106.184 185.151L113.968 182.088C114.844 181.744 115.833 182.175 116.178 183.051Z" fill="#1919EF"/>
<path d="M98.9251 189.838C99.2697 190.714 98.8392 191.703 97.9633 192.047L90.1791 195.109C89.3038 195.454 88.3147 195.024 87.9699 194.148C87.6256 193.272 88.0562 192.282 88.9315 191.938L96.7156 188.876C97.5915 188.531 98.5808 188.963 98.9251 189.838Z" fill="#1919EF"/>
<path d="M109.531 269.52C109.896 270.45 109.439 271.501 108.509 271.867L99.5228 275.402C98.593 275.768 97.5425 275.31 97.1768 274.38L94.7587 268.234C94.3932 267.305 94.8504 266.254 95.7802 265.888L104.766 262.353C105.696 261.988 106.747 262.444 107.113 263.374L109.531 269.52Z" fill="#DD41DB"/>
<path d="M127.561 262.427C127.927 263.356 127.47 264.407 126.54 264.773L117.554 268.309C116.623 268.675 115.573 268.217 115.207 267.287L112.789 261.14C112.423 260.211 112.881 259.161 113.811 258.795L122.797 255.26C123.727 254.894 124.778 255.351 125.143 256.28L127.561 262.427Z" fill="#6088E4"/>
<path d="M145.592 255.334C145.958 256.263 145.501 257.314 144.571 257.68L135.585 261.215C134.655 261.581 133.604 261.123 133.238 260.194L130.82 254.047C130.454 253.118 130.912 252.068 131.842 251.702L140.828 248.167C141.758 247.801 142.809 248.257 143.174 249.187L145.592 255.334Z" fill="#FF82BE"/>
<path d="M104.798 257.489C105.163 258.418 104.706 259.47 103.776 259.836L94.7898 263.371C93.8601 263.737 92.8096 263.279 92.4438 262.349L90.0258 256.203C89.6603 255.273 90.1171 254.222 91.0468 253.856L100.033 250.321C100.963 249.955 102.014 250.413 102.38 251.343L104.798 257.489Z" fill="#1919EF"/>
<path d="M122.828 250.396C123.194 251.325 122.737 252.376 121.807 252.742L112.821 256.277C111.89 256.643 110.84 256.186 110.474 255.256L108.056 249.109C107.69 248.18 108.147 247.129 109.078 246.763L118.064 243.228C118.994 242.862 120.045 243.32 120.41 244.249L122.828 250.396Z" fill="#1919EF"/>
<path d="M140.859 243.303C141.225 244.232 140.768 245.283 139.838 245.649L130.851 249.184C129.922 249.55 128.871 249.092 128.505 248.163L126.087 242.016C125.721 241.087 126.178 240.036 127.108 239.67L136.095 236.134C137.024 235.769 138.075 236.226 138.441 237.156L140.859 243.303Z" fill="#1919EF"/>
<path d="M100.065 245.458C100.43 246.388 99.9736 247.439 99.0433 247.805L90.057 251.34C89.1273 251.706 88.0768 251.248 87.711 250.318L85.293 244.172C84.9275 243.243 85.3843 242.191 86.314 241.826L95.3002 238.29C96.23 237.925 97.2811 238.382 97.6468 239.312L100.065 245.458Z" fill="#1919EF"/>
<path d="M118.096 238.365C118.461 239.295 118.004 240.346 117.074 240.712L108.088 244.247C107.158 244.613 106.107 244.155 105.741 243.226L103.323 237.079C102.958 236.15 103.415 235.098 104.345 234.733L113.331 231.197C114.261 230.831 115.312 231.289 115.678 232.219L118.096 238.365Z" fill="#1919EF"/>
<path d="M136.127 231.272C136.492 232.201 136.035 233.253 135.105 233.619L126.119 237.154C125.189 237.52 124.138 237.062 123.772 236.132L121.354 229.986C120.989 229.057 121.445 228.005 122.376 227.639L131.362 224.104C132.292 223.738 133.343 224.196 133.709 225.126L136.127 231.272Z" fill="#1919EF"/>
<path d="M95.3321 233.428C95.6976 234.357 95.2409 235.409 94.3105 235.775L85.3243 239.31C84.3946 239.675 83.344 239.218 82.9783 238.288L80.5603 232.141C80.1947 231.212 80.6522 230.162 81.582 229.797L90.5682 226.262C91.4979 225.896 92.5486 226.352 92.9141 227.281L95.3321 233.428Z" fill="#1919EF"/>
<path d="M113.363 226.335C113.728 227.264 113.272 228.316 112.341 228.682L103.355 232.217C102.425 232.583 101.374 232.125 101.009 231.195L98.5905 225.049C98.225 224.119 98.6825 223.07 99.6128 222.704L108.599 219.169C109.529 218.803 110.579 219.259 110.945 220.188L113.363 226.335Z" fill="#1919EF"/>
<path d="M131.394 219.242C131.759 220.171 131.303 221.222 130.372 221.588L121.386 225.123C120.456 225.489 119.405 225.032 119.039 224.102L116.621 217.955C116.256 217.026 116.713 215.976 117.644 215.61L126.63 212.075C127.56 211.71 128.61 212.166 128.976 213.095L131.394 219.242Z" fill="#1919EF"/>
<path d="M90.5991 221.397C90.9647 222.326 90.5079 223.378 89.5776 223.744L80.5913 227.279C79.6616 227.644 78.6111 227.187 78.2453 226.257L75.8273 220.11C75.4618 219.181 75.9186 218.13 76.8483 217.764L85.8345 214.229C86.7643 213.863 87.8154 214.321 88.1811 215.25L90.5991 221.397Z" fill="#1919EF"/>
<path d="M108.63 214.303C108.995 215.233 108.539 216.284 107.608 216.65L98.6221 220.185C97.6918 220.551 96.6412 220.093 96.2755 219.164L93.8575 213.017C93.4919 212.088 93.9487 211.036 94.879 210.67L103.865 207.135C104.796 206.769 105.846 207.227 106.212 208.157L108.63 214.303Z" fill="#1919EF"/>
<path d="M126.661 207.21C127.026 208.139 126.569 209.191 125.639 209.557L116.653 213.092C115.723 213.458 114.672 213 114.306 212.07L111.888 205.924C111.523 204.995 111.98 203.943 112.91 203.577L121.896 200.042C122.826 199.676 123.877 200.134 124.243 201.064L126.661 207.21Z" fill="#1919EF"/>
<path d="M93.945 130.376C94.2582 131.172 93.8667 132.072 93.0711 132.385L51.5151 148.733C50.7189 149.046 49.8196 148.654 49.5063 147.858C49.1931 147.062 49.5846 146.163 50.3808 145.849L91.9368 129.501C92.7325 129.188 93.6318 129.58 93.945 130.376Z" fill="#1919EF"/>
<path d="M79.1168 97.8229L77.7595 101.892L73.9928 99.8386L72.6367 103.907L68.8746 101.852L67.5196 105.92L63.7564 103.866L62.402 107.934L58.6383 105.879L57.2861 109.946L53.5246 107.891L52.1714 111.958L48.411 109.902L47.0578 113.97L43.2951 111.915L41.9419 115.983L38.1798 113.927L51.2571 147.169L92.194 131.065L79.1168 97.8229Z" fill="white"/>
<path d="M67.9297 119.086L49.4792 126.344L50.273 128.362L68.7235 121.104L67.9297 119.086Z" fill="#8E98A4"/>
<path d="M78.4816 107.83L47.0588 120.191L47.8526 122.209L79.2754 109.848L78.4816 107.83Z" fill="#8E98A4"/>
<path d="M80.902 113.983L73.9834 116.705L74.7771 118.722L81.6958 116.001L80.902 113.983Z" fill="#8E98A4"/>
<path d="M69.9889 124.32L51.5385 131.579L52.3322 133.596L70.7827 126.338L69.9889 124.32Z" fill="#8E98A4"/>
<path d="M82.9612 119.217L76.0426 121.939L76.8364 123.957L83.755 121.235L82.9612 119.217Z" fill="#8E98A4"/>
<path d="M72.0479 129.554L53.5974 136.812L54.3912 138.83L72.8417 131.572L72.0479 129.554Z" fill="#8E98A4"/>
<path d="M85.0203 124.451L78.1017 127.173L78.8954 129.191L85.8141 126.469L85.0203 124.451Z" fill="#8E98A4"/>
</svg>
