<svg width="204" height="214" viewBox="0 0 204 214" fill="none" xmlns="http://www.w3.org/2000/svg">
<path d="M40.1516 104.412V73.6462H59.2478V89.5595L40.1516 104.412Z" fill="white"/>
<path d="M192.921 112.718V213.507H31.6615V112.718L114.182 49.6565L192.921 112.718Z" fill="#1919EF"/>
<path opacity="0.21" d="M192.921 112.718V116.07L114.182 52.0111L31.6615 116.264V112.718L114.182 49.6565L192.921 112.718Z" fill="#6088E4"/>
<path d="M114.178 49.6589L197.634 117.555L204 117.319L114.414 44L22 116.848H27.8929L114.178 49.6589Z" fill="white"/>
<path d="M125.965 80.3057H97.7928V120.266H125.965V80.3057Z" fill="white"/>
<path d="M124.551 82.3123H99.2081V118.26H124.551V82.3123Z" fill="#6088E4"/>
<path d="M113.132 81.1165H111.453V119.839H113.132V81.1165Z" fill="white"/>
<path d="M143.678 80.7192H126.261V119.971H143.678V80.7192Z" fill="white"/>
<path d="M97.5274 80.7192H80.1118V119.971H97.5274V80.7192Z" fill="white"/>
<path d="M85.1246 143.016H59.1593V182.976H85.1246V143.016Z" fill="white"/>
<path d="M83.8209 145.021H60.4631V180.969H83.8209V145.021Z" fill="#6088E4"/>
<path d="M73.296 143.827H71.7482V182.549H73.296V143.827Z" fill="white"/>
<path d="M101.448 143.429H85.3966V182.681H101.448V143.429Z" fill="white"/>
<path d="M58.914 143.429H42.8629V182.681H58.914V143.429Z" fill="white"/>
<path d="M164.337 143.016H138.371V182.976H164.337V143.016Z" fill="white"/>
<path d="M163.033 145.021H139.675V180.969H163.033V145.021Z" fill="#6088E4"/>
<path d="M152.508 143.827H150.96V182.549H152.508V143.827Z" fill="white"/>
<path d="M180.66 143.429H164.609V182.681H180.66V143.429Z" fill="white"/>
<path d="M179.709 144.375H165.309V181.619H179.709V144.375Z" stroke="#1919EF" stroke-width="0.2629" stroke-miterlimit="10" stroke-linecap="round" stroke-linejoin="round"/>
<path d="M179.709 145.608H165.309V145.954H179.709V145.608Z" fill="#1919EF"/>
<path d="M179.709 147.353H165.309V147.7H179.709V147.353Z" fill="#1919EF"/>
<path d="M179.709 149.099H165.309V149.445H179.709V149.099Z" fill="#1919EF"/>
<path d="M179.709 150.843H165.309V151.19H179.709V150.843Z" fill="#1919EF"/>
<path d="M179.709 152.574H165.309V152.935H179.709V152.574Z" fill="#1919EF"/>
<path d="M179.709 154.32H165.309V154.666H179.709V154.32Z" fill="#1919EF"/>
<path d="M179.709 156.064H165.309V156.411H179.709V156.064Z" fill="#1919EF"/>
<path d="M179.709 157.81H165.309V158.156H179.709V157.81Z" fill="#1919EF"/>
<path d="M179.709 159.541H165.309V159.901H179.709V159.541Z" fill="#1919EF"/>
<path d="M179.709 161.286H165.309V161.633H179.709V161.286Z" fill="#1919EF"/>
<path d="M179.709 163.031H165.309V163.377H179.709V163.031Z" fill="#1919EF"/>
<path d="M179.709 164.778H165.309V165.124H179.709V164.778Z" fill="#1919EF"/>
<path d="M179.709 166.508H165.309V166.869H179.709V166.508Z" fill="#1919EF"/>
<path d="M179.709 168.254H165.309V168.6H179.709V168.254Z" fill="#1919EF"/>
<path d="M179.709 169.999H165.309V170.346H179.709V169.999Z" fill="#1919EF"/>
<path d="M179.709 171.744H165.309V172.091H179.709V171.744Z" fill="#1919EF"/>
<path d="M179.709 173.489H165.309V173.835H179.709V173.489Z" fill="#1919EF"/>
<path d="M179.709 175.22H165.309V175.567H179.709V175.22Z" fill="#1919EF"/>
<path d="M179.709 176.965H165.309V177.312H179.709V176.965Z" fill="#1919EF"/>
<path d="M179.709 178.711H165.309V179.057H179.709V178.711Z" fill="#1919EF"/>
<path d="M179.709 180.151H165.309V180.497H179.709V180.151Z" fill="#1919EF"/>
<path d="M192.921 190.875H31.6615V213.507H192.921V190.875Z" fill="#DEE1EE"/>
</svg>
