<svg width="174" height="241" viewBox="0 0 174 241" fill="none" xmlns="http://www.w3.org/2000/svg">
<g clip-path="url(#clip0_225_3331)">
<path d="M26.6526 114.266L74.8579 230.056L152.22 197.849L104.015 82.0587L26.6526 114.266Z" fill="white"/>
<path d="M98.6729 79.8523L28.8437 108.927C26.7635 109.793 25.7796 112.181 26.6454 114.262L104.008 82.0507C103.142 79.9704 100.753 78.9859 98.6729 79.8523Z" fill="#58FFFF"/>
<path d="M74.8563 230.052C75.8171 232.359 78.4661 233.451 80.7733 232.49L149.781 203.758C152.088 202.797 153.179 200.148 152.219 197.841L74.8563 230.052Z" fill="#58FFFF"/>
<path d="M129.25 184.857L81.8078 204.611C76.9121 206.649 71.2385 204.312 69.2 199.416L65.2031 189.815C63.1651 184.92 65.5021 179.246 70.3984 177.208L117.841 157.454C122.737 155.416 128.41 157.753 130.449 162.649L134.446 172.25C136.484 177.145 134.146 182.818 129.25 184.857Z" fill="#58FFFF"/>
<path d="M79.0894 192.165C77.4604 192.844 76.0773 192.406 75.5066 191.036L75.4473 190.893C74.8655 189.496 75.5171 188.201 77.155 187.519C78.6504 186.896 80.0647 187.258 80.5391 188.397L80.5502 188.424L79.4464 188.884L79.4353 188.857C79.1981 188.287 78.4261 188.139 77.5626 188.498C76.5746 188.909 76.2102 189.615 76.5548 190.442L76.6067 190.567C76.9402 191.368 77.6937 191.598 78.6818 191.186C79.5541 190.823 79.9875 190.183 79.7503 189.613L79.7392 189.587L80.8429 189.127L80.8541 189.154C81.3358 190.311 80.6294 191.524 79.0894 192.165Z" fill="#1919EF"/>
<path d="M87.643 188.479C87.0733 188.716 86.5786 188.682 86.2361 188.386C85.9696 189.05 85.4443 189.52 84.5898 189.876C83.2991 190.413 82.3476 190.235 81.9918 189.38C81.6953 188.668 82.0545 187.975 83.0159 187.45L85.1909 186.252C84.9085 185.774 84.3507 185.714 83.514 186.062C82.6506 186.422 82.2455 186.904 82.427 187.34L82.4382 187.366L81.37 187.811L81.3589 187.784C80.929 186.752 81.6139 185.663 83.1004 185.044C84.6315 184.406 85.8307 184.753 86.3384 185.973L86.8498 187.201C86.9647 187.477 87.1968 187.558 87.5084 187.428L87.9 187.265L88.2928 188.209L87.643 188.479ZM83.06 188.935C83.1711 189.202 83.5472 189.203 84.1703 188.943C85.0782 188.565 85.6094 188.01 85.6779 187.396L85.563 187.12L83.5994 188.199C83.1321 188.456 82.9599 188.695 83.06 188.935Z" fill="#1919EF"/>
<path d="M91.4957 187C89.8579 187.682 88.6615 187.543 88.2761 186.618L88.2502 186.555L89.3184 186.111L89.3443 186.173C89.4925 186.529 90.0273 186.484 91.1222 186.028C92.0479 185.643 92.4426 185.311 92.3203 185.017L92.2981 184.964C92.2092 184.75 91.9496 184.754 91.2256 184.972L90.0952 185.317C88.7526 185.73 88.0198 185.575 87.7085 184.828L87.6715 184.739C87.3157 183.884 88.0124 182.999 89.5524 182.358C91.1457 181.694 92.276 181.85 92.6651 182.785L92.6911 182.847L91.6229 183.292L91.597 183.23C91.4487 182.874 90.9407 182.908 89.917 183.334C89.0714 183.686 88.6641 184.012 88.7641 184.252L88.7864 184.306C88.879 184.528 89.1371 184.546 89.7112 184.37L90.8595 184.017C92.3126 183.569 93.0721 183.712 93.3945 184.487L93.4315 184.576C93.791 185.439 93.0624 186.348 91.4957 187Z" fill="#1919EF"/>
<path d="M95.1763 185.343L92.597 179.147L93.6652 178.703L94.5843 180.91C94.8455 180.384 95.2981 179.966 95.9034 179.714C97.4522 179.069 98.6047 179.529 99.2346 181.042L100.161 183.268L99.0929 183.712L98.1665 181.487C97.807 180.624 97.1121 180.359 96.2042 180.737C95.5722 181 95.1537 181.551 95.1031 182.157L96.2445 184.898L95.1763 185.343Z" fill="#1919EF"/>
<path d="M101.505 182.708L98.9254 176.513L99.9936 176.068L100.887 178.213C101.175 177.728 101.653 177.32 102.276 177.061C103.861 176.401 105.208 176.853 105.79 178.25L105.838 178.366C106.42 179.764 105.795 181.047 104.211 181.707C103.552 181.981 102.926 182.033 102.358 181.873L102.502 182.293L101.505 182.708ZM101.954 180.777C102.403 181.029 103.064 181.035 103.696 180.772C104.684 180.361 105.072 179.636 104.734 178.826L104.686 178.71C104.349 177.9 103.574 177.669 102.577 178.084C101.936 178.351 101.481 178.812 101.339 179.299L101.954 180.777Z" fill="#1919EF"/>
<path d="M112.791 178.009C112.222 178.247 111.727 178.212 111.384 177.916C111.118 178.581 110.593 179.05 109.738 179.406C108.447 179.943 107.496 179.765 107.14 178.91C106.844 178.198 107.203 177.506 108.164 176.98L110.339 175.782C110.057 175.304 109.499 175.244 108.662 175.593C107.799 175.952 107.394 176.434 107.575 176.87L107.586 176.897L106.518 177.342L106.507 177.315C106.077 176.282 106.762 175.193 108.249 174.574C109.78 173.937 110.979 174.283 111.487 175.503L111.998 176.731C112.113 177.007 112.345 177.088 112.657 176.958L113.048 176.795L113.441 177.739L112.791 178.009ZM108.208 178.466C108.319 178.733 108.695 178.733 109.319 178.473C110.227 178.095 110.758 177.54 110.826 176.927L110.711 176.651L108.748 177.729C108.28 177.987 108.108 178.225 108.208 178.466Z" fill="#1919EF"/>
<path d="M116.573 176.56C114.944 177.239 113.561 176.801 112.99 175.431L112.931 175.288C112.349 173.891 113.001 172.596 114.638 171.914C116.134 171.291 117.548 171.653 118.022 172.792L118.034 172.819L116.93 173.279L116.919 173.252C116.682 172.682 115.909 172.534 115.046 172.893C114.058 173.304 113.694 174.01 114.038 174.838L114.09 174.962C114.424 175.763 115.177 175.993 116.165 175.581C117.038 175.218 117.471 174.578 117.234 174.009L117.223 173.982L118.326 173.522L118.337 173.549C118.819 174.706 118.113 175.919 116.573 176.56Z" fill="#1919EF"/>
<path d="M120.159 174.942L117.58 168.747L118.648 168.302L120.29 172.245L121.999 168.975L123.397 168.393L123.46 168.544L122.093 171.181L125.286 172.63L125.349 172.781L124.023 173.334L121.546 172.203L120.839 173.563L121.228 174.497L120.159 174.942Z" fill="#1919EF"/>
<path d="M40.3734 123.976L102.838 97.9671" stroke="#1919EF" stroke-miterlimit="10"/>
<path d="M42.3881 128.815L96.1849 106.415" stroke="#1919EF" stroke-miterlimit="10"/>
<path d="M44.4034 133.654L79.6149 118.993" stroke="#1919EF" stroke-miterlimit="10"/>
<path d="M46.4186 138.494L88.1802 121.106" stroke="#1919EF" stroke-miterlimit="10"/>
<path d="M48.4338 143.334L68.4926 134.982" stroke="#1919EF" stroke-miterlimit="10"/>
<path d="M69.0516 163.162L69.0867 161.615C66.6006 162.25 65.0667 161.618 65.066 159.86L65.0673 159.738L67.3075 158.805L67.3062 158.927C67.2837 159.877 68.4518 159.965 70.3211 159.187C72.0717 158.458 72.8656 157.814 72.8534 157.158L72.8423 157.006C72.8363 156.364 72.4198 156.241 71.3195 156.525L68.9409 157.168C66.8035 157.762 65.3747 156.964 65.3678 155.191L65.3654 155.018C65.3349 153.482 66.4577 152.248 68.8834 151.134L68.911 149.695L71.2402 148.725L71.2113 150.287C73.5578 149.693 75.0583 150.286 75.0368 151.949L75.0355 152.071L72.8101 152.998L72.8114 152.876C72.8203 152.019 71.7572 151.974 69.9028 152.746C68.345 153.395 67.6452 153.93 67.65 154.485L67.6462 154.643C67.651 155.198 68.1454 155.34 69.2012 155.075L71.5562 154.46C73.7209 153.889 75.1311 154.643 75.1702 156.367L75.1726 156.54C75.1968 158.271 74.0245 159.594 71.4147 160.768L71.3809 162.192L69.0516 163.162Z" fill="#1919EF"/>
<path d="M79.7991 157.643L79.9919 149.451C79.6259 149.743 79.1907 149.993 78.6863 150.203L76.9505 150.926L76.9895 148.595L78.5918 147.928C79.6451 147.489 80.047 146.991 80.0744 146.179L80.0794 146.107L82.3789 145.15L82.0986 156.686L79.7991 157.643Z" fill="#1919EF"/>
<path d="M91.0675 153.161C87.4921 154.649 84.5839 153.057 84.6554 149.633L84.6756 148.302C84.7345 145.475 86.2 143.35 88.8408 142.251C92.431 140.756 95.3602 142.357 95.2888 145.781L95.2686 147.112C95.2035 149.924 93.7231 152.055 91.0675 153.161ZM86.9239 149.228C86.8739 151.199 88.3236 152.005 90.3858 151.147C92.0177 150.467 92.9254 149.219 92.9655 147.601L92.9968 146.213C93.0443 144.278 91.5254 143.431 89.4929 144.277C87.8906 144.944 86.9952 146.222 86.9552 147.84L86.9239 149.228Z" fill="#1919EF"/>
<path d="M103.194 148.112C99.6186 149.601 96.7104 148.009 96.7819 144.585L96.8021 143.253C96.861 140.426 98.3265 138.302 100.967 137.202C104.558 135.708 107.487 137.308 107.415 140.732L107.395 142.064C107.33 144.876 105.85 147.007 103.194 148.112ZM99.0504 144.18C99.0003 146.15 100.45 146.957 102.512 146.098C104.144 145.419 105.052 144.171 105.092 142.552L105.123 141.164C105.171 139.23 103.652 138.382 101.619 139.229C100.017 139.896 99.1217 141.174 99.0817 142.792L99.0504 144.18Z" fill="#1919EF"/>
<path d="M114.952 209.172L110.425 211.057C108.934 211.677 107.206 210.965 106.586 209.475C105.965 207.984 106.677 206.256 108.167 205.635L112.695 203.751C114.185 203.13 115.913 203.842 116.534 205.333C117.155 206.823 116.443 208.551 114.952 209.172Z" stroke="#1919EF" stroke-width="0.5" stroke-miterlimit="10"/>
<path d="M129.725 201.16L136.763 198.229L135.166 194.394L129.192 196.881" stroke="#1919EF" stroke-width="0.5" stroke-miterlimit="10"/>
<path d="M129.1 196.051L128.127 197.325L129.717 197.53L129.1 196.051Z" fill="#1919EF"/>
<path d="M92.8665 211.619L84.5414 215.085L86.8906 220.728L95.2156 217.262L92.8665 211.619Z" stroke="#1919EF" stroke-width="0.5" stroke-miterlimit="10"/>
<path d="M94.0187 209.948L85.6943 213.414L88.0435 219.057L96.3678 215.591L94.0187 209.948Z" stroke="#1919EF" stroke-width="0.5" stroke-miterlimit="10"/>
<path d="M56.5445 88.4922C57.2466 86.5207 58.7161 84.8248 60.7722 83.8892C62.7847 82.9742 64.9769 82.9608 66.8958 83.6801" stroke="#060698" stroke-width="1.8557" stroke-miterlimit="10" stroke-linecap="round"/>
<path d="M51.3664 85.9667C52.5161 82.7374 54.9228 79.9607 58.2888 78.4297C61.6548 76.8986 65.3297 76.9092 68.5193 78.1649" stroke="#060698" stroke-width="1.8557" stroke-miterlimit="10" stroke-linecap="round"/>
<path d="M44.9405 84.3627C46.7225 79.3571 50.4538 75.0516 55.6723 72.678C60.8908 70.3044 66.5881 70.3209 71.5324 72.2676" stroke="#060698" stroke-width="1.8557" stroke-miterlimit="10" stroke-linecap="round"/>
</g>
<defs>
<clipPath id="clip0_225_3331">
<rect width="174" height="241" fill="white"/>
</clipPath>
</defs>
</svg>
