<svg width="186" height="170" viewBox="0 0 186 170" fill="none" xmlns="http://www.w3.org/2000/svg">
<path d="M180.497 91.5147L63.0582 167.489C58.1737 170.649 51.6518 169.251 48.4918 164.366L2.38094 93.0896C-0.779061 88.2045 0.61914 81.6832 5.50367 78.5232L122.942 2.5483C127.827 -0.611702 134.349 0.786499 137.509 5.67103L183.62 76.9478C186.78 81.8329 185.382 88.3547 180.497 91.5147Z" fill="#1919EF"/>
<path d="M44.5601 76.0662L16.8856 93.9709L26.5053 108.84L54.1798 90.9349L44.5601 76.0662Z" fill="#58FFFF"/>
<path d="M23.6229 87.8716L34.0377 103.97" stroke="#1919EF" stroke-width="0.9776" stroke-miterlimit="10"/>
<path d="M35.4611 80.2119L45.8759 96.3113" stroke="#1919EF" stroke-width="0.9776" stroke-miterlimit="10"/>
<path d="M29.228 96.5359L21.0217 101.844" stroke="#1919EF" stroke-width="0.9776" stroke-miterlimit="10"/>
<path d="M49.2729 83.5681L41.0667 88.877" stroke="#1919EF" stroke-width="0.9776" stroke-miterlimit="10"/>
<path d="M158.414 88.2123C164.188 84.4767 166.552 77.8689 163.696 73.4534C160.839 69.0378 153.842 68.4866 148.069 72.2222C142.295 75.9578 139.93 82.5656 142.786 86.9811C145.643 91.3967 152.64 91.9479 158.414 88.2123Z" fill="#58FFFF"/>
<path d="M47.2811 137.569L59.2524 129.824" stroke="white" stroke-width="0.9776" stroke-miterlimit="10"/>
<path d="M48.9707 140.179L55.3859 136.029" stroke="white" stroke-width="0.9776" stroke-miterlimit="10"/>
<path d="M87.6692 111.44L99.6411 103.695" stroke="white" stroke-width="0.9776" stroke-miterlimit="10"/>
<path d="M89.3585 114.052L95.7743 109.901" stroke="white" stroke-width="0.9776" stroke-miterlimit="10"/>
<path d="M41.3447 125.076L39.3166 121.941C39.1802 122.144 38.9772 122.333 38.721 122.499L38.0065 122.961L37.3959 122.017L38.0633 121.585C38.5621 121.263 38.693 120.977 38.4836 120.654L39.4948 119.999L42.3559 124.422L41.3447 125.076Z" fill="white"/>
<path d="M43.6067 123.612L43.0921 122.817L44.4436 120.25C44.9698 119.23 45.0246 118.975 44.8065 118.638L44.7673 118.577C44.5187 118.193 44.0194 118.22 43.3521 118.651C42.651 119.105 42.4372 119.588 42.7338 120.046L42.821 120.181L41.8233 120.826L41.7317 120.685C41.0644 119.653 41.4214 118.638 42.7561 117.775C44.0572 116.933 45.1746 116.975 45.7546 117.872L45.7983 117.939C46.2213 118.593 46.1325 119.224 45.4143 120.597L44.9067 121.557L47.293 120.013L47.8469 120.869L43.6067 123.612Z" fill="white"/>
<path d="M50.9253 118.992C49.4446 119.941 48.3534 119.939 47.7297 118.975L47.7035 118.934L48.7079 118.285L48.7341 118.325C48.974 118.696 49.543 118.615 50.352 118.091C51.1811 117.555 51.4722 117.118 51.2454 116.767L51.1974 116.693C50.9881 116.37 50.49 116.472 49.6541 117.013L48.8317 117.545L48.3214 116.756L49.1495 115.006L46.426 116.768L45.8547 115.885L50.1488 113.106L50.7202 113.99L49.8334 115.797C50.9322 115.249 51.7618 115.333 52.2197 116.041L52.272 116.122C52.8696 117.046 52.4083 118.033 50.9253 118.992Z" fill="white"/>
<path d="M52.8299 115.092C52.8129 113.735 52.6643 112.722 52.3332 111.693L53.4051 111L53.5054 111.155C53.7841 112.103 53.9589 113.156 54.0096 114.329L56.0117 113.033L54.8123 111.179L55.8168 110.53L57.0162 112.383L58.0206 111.734L58.605 112.637L57.6006 113.287L58.1807 114.183L57.1762 114.833L56.5961 113.937L53.4143 115.995L52.8299 115.092Z" fill="white"/>
<path d="M65.1078 109.816C63.5978 110.793 62.2806 110.708 61.574 109.616L60.946 108.646C60.1827 107.466 60.6186 106.218 62.1354 105.237C63.5173 104.343 64.6819 104.354 65.2794 105.278L65.3012 105.311L64.3035 105.957L64.2817 105.923C64.0462 105.559 63.4637 105.649 62.7154 106.133C61.8054 106.722 61.5361 107.355 61.9417 107.982L62.0725 108.184C62.2752 107.7 62.6864 107.271 63.3403 106.848C64.7155 105.958 65.8115 105.938 66.3785 106.814L66.4221 106.881C67.0283 107.818 66.5302 108.896 65.1078 109.816ZM62.6395 109.061C63.0051 109.522 63.6582 109.482 64.5547 108.902C65.3367 108.396 65.6571 107.931 65.4173 107.56L65.378 107.499C65.1425 107.135 64.6536 107.222 63.8446 107.746C63.1503 108.195 62.7252 108.661 62.6395 109.061Z" fill="white"/>
<path d="M68.8039 107.071C68.2107 106.155 68.0998 104.505 68.4877 102.533L65.38 104.543L64.7912 103.633L69.1123 100.838L69.7011 101.748C69.2878 103.784 69.3627 105.467 69.9296 106.343L70.0387 106.512L68.9129 107.24L68.8039 107.071Z" fill="white"/>
<path d="M75.0975 103.353C73.4797 104.4 72.3741 104.465 71.7766 103.541L71.7287 103.467C71.4539 103.043 71.4848 102.573 71.8124 102.074C71.3624 102.088 71.015 101.921 70.7926 101.577L70.7446 101.503C70.23 100.707 70.7701 99.6503 72.1318 98.7693C73.4935 97.8883 74.6791 97.8289 75.1938 98.6243L75.2418 98.6985C75.4642 99.0423 75.4745 99.4277 75.2774 99.8326C75.8666 99.7382 76.3075 99.9024 76.5823 100.327L76.6303 100.401C77.2278 101.325 76.7087 102.311 75.0975 103.353ZM72.8096 102.921C73.0364 103.271 73.5079 103.158 74.5393 102.49C75.5707 101.823 75.8677 101.44 75.6409 101.089L75.6148 101.049C75.388 100.698 74.9522 100.808 73.8938 101.493C72.8354 102.177 72.5567 102.53 72.7835 102.88L72.8096 102.921ZM71.7812 100.947C72.0123 101.304 72.4187 101.223 73.3355 100.63C74.2456 100.041 74.4931 99.6993 74.2619 99.342L74.2357 99.3015C74.0177 98.9645 73.5732 99.0608 72.6901 99.6322C71.807 100.203 71.5369 100.569 71.755 100.907L71.7812 100.947Z" fill="white"/>
<path d="M80.5211 99.8444C79.1392 100.738 77.9746 100.727 77.377 99.8034L77.3509 99.7629L78.3486 99.1174L78.3747 99.1579C78.6103 99.5219 79.1928 99.4319 79.941 98.9478C80.8511 98.359 81.116 97.7191 80.7148 97.0989L80.5839 96.8966C80.3813 97.3816 79.97 97.8102 79.3162 98.2332C77.9409 99.123 76.8449 99.1435 76.278 98.2672L76.2344 98.1997C75.6281 97.2627 76.1262 96.185 77.5486 95.2647C79.0586 94.2878 80.3759 94.3727 81.0781 95.4581L81.7105 96.4355C82.4694 97.6085 82.0379 98.8631 80.5211 99.8444ZM77.2741 97.5749C77.5096 97.9389 78.0029 97.8588 78.8118 97.3355C79.5062 96.8863 79.9313 96.42 80.0169 96.0203C79.6514 95.5587 78.9916 95.6031 78.1017 96.1788C77.3197 96.6847 76.9993 97.1502 77.2392 97.521L77.2741 97.5749Z" fill="white"/>
<path d="M88.7286 94.5343C87.286 95.4676 85.7832 95.2733 84.9982 94.0598L84.6711 93.5543C83.8817 92.3341 84.3203 90.8836 85.7629 89.9503C87.1988 89.0213 88.6881 89.2244 89.4775 90.4446L89.8046 90.9502C90.5984 92.1771 90.1713 93.601 88.7286 94.5343ZM86.0157 93.4302C86.4649 94.1246 87.2124 94.1861 88.1224 93.5973C89.0257 93.0129 89.2669 92.3213 88.8133 91.6203L88.4644 91.081C88.0195 90.3934 87.2522 90.316 86.3624 90.8917C85.4726 91.4674 85.2176 92.1966 85.6668 92.8909L86.0157 93.4302Z" fill="white"/>
<path d="M93.1281 91.5732L91.1 88.4386C90.9636 88.6416 90.7606 88.8303 90.5044 88.9961L89.7899 89.4584L89.1793 88.5146L89.8466 88.0828C90.3455 87.7601 90.4764 87.4746 90.267 87.151L91.2782 86.4968L94.1393 90.919L93.1281 91.5732Z" fill="white"/>
<path d="M97.7345 88.7078C96.2918 89.6411 94.789 89.4467 94.004 88.2333L93.6769 87.7277C92.8875 86.5076 93.3261 85.0571 94.7687 84.1238C96.2046 83.1948 97.6939 83.3979 98.4833 84.6181L98.8104 85.1237C99.6042 86.3506 99.1771 87.7744 97.7345 88.7078ZM95.0215 87.6037C95.4707 88.298 96.2182 88.3595 97.1282 87.7708C98.0315 87.1863 98.2727 86.4948 97.8191 85.7937L97.4702 85.2544C97.0253 84.5668 96.258 84.4895 95.3682 85.0652C94.4784 85.6409 94.2234 86.3701 94.6726 87.0644L95.0215 87.6037Z" fill="white"/>
<path d="M100.9 86.5448L100.386 85.7494L101.737 83.1824C102.263 82.1629 102.318 81.9076 102.1 81.5705L102.061 81.5098C101.812 81.1256 101.313 81.1521 100.646 81.5839C99.9445 82.0375 99.7307 82.52 100.027 82.9784L100.115 83.1133L99.1168 83.7587L99.0253 83.6172C98.358 82.5858 98.7149 81.5707 100.05 80.7071C101.351 79.8654 102.468 79.9075 103.048 80.8041L103.092 80.8715C103.515 81.5254 103.426 82.1566 102.708 83.5298L102.2 84.4893L104.587 82.9454L105.14 83.8015L100.9 86.5448Z" fill="white"/>
<path d="M108.333 81.8505C106.891 82.7839 105.388 82.5895 104.603 81.3761L104.276 80.8705C103.486 79.6503 103.925 78.1999 105.368 77.2665C106.804 76.3376 108.293 76.5407 109.082 77.7608L109.409 78.2664C110.203 79.4933 109.776 80.9172 108.333 81.8505ZM105.62 80.7464C106.07 81.4408 106.817 81.5023 107.727 80.9135C108.63 80.3291 108.872 79.6376 108.418 78.9365L108.069 78.3972C107.624 77.7096 106.857 77.6322 105.967 78.2079C105.077 78.7836 104.822 79.5128 105.272 80.2072L105.62 80.7464Z" fill="white"/>
<path d="M113.729 78.3598C112.248 79.3082 111.157 79.3065 110.533 78.3425L110.507 78.3021L111.512 77.6522L111.538 77.6927C111.778 78.0634 112.347 77.9822 113.156 77.4588C113.985 76.9224 114.276 76.4854 114.049 76.1349L114.001 76.0607C113.792 75.7371 113.294 75.8394 112.458 76.3802L111.635 76.9123L111.125 76.1236L111.953 74.3734L109.23 76.1354L108.658 75.2523L112.952 72.4741L113.524 73.3572L112.637 75.1645C113.736 74.6162 114.565 74.7011 115.023 75.4089L115.076 75.4898C115.673 76.4133 115.212 77.4003 113.729 78.3598Z" fill="white"/>
<path d="M120.758 73.6975L118.73 70.5629C118.593 70.7659 118.39 70.9546 118.134 71.1204L117.42 71.5827L116.809 70.6389L117.476 70.2071C117.975 69.8844 118.106 69.5989 117.897 69.2753L118.908 68.6211L121.769 73.0433L120.758 73.6975Z" fill="white"/>
<path d="M123.02 72.2341L122.505 71.4386L123.857 68.8716C124.383 67.8521 124.438 67.5968 124.22 67.2597L124.18 67.1991C123.932 66.8148 123.432 66.8413 122.765 67.2731C122.064 67.7267 121.85 68.2093 122.147 68.6677L122.234 68.8025L121.236 69.448L121.145 69.3064C120.477 68.275 120.834 67.2599 122.169 66.3964C123.47 65.5546 124.588 65.5967 125.168 66.4933L125.211 66.5607C125.634 67.2146 125.546 67.8459 124.827 69.219L124.32 70.1786L126.706 68.6346L127.26 69.4908L123.02 72.2341Z" fill="white"/>
<path d="M128.109 68.9417L127.594 68.1463L128.945 65.5792C129.472 64.5598 129.526 64.3045 129.308 63.9674L129.269 63.9067C129.021 63.5225 128.521 63.549 127.854 63.9808C127.153 64.4344 126.939 64.9169 127.236 65.3753L127.323 65.5102L126.325 66.1556L126.234 66.0141C125.566 64.9827 125.923 63.9676 127.258 63.104C128.559 62.2623 129.676 62.3044 130.257 63.201L130.3 63.2684C130.723 63.9223 130.634 64.5535 129.916 65.9267L129.409 66.8862L131.795 65.3423L132.349 66.1984L128.109 68.9417Z" fill="white"/>
<path d="M131.874 63.9521C131.857 62.5956 131.709 61.5825 131.378 60.5535L132.449 59.86L132.55 60.0151C132.828 60.9632 133.003 62.0168 133.054 63.1889L135.056 61.8936L133.857 60.0397L134.861 59.3899L136.061 61.2437L137.065 60.5939L137.649 61.4972L136.645 62.147L137.225 63.0436L136.221 63.6935L135.641 62.7969L132.459 64.8555L131.874 63.9521Z" fill="white"/>
<path d="M61.4979 151.479L60.7821 151.942L59.9539 151.312L58.2651 152.405L58.5005 153.418L57.7959 153.874L56.6949 149.034L57.5338 148.491L61.4979 151.479ZM57.5913 149.548L58.0888 151.654L59.3414 150.844L57.6192 149.53L57.5913 149.548Z" fill="white"/>
<path d="M62.5831 148.262L61.827 147.094L62.4701 146.678L64.3731 149.619L63.73 150.035L62.9703 148.861L61.7344 149.66L62.4942 150.835L61.8511 151.251L59.948 148.309L60.5911 147.893L61.3473 149.062L62.5831 148.262Z" fill="white"/>
<path d="M65.7271 148.743L65.084 149.159L63.181 146.218L65.1103 144.969L65.4974 145.568L64.2112 146.4L65.7271 148.743Z" fill="white"/>
<path d="M68.8386 144.517C68.9061 144.621 68.9607 144.726 69.0024 144.831L66.9053 146.188C67.0943 146.415 67.2944 146.552 67.5056 146.601C67.7144 146.646 67.9268 146.598 68.1431 146.458C68.2959 146.359 68.4009 146.252 68.4579 146.135C68.5162 146.013 68.5434 145.871 68.5395 145.71L69.2273 145.265C69.3176 145.592 69.3071 145.911 69.1957 146.221C69.0843 146.531 68.8552 146.799 68.5085 147.023C68.076 147.303 67.6462 147.39 67.219 147.286C66.7919 147.182 66.4227 146.889 66.1116 146.408C65.9041 146.087 65.7847 145.776 65.7531 145.474C65.7191 145.168 65.7679 144.888 65.8995 144.633C66.0348 144.377 66.2423 144.158 66.5219 143.977C66.8052 143.794 67.0935 143.7 67.3867 143.695C67.6799 143.69 67.9536 143.762 68.2077 143.909C68.4594 144.053 68.6697 144.256 68.8386 144.517ZM68.0744 144.733C67.9277 144.564 67.7469 144.456 67.532 144.41C67.3185 144.358 67.1035 144.402 66.8873 144.542C66.686 144.672 66.5599 144.841 66.509 145.048C66.4594 145.249 66.4854 145.465 66.5869 145.696L68.0744 144.733Z" fill="white"/>
<path d="M70.0645 146L69.6448 145.352L69.7175 145.305C69.8406 145.225 69.909 145.13 69.9228 145.021C69.9379 144.905 69.9036 144.758 69.8199 144.58C69.7374 144.395 69.5961 144.148 69.3959 143.839L68.647 142.681L70.8782 141.238L72.7813 144.179L72.1382 144.595L70.6223 142.252L69.6772 142.864L70.0824 143.49C70.3381 143.885 70.52 144.227 70.6281 144.517C70.7337 144.803 70.7566 145.063 70.6968 145.298C70.6406 145.53 70.4765 145.734 70.2043 145.91L70.0645 146Z" fill="white"/>
<path d="M74.2488 143.23L73.4995 143.714L71.5964 140.773L72.2228 140.368L73.5469 142.415L73.5749 142.396L73.4586 139.568L74.208 139.083L76.111 142.025L75.4847 142.43L74.1569 140.378L74.1289 140.396L74.2488 143.23Z" fill="white"/>
<path d="M77.5573 138.574L76.8012 137.406L77.4443 136.99L79.3473 139.931L78.7042 140.347L77.9444 139.173L76.7086 139.972L77.4683 141.147L76.8253 141.563L74.9222 138.621L75.5653 138.205L76.3215 139.374L77.5573 138.574Z" fill="white"/>
<path d="M79.2542 135.739C79.6344 135.493 79.9923 135.397 80.3278 135.449C80.6633 135.502 80.942 135.7 81.1639 136.043L82.4013 137.955L81.8588 138.306L81.5546 137.995L81.5266 138.013C81.5295 138.165 81.4841 138.332 81.3904 138.514C81.2981 138.69 81.1513 138.843 80.95 138.974C80.7449 139.106 80.5388 139.184 80.3316 139.207C80.128 139.228 79.9388 139.197 79.7638 139.114C79.5926 139.029 79.4502 138.899 79.3369 138.724C79.1632 138.456 79.1209 138.174 79.21 137.878C79.2966 137.579 79.517 137.315 79.8712 137.085L80.6149 136.604L80.51 136.442C80.4063 136.282 80.2745 136.192 80.1146 136.174C79.9524 136.152 79.7818 136.199 79.6028 136.315C79.4686 136.402 79.3742 136.505 79.3196 136.625C79.2625 136.741 79.2474 136.857 79.2742 136.972L78.6199 137.395C78.5144 137.093 78.5124 136.796 78.6137 136.503C78.7163 136.204 78.9298 135.949 79.2542 135.739ZM80.7128 138.35C80.9328 138.207 81.0694 138.034 81.1227 137.831C81.1773 137.621 81.1419 137.419 81.0165 137.225L80.9333 137.096L80.2063 137.567C80.0423 137.673 79.9403 137.789 79.9004 137.915C79.8642 138.039 79.8835 138.159 79.9583 138.275C80.0354 138.394 80.141 138.463 80.275 138.482C80.4066 138.497 80.5525 138.453 80.7128 138.35Z" fill="white"/>
<path d="M84.5769 130.995L87.1094 134.909L86.4104 135.361L85.477 133.919L85.0129 134.219L84.9117 136.331L84.1065 136.852L84.2303 134.701C83.9231 134.831 83.6082 134.847 83.2856 134.749C82.9606 134.648 82.6932 134.435 82.4834 134.11C82.3242 133.864 82.2365 133.614 82.2202 133.36C82.2054 133.1 82.2623 132.857 82.391 132.631C82.5173 132.401 82.7072 132.204 82.9608 132.04L84.5769 130.995ZM85.0826 133.309L84.2831 132.073L83.4107 132.638C83.2206 132.761 83.1039 132.915 83.0607 133.102C83.0212 133.286 83.0618 133.472 83.1824 133.658C83.3054 133.848 83.459 133.963 83.6432 134.002C83.8311 134.04 84.0201 133.997 84.2103 133.874L85.0826 133.309Z" fill="white"/>
<path d="M88.5324 133.989L87.8893 134.405L85.9863 131.463L86.6294 131.047L87.4941 132.384L87.8373 130.266L88.5978 129.774L88.2322 132.041L90.5847 132.661L89.8074 133.164L87.6315 132.596L88.5324 133.989Z" fill="white"/>
<path d="M92.0783 131.774C91.6459 132.054 91.2161 132.141 90.7889 132.037C90.3617 131.932 89.9926 131.64 89.6814 131.159C89.3703 130.678 89.2546 130.221 89.3345 129.789C89.4143 129.356 89.6705 129 90.1029 128.72C90.5354 128.441 90.9652 128.353 91.3924 128.457C91.8195 128.562 92.1887 128.854 92.4998 129.335C92.811 129.816 92.9266 130.273 92.8468 130.705C92.7669 131.138 92.5108 131.494 92.0783 131.774ZM91.7021 131.192C91.9295 131.045 92.0622 130.846 92.1001 130.594C92.1381 130.342 92.0569 130.061 91.8568 129.751C91.6566 129.442 91.4338 129.253 91.1884 129.184C90.943 129.116 90.7066 129.155 90.4792 129.302C90.2555 129.447 90.1228 129.646 90.0812 129.901C90.0432 130.153 90.1243 130.433 90.3245 130.743C90.5247 131.052 90.7475 131.241 90.9929 131.31C91.242 131.376 91.4784 131.337 91.7021 131.192Z" fill="white"/>
<path d="M94.0275 130.433L92.1245 127.492L93.584 126.548C93.8636 126.367 94.1288 126.298 94.3794 126.342C94.6314 126.38 94.8394 126.526 95.0034 126.78C95.0998 126.929 95.1476 127.08 95.1468 127.234C95.1472 127.382 95.107 127.524 95.0263 127.661C95.193 127.633 95.3547 127.65 95.5115 127.712C95.6659 127.771 95.7901 127.873 95.8842 128.018C96.0627 128.294 96.1181 128.56 96.0506 128.815C95.9806 129.067 95.7928 129.291 95.4871 129.489L94.0275 130.433ZM94.2672 127.787C94.3827 127.713 94.4541 127.627 94.4813 127.53C94.5085 127.433 94.4871 127.33 94.4172 127.222C94.3496 127.118 94.2661 127.058 94.1665 127.043C94.0646 127.025 93.9558 127.053 93.8402 127.128L93.0909 127.612L93.5178 128.272L94.2672 127.787ZM95.0763 129.001C95.1993 128.922 95.2739 128.828 95.3 128.722C95.3298 128.612 95.3073 128.5 95.2325 128.384C95.1578 128.269 95.0645 128.202 94.9526 128.185C94.8445 128.165 94.729 128.195 94.6059 128.274L93.8398 128.77L94.3101 129.497L95.0763 129.001Z" fill="white"/>
<path d="M96.7198 128.755L96.3002 128.106L96.3729 128.059C96.4959 127.98 96.5643 127.885 96.5781 127.776C96.5933 127.66 96.559 127.513 96.4752 127.335C96.3928 127.15 96.2514 126.903 96.0512 126.593L95.3023 125.436L97.5336 123.992L99.4366 126.934L98.7935 127.35L97.2776 125.007L96.3325 125.618L96.7378 126.245C96.9934 126.64 97.1753 126.982 97.2834 127.272C97.3891 127.558 97.412 127.818 97.3521 128.052C97.2959 128.284 97.1318 128.488 96.8596 128.665L96.7198 128.755Z" fill="white"/>
<path d="M101.79 123.198C101.858 123.302 101.913 123.407 101.954 123.512L99.8572 124.869C100.046 125.096 100.246 125.233 100.458 125.282C100.666 125.326 100.879 125.279 101.095 125.139C101.248 125.04 101.353 124.933 101.41 124.816C101.468 124.694 101.495 124.552 101.491 124.391L102.179 123.946C102.27 124.273 102.259 124.592 102.148 124.902C102.036 125.212 101.807 125.479 101.46 125.704C101.028 125.984 100.598 126.071 100.171 125.967C99.7438 125.862 99.3746 125.57 99.0635 125.089C98.8561 124.768 98.7366 124.457 98.705 124.155C98.671 123.849 98.7198 123.569 98.8514 123.314C98.9868 123.057 99.1942 122.839 99.4738 122.658C99.7572 122.474 100.045 122.38 100.339 122.376C100.632 122.371 100.905 122.443 101.16 122.59C101.411 122.734 101.622 122.937 101.79 123.198ZM101.026 123.414C100.88 123.245 100.699 123.137 100.484 123.091C100.27 123.039 100.055 123.083 99.8392 123.223C99.6379 123.353 99.5118 123.522 99.4609 123.729C99.4114 123.93 99.4373 124.146 99.5388 124.377L101.026 123.414Z" fill="white"/>
<path d="M103.371 124.388L101.468 121.447L102.928 120.502C103.207 120.322 103.473 120.253 103.723 120.297C103.975 120.335 104.183 120.481 104.347 120.734C104.444 120.884 104.491 121.035 104.491 121.189C104.491 121.337 104.451 121.479 104.37 121.616C104.537 121.587 104.699 121.604 104.855 121.667C105.01 121.726 105.134 121.828 105.228 121.973C105.407 122.249 105.462 122.515 105.394 122.77C105.324 123.021 105.137 123.246 104.831 123.444L103.371 124.388ZM103.611 121.742C103.727 121.667 103.798 121.582 103.825 121.485C103.852 121.388 103.831 121.285 103.761 121.177C103.693 121.073 103.61 121.013 103.51 120.998C103.408 120.979 103.3 121.008 103.184 121.082L102.435 121.567L102.862 122.227L103.611 121.742ZM104.42 122.956C104.543 122.876 104.618 122.783 104.644 122.676C104.674 122.567 104.651 122.455 104.576 122.339C104.502 122.224 104.408 122.157 104.296 122.14C104.188 122.12 104.073 122.149 103.95 122.229L103.184 122.725L103.654 123.452L104.42 122.956Z" fill="white"/>
<path d="M105.533 118.738C105.913 118.492 106.271 118.395 106.606 118.448C106.942 118.5 107.221 118.698 107.442 119.041L108.68 120.954L108.137 121.305L107.833 120.994L107.805 121.012C107.808 121.163 107.763 121.33 107.669 121.513C107.577 121.689 107.43 121.842 107.228 121.972C107.023 122.105 106.817 122.182 106.61 122.206C106.407 122.226 106.217 122.195 106.042 122.113C105.871 122.028 105.729 121.898 105.615 121.723C105.442 121.454 105.399 121.172 105.488 120.877C105.575 120.577 105.796 120.313 106.15 120.084L106.893 119.603L106.789 119.44C106.685 119.28 106.553 119.191 106.393 119.173C106.231 119.151 106.06 119.198 105.881 119.313C105.747 119.4 105.653 119.504 105.598 119.624C105.541 119.74 105.526 119.855 105.553 119.97L104.898 120.394C104.793 120.092 104.791 119.794 104.892 119.501C104.995 119.202 105.208 118.948 105.533 118.738ZM106.991 121.348C107.211 121.206 107.348 121.033 107.401 120.829C107.456 120.619 107.42 120.417 107.295 120.223L107.212 120.095L106.485 120.565C106.321 120.671 106.219 120.787 106.179 120.914C106.143 121.038 106.162 121.157 106.237 121.273C106.314 121.392 106.42 121.461 106.554 121.481C106.685 121.496 106.831 121.452 106.991 121.348Z" fill="white"/>
<path d="M65.3327 130.014L63.9747 127.915C63.8833 128.051 63.7474 128.177 63.5758 128.288L63.0973 128.598L62.6885 127.966L63.1354 127.677C63.4694 127.46 63.557 127.269 63.4169 127.053L64.094 126.615L66.0098 129.576L65.3327 130.014Z" fill="white"/>
<path d="M67.6735 128.499L66.3154 126.4C66.2241 126.536 66.0881 126.663 65.9166 126.774L65.4381 127.083L65.0293 126.451L65.4761 126.162C65.8102 125.946 65.8978 125.755 65.7576 125.538L66.4347 125.1L68.3506 128.061L67.6735 128.499Z" fill="white"/>
<path d="M69.3236 127.867L69.2564 127.763L68.9967 123.007L69.6784 122.566L69.7455 122.67L70.0052 127.426L69.3236 127.867Z" fill="white"/>
<path d="M72.3621 125.466L72.0175 124.933L72.9225 123.214C73.2749 122.532 73.3115 122.361 73.1655 122.135L73.1392 122.094C72.9728 121.837 72.6385 121.855 72.1916 122.144C71.7221 122.448 71.579 122.771 71.7776 123.078L71.836 123.168L71.1679 123.6L71.1066 123.506C70.6597 122.815 70.8988 122.135 71.7925 121.557C72.6637 120.993 73.412 121.021 73.8004 121.622L73.8296 121.667C74.1129 122.105 74.0534 122.528 73.5725 123.447L73.2326 124.09L74.8305 123.056L75.2014 123.629L72.3621 125.466Z" fill="white"/>
<path d="M77.3124 122.34C76.3193 122.983 75.6136 123.01 75.2281 122.414L75.2076 122.383L75.8802 121.948L75.9007 121.979C76.0233 122.169 76.3823 122.09 76.9195 121.743C77.4612 121.392 77.6641 121.062 77.5005 120.81L77.4684 120.76C77.3165 120.525 76.9174 120.591 76.3757 120.942C75.8837 121.26 75.6442 121.543 75.7135 121.71L75.0499 122.139L73.9532 120.236L76.6796 118.472L77.0739 119.081L74.9252 120.471L75.2749 121.071C75.4156 120.814 75.6772 120.555 76.0564 120.31C76.9863 119.708 77.7557 119.71 78.1471 120.314L78.1821 120.369C78.6027 121.019 78.301 121.7 77.3124 122.34Z" fill="white"/>
<path d="M105.671 101.863C104.705 102.488 103.698 102.358 103.173 101.545L102.954 101.207C102.425 100.39 102.719 99.4183 103.685 98.7933C104.646 98.1713 105.643 98.3073 106.172 99.1243L106.391 99.4629C106.923 100.284 106.637 101.238 105.671 101.863ZM103.854 101.124C104.155 101.588 104.655 101.63 105.265 101.235C105.87 100.844 106.031 100.381 105.727 99.9116L105.494 99.5504C105.196 99.09 104.682 99.0382 104.086 99.4237C103.49 99.8092 103.319 100.297 103.62 100.762L103.854 101.124Z" fill="white"/>
<path d="M109.36 99.4757C108.394 100.101 107.388 99.9705 106.862 99.158L106.643 98.8195C106.115 98.0024 106.408 97.0312 107.374 96.4062C108.336 95.7841 109.333 95.9201 109.862 96.7372L110.081 97.0757C110.612 97.8973 110.326 98.8507 109.36 99.4757ZM107.544 98.7364C107.844 99.2014 108.345 99.2425 108.954 98.8483C109.559 98.4569 109.721 97.9939 109.417 97.5244L109.183 97.1633C108.885 96.7029 108.372 96.651 107.776 97.0366C107.18 97.4221 107.009 97.9103 107.31 98.3753L107.544 98.7364Z" fill="white"/>
<path d="M111.439 98.4893L111.372 98.3855L111.112 93.6292L111.794 93.1882L111.861 93.292L112.121 98.0483L111.439 98.4893Z" fill="white"/>
<path d="M115.871 95.2633C114.905 95.8883 113.899 95.7581 113.373 94.9456L113.154 94.607C112.626 93.79 112.919 92.8187 113.885 92.1937C114.847 91.5717 115.844 91.7077 116.373 92.5247L116.592 92.8633C117.123 93.6848 116.837 94.6383 115.871 95.2633ZM114.055 94.524C114.355 94.9889 114.856 95.0301 115.465 94.6358C116.07 94.2445 116.232 93.7814 115.928 93.312L115.694 92.9508C115.396 92.4904 114.883 92.4386 114.287 92.8241C113.691 93.2096 113.52 93.6979 113.821 94.1628L114.055 94.524Z" fill="white"/>
<path d="M119.484 92.9258C118.493 93.5609 117.762 93.5598 117.344 92.9142L117.327 92.8872L117.999 92.452L118.017 92.4791C118.178 92.7274 118.559 92.673 119.1 92.3225C119.656 91.9633 119.85 91.6707 119.699 91.436L119.666 91.3863C119.526 91.1696 119.193 91.2381 118.633 91.6003L118.082 91.9566L117.741 91.4284L118.295 90.2564L116.471 91.4363L116.089 90.845L118.964 88.9846L119.347 89.576L118.753 90.7862C119.489 90.419 120.044 90.4759 120.351 90.9498L120.386 91.004C120.786 91.6224 120.477 92.2833 119.484 92.9258Z" fill="white"/>
<path d="M60.2493 84.2903L56.1621 77.9729L61.4395 74.5585L62.561 76.292L59.2193 78.454L62.185 83.038L60.2493 84.2903Z" fill="white"/>
<path d="M64.552 81.5066L64.3651 81.2177L63.0842 73.4944L65.2222 72.1113L71.7419 76.4451L71.9288 76.734L70.0413 77.9552L68.9543 77.183L66.1808 78.9774L66.4396 80.2854L64.552 81.5066ZM65.7917 76.9614L67.2748 76.0019L65.3432 74.6422L65.7917 76.9614Z" fill="white"/>
<path d="M75.7316 74.4513C73.2952 76.0276 71.4264 75.8842 70.2301 74.0352L70.1865 73.9678L72.1415 72.703L72.1851 72.7704C72.6835 73.5408 73.4154 73.5318 74.6962 72.7031C75.5533 72.1486 75.9805 71.6263 75.7998 71.3471L75.7375 71.2508C75.563 70.9811 75.3296 71.0638 74.2318 71.7741L73.0569 72.5342L72.1223 71.0897L73.2587 70.3545C74.2025 69.7439 74.3996 69.5207 74.2251 69.2511L74.1628 69.1547C73.9884 68.8851 73.4134 69.0522 72.5274 69.6254C71.314 70.4104 71.071 70.9639 71.5881 71.7632L71.6317 71.8306L69.6768 73.0954L69.6332 73.028C68.4493 71.1982 69.0845 69.4348 71.4728 67.8897C73.5336 66.5563 75.2495 66.4845 76.0283 67.6883L76.0906 67.7846C76.4208 68.295 76.4321 68.8615 76.1409 69.446C76.8898 69.3577 77.4783 69.5917 77.8335 70.1406L77.8958 70.2369C78.6995 71.4792 77.8888 73.0556 75.7316 74.4513Z" fill="white"/>
<path d="M80.2058 71.379L76.1186 65.0615L82.5805 60.8809L86.6677 67.1983L84.732 68.4506L81.7663 63.8666L79.1758 65.5427L82.1415 70.1267L80.2058 71.379Z" fill="white"/>
<path d="M87.8988 66.4019L83.8115 60.0844L87.9236 57.424C89.5126 56.3959 90.9894 56.588 91.8492 57.917L91.9115 58.0133C92.7776 59.3519 92.3475 60.7777 90.7585 61.8057L88.5821 63.2138L89.8344 65.1495L87.8988 66.4019ZM87.498 61.5382L89.6263 60.1612C90.0404 59.8933 90.1429 59.6084 89.9373 59.2906L89.875 59.1943C89.6756 58.8861 89.3737 58.8629 88.9596 59.1308L86.8313 60.5077L87.498 61.5382Z" fill="white"/>
<path d="M99.1615 59.2927C96.8021 60.8192 94.423 60.5415 93.1457 58.5673L93.1146 58.5191C91.8373 56.5449 92.5529 54.2514 94.9123 52.7249C97.3103 51.1735 99.6667 51.4795 100.944 53.4537L100.975 53.5019C102.252 55.4761 101.559 57.7413 99.1615 59.2927ZM95.1386 57.3189C95.7617 58.2819 96.6963 58.333 97.9964 57.4919C99.335 56.6258 99.6427 55.771 99.0196 54.808L98.9573 54.7117C98.3405 53.7583 97.3775 53.6846 96.0774 54.5257C94.8159 55.3419 94.4595 56.2692 95.0763 57.2226L95.1386 57.3189Z" fill="white"/>
<path d="M107.314 53.8407L103.579 51.2982L105.841 54.794L103.924 56.0339L99.8369 49.7164L102.427 48.0404L106.866 51.0571L105.914 45.7849L108.514 44.1027L112.601 50.4201L110.694 51.6538L108.42 48.1387L109.211 52.6133L107.314 53.8407Z" fill="white"/>
<path d="M113.837 49.6208L109.749 43.3033L115.807 39.3843L116.866 41.0215L112.744 43.6881L113.243 44.4586L115.313 43.119C116.989 42.0349 118.273 42.1193 119.089 43.3809L119.151 43.4772C119.961 44.7292 119.518 45.9448 117.843 47.0289L113.837 49.6208ZM114.713 46.7313L116.745 45.4167C117.149 45.155 117.28 44.8927 117.125 44.6519L117.062 44.5556C116.907 44.3149 116.614 44.3268 116.209 44.5884L114.177 45.9031L114.713 46.7313Z" fill="white"/>
<path d="M120.472 45.3281L120.285 45.0392L119.004 37.3159L121.142 35.9327L127.661 40.2666L127.848 40.5555L125.961 41.7767L124.874 41.0045L122.1 42.7989L122.359 44.1069L120.472 45.3281ZM121.711 40.7828L123.194 39.8233L121.263 38.4637L121.711 40.7828Z" fill="white"/>
<path d="M128.479 40.1472L124.392 33.8297L126.328 32.5774L127.811 34.8694L130.594 33.0688L129.111 30.7768L131.047 29.5244L135.134 35.8419L133.198 37.0942L131.715 34.8022L128.932 36.6028L130.415 38.8949L128.479 40.1472Z" fill="white"/>
<path d="M140.829 32.1575L137.651 30.9621L136.823 31.4979L138.306 33.7899L136.37 35.0423L132.283 28.7248L134.218 27.4725L135.701 29.7645L136.423 29.2972L136.838 25.7778L139.11 24.3074L139.297 24.5963L138.627 28.9235L142.828 30.4543L143.015 30.7432L140.829 32.1575Z" fill="white"/>
</svg>
