<svg width="200" height="190" viewBox="0 0 200 190" fill="none" xmlns="http://www.w3.org/2000/svg">
<path d="M185.833 182.009H14.5073V184.672H185.833V182.009Z" fill="#BDCEFA"/>
<path d="M187.589 184.673H12.7513V187.336H187.589V184.673Z" fill="#060698"/>
<path d="M190 187.336H10.3407V190H190V187.336Z" fill="#BDCEFA"/>
<path d="M178.731 80.188H18.5023V182.009H178.731V80.188Z" fill="white"/>
<path d="M189.609 82.1305H9L100.947 32L189.609 82.1305Z" fill="#6088E4"/>
<path d="M36.4146 75.4392L162.195 75.1549L100.884 40.8608L36.4146 75.4392Z" fill="#060698"/>
<path d="M185.775 82.1309H13.7135V86.423H185.775V82.1309Z" fill="#BDCEFA"/>
<path d="M43.4382 82.1309H26.49V88.5843H43.4382V82.1309Z" fill="#6088E4"/>
<path d="M39.6355 88.5842H30.2931V182.009H39.6355V88.5842Z" fill="#6088E4"/>
<path d="M80.0598 82.1309H63.1116V88.5843H80.0598V82.1309Z" fill="#6088E4"/>
<path d="M76.2568 88.5842H66.9144V182.009H76.2568V88.5842Z" fill="#6088E4"/>
<path d="M137.628 82.1309H120.68V88.5843H137.628V82.1309Z" fill="#6088E4"/>
<path d="M133.825 88.5842H124.483V182.009H133.825V88.5842Z" fill="#6088E4"/>
<path d="M172.112 82.1309H155.164V88.5843H172.112V82.1309Z" fill="#6088E4"/>
<path d="M168.309 88.5842H158.967V182.009H168.309V88.5842Z" fill="#6088E4"/>
<path d="M102.933 62.6101C102.937 62.3037 102.9 62.0333 102.823 61.799C102.746 61.5642 102.617 61.3508 102.438 61.1582C102.258 60.9658 102.024 60.7872 101.738 60.6221C101.452 60.4572 101.102 60.2948 100.688 60.1353C99.9766 59.8542 99.331 59.5613 98.7512 59.2569C98.1712 58.9523 97.6759 58.6036 97.2653 58.2105C96.8544 57.8177 96.5376 57.3605 96.3146 56.8391C96.0918 56.3178 95.9851 55.6997 95.9948 54.9851C96.0032 54.3653 96.1129 53.8016 96.3242 53.2942C96.5355 52.7873 96.8335 52.3469 97.2182 51.9735C97.6027 51.6004 98.0613 51.2993 98.5938 51.0705C99.1259 50.8419 99.7211 50.6996 100.379 50.6444L100.411 48.3035L102.162 48.3308L102.13 50.7045C102.756 50.802 103.323 50.9896 103.83 51.2672C104.338 51.5451 104.767 51.9019 105.119 52.3376C105.471 52.7738 105.739 53.2866 105.925 53.8767C106.11 54.4668 106.198 55.1265 106.188 55.8557L103.025 55.8062C103.036 54.9312 102.865 54.2739 102.509 53.8341C102.154 53.3948 101.673 53.17 101.067 53.1605C100.739 53.1554 100.455 53.2002 100.217 53.295C99.9784 53.3896 99.7813 53.5216 99.6257 53.6904C99.4701 53.8595 99.3542 54.06 99.2782 54.2922C99.202 54.5245 99.1622 54.7756 99.1585 55.0454C99.1548 55.3152 99.188 55.56 99.258 55.7798C99.3279 55.9998 99.4511 56.204 99.6274 56.3929C99.8037 56.5815 100.038 56.7603 100.332 56.9289C100.625 57.0978 100.99 57.2731 101.425 57.4549C102.129 57.7504 102.77 58.0521 103.346 58.3603C103.922 58.6684 104.415 59.0207 104.826 59.4173C105.237 59.814 105.554 60.2732 105.777 60.7944C105.999 61.3158 106.106 61.9302 106.096 62.6375C106.088 63.2791 105.976 63.8539 105.761 64.3607C105.546 64.8682 105.246 65.3046 104.862 65.6706C104.477 66.0367 104.015 66.3286 103.476 66.5462C102.936 66.7639 102.338 66.9002 101.68 66.9557L101.651 69.1323L99.91 69.1051L99.9393 66.9393C99.3343 66.8642 98.7506 66.7128 98.1881 66.4853C97.6253 66.2576 97.1278 65.9345 96.6955 65.5155C96.2632 65.0968 95.9199 64.5716 95.6656 63.9403C95.4114 63.3091 95.2901 62.5558 95.3019 61.6807L98.4658 61.7303C98.4587 62.2481 98.5203 62.6814 98.6507 63.0296C98.781 63.378 98.9578 63.6581 99.1815 63.8694C99.4049 64.0809 99.66 64.2307 99.9473 64.3189C100.234 64.4074 100.528 64.4538 100.827 64.4586C101.17 64.4637 101.472 64.4214 101.732 64.3305C101.992 64.2397 102.211 64.1119 102.389 63.9468C102.566 63.7818 102.7 63.5852 102.791 63.3566C102.882 63.1289 102.929 62.88 102.933 62.6101Z" fill="#6088E4"/>
<path d="M110.203 182.009H86.9484V154.682C86.9484 148.202 91.8318 142.949 97.8559 142.949H99.9257C105.601 142.949 110.203 147.898 110.203 154.003V182.009Z" fill="#BDCEFA"/>
<path d="M90.9122 122.896H79.9349V109.996C79.9349 106.937 82.2402 104.457 85.084 104.457H86.0609C88.7401 104.457 90.9122 106.794 90.9122 109.676V122.896Z" fill="#BDCEFA"/>
<path d="M58.7637 122.896H47.7864V109.996C47.7864 106.937 50.0917 104.457 52.9355 104.457H53.9125C56.5916 104.457 58.7637 106.794 58.7637 109.676V122.896Z" fill="#BDCEFA"/>
<path d="M58.7637 162.479H47.7864V149.579C47.7864 146.52 50.0917 144.041 52.9355 144.041H53.9125C56.5916 144.041 58.7637 146.377 58.7637 149.259V162.479Z" fill="#BDCEFA"/>
<path d="M151.884 122.896H140.907V109.996C140.907 106.937 143.213 104.457 146.056 104.457H147.033C149.712 104.457 151.884 106.794 151.884 109.676V122.896Z" fill="#BDCEFA"/>
<path d="M151.884 162.479H140.907V149.579C140.907 146.52 143.213 144.041 146.056 144.041H147.033C149.712 144.041 151.884 146.377 151.884 149.259V162.479Z" fill="#BDCEFA"/>
<path d="M118.667 122.896H107.69V109.996C107.69 106.937 109.995 104.457 112.839 104.457H113.816C116.495 104.457 118.667 106.794 118.667 109.676V122.896Z" fill="#BDCEFA"/>
</svg>
