<svg width="165" height="221" viewBox="0 0 165 221" fill="none" xmlns="http://www.w3.org/2000/svg">
<path d="M100.443 84.1877L59.3773 138.744L86.7167 159.323L127.783 104.767L100.443 84.1877Z" fill="#58FFFF"/>
<path d="M120.704 110.188L89.739 151.324C87.3754 149.331 83.8365 149.714 81.9946 152.161L81.971 152.193L66.9405 140.879L67.0402 140.746C68.663 138.59 68.2148 135.515 66.0387 133.877L97.57 91.9881C99.7457 93.6259 102.825 93.2062 104.448 91.0503L104.587 90.8661L120.155 102.585L119.773 103.091C118.107 105.301 118.52 108.447 120.704 110.188Z" fill="#58FFFF" stroke="#060698" stroke-width="0.6517" stroke-miterlimit="10"/>
<path d="M100.006 126.593C102.653 123.076 101.922 118.06 98.3729 115.388C94.8237 112.716 89.8006 113.402 87.1534 116.918C84.5062 120.435 85.2374 125.452 88.7866 128.123C92.3358 130.795 97.3589 130.11 100.006 126.593Z" fill="#58FFFF" stroke="#060698" stroke-width="0.6517" stroke-miterlimit="10"/>
<path d="M111.335 141.77L47.8474 167.364L60.8663 198.922L124.354 173.328L111.335 141.77Z" fill="#58FFFF"/>
<path d="M115.454 174.33L67.5845 193.628C66.569 190.718 63.3176 189.235 60.4697 190.383L60.4333 190.397L53.2755 173.048L53.43 172.986C55.939 171.974 57.1322 169.118 56.0965 166.607L104.841 146.955C105.878 149.467 108.751 150.682 111.26 149.671L111.474 149.585L118.888 167.555L118.298 167.792C115.725 168.828 114.463 171.726 115.454 174.33Z" fill="#58FFFF" stroke="#060698" stroke-width="0.6517" stroke-miterlimit="10"/>
<path d="M93.5062 167.351C95.1962 171.448 93.2488 176.106 89.1567 177.756C85.0645 179.406 80.3771 177.422 78.687 173.326C76.997 169.229 78.9444 164.571 83.0365 162.921C87.1287 161.271 91.8161 163.255 93.5062 167.351Z" fill="#58FFFF" stroke="#060698" stroke-width="0.6517" stroke-miterlimit="10"/>
<path d="M136.155 98.2419L86.8507 145.511L110.599 170.139L159.903 122.87L136.155 98.2419Z" fill="#58FFFF"/>
<path d="M152.03 127.102L114.854 162.742C112.835 160.403 109.275 160.218 107.063 162.338L107.035 162.366L93.9799 148.825L94.0997 148.711C96.0479 146.843 96.0957 143.74 94.2055 141.78L132.062 105.488C133.952 107.448 137.063 107.523 139.012 105.655L139.178 105.495L152.7 119.52L152.242 119.958C150.242 121.872 150.148 125.039 152.03 127.102Z" fill="#58FFFF" stroke="#060698" stroke-width="0.6517" stroke-miterlimit="10"/>
<path d="M131.375 134.317C131.394 129.901 127.82 126.275 123.393 126.217C118.966 126.159 115.362 129.692 115.343 134.108C115.324 138.524 118.897 142.15 123.325 142.208C127.752 142.266 131.356 138.733 131.375 134.317Z" fill="#58FFFF" stroke="#060698" stroke-width="0.6517" stroke-miterlimit="10"/>
<path d="M125.83 54.9744L80.7737 101.592L57.4125 79.0133L102.469 32.3957L125.83 54.9744Z" fill="#58FFFF"/>
<path d="M98.4376 39.8392L64.4643 74.9899C66.6842 76.9102 66.851 80.2856 64.8301 82.3766L64.8042 82.4034L77.6476 94.8166L77.757 94.7034C79.5375 92.8612 82.4877 92.8244 84.3472 94.6217L118.942 58.8277C117.083 57.0309 117.019 54.0808 118.799 52.2386L118.951 52.0813L105.649 39.2241L105.231 39.6574C103.406 41.5478 100.394 41.6286 98.4376 39.8392Z" fill="#58FFFF" stroke="#060698" stroke-width="0.6517" stroke-miterlimit="10"/>
<path d="M86.1298 61.6866C89.0342 58.6816 93.8472 58.6217 96.8799 61.5528C99.9127 64.484 100.017 69.2962 97.1123 72.3013C94.2079 75.3063 89.3949 75.3663 86.3621 72.4351C83.3294 69.504 83.2254 64.6917 86.1298 61.6866Z" fill="#58FFFF" stroke="#060698" stroke-width="0.6517" stroke-miterlimit="10"/>
<path d="M70.2138 53.3186L55.6495 116.657L24.1211 109.139L38.6854 45.8005L70.2138 53.3186Z" fill="#58FFFF"/>
<path d="M39.0686 54.2954L28.0862 102.053C30.9661 102.572 32.8399 105.401 32.1869 108.242L32.1786 108.279L49.5118 112.412L49.5472 112.258C50.1227 109.755 52.6234 108.212 55.1323 108.81L66.3158 60.1786C63.8066 59.5803 62.2398 57.0662 62.815 54.5635L62.864 54.3495L44.9112 50.0682L44.7765 50.6565C44.1877 53.2239 41.6572 54.8373 39.0686 54.2954Z" fill="#58FFFF" stroke="#060698" stroke-width="0.6517" stroke-miterlimit="10"/>
<path d="M48.8749 73.8397C44.7822 72.8637 40.7035 75.3822 39.7646 79.4648C38.8257 83.5474 41.3824 87.6481 45.4751 88.6241C49.5677 89.6001 53.6465 87.0817 54.5854 82.9991C55.5242 78.9165 52.9675 74.8157 48.8749 73.8397Z" fill="#58FFFF" stroke="#060698" stroke-width="0.6517" stroke-miterlimit="10"/>
<path d="M107.343 23.5747L70.3439 76.8347L43.7199 58.2256L80.7186 4.96559L107.343 23.5747Z" fill="#58FFFF"/>
<path d="M77.9198 12.9774L50.0243 53.1363C52.5178 54.6816 53.2201 57.9925 51.5606 60.3815L51.5393 60.4121L66.1767 70.6421L66.2667 70.5126C67.7284 68.4081 70.6314 67.9021 72.7501 69.3834L101.156 28.4899C99.0368 27.0089 98.5043 24.1023 99.9667 21.9978L100.091 21.8181L84.9308 11.2224L84.5877 11.7171C83.0902 13.8765 80.1339 14.4355 77.9198 12.9774Z" fill="#58FFFF" stroke="#060698" stroke-width="0.6517" stroke-miterlimit="10"/>
<path d="M74.2234 33.4188C78.3615 32.7447 82.2934 35.5567 83.0056 39.6996C83.7178 43.8425 80.9406 47.7474 76.8025 48.4215C72.6644 49.0956 68.7325 46.2836 68.0203 42.1407C67.3081 37.9979 70.0853 34.0929 74.2234 33.4188Z" fill="#58FFFF" stroke="#060698" stroke-width="0.6517" stroke-miterlimit="10"/>
</svg>
