<svg width="203" height="171" viewBox="0 0 203 171" fill="none" xmlns="http://www.w3.org/2000/svg">
<path d="M138.644 4.79337L56.6545 53.408L81.0165 94.4948L163.006 45.8802L138.644 4.79337Z" fill="#3CFFB9"/>
<path d="M150.988 49.1179L89.1667 85.7743C87.1738 81.9466 82.4021 80.5614 78.7246 82.7419L78.6774 82.7699L65.2839 60.1813L65.4831 60.0632C68.723 58.1421 69.7777 53.9345 67.8386 50.6641L130.792 13.3369C132.73 16.6067 136.929 17.7005 140.169 15.7795L140.445 15.6154L154.318 39.0118L153.556 39.4626C150.232 41.4302 149.093 45.7112 150.988 49.1179Z" stroke="#060698" stroke-width="0.6517" stroke-miterlimit="10"/>
<path d="M115.556 59.3023C120.841 56.1685 122.562 49.3041 119.399 43.9702C116.237 38.6364 109.388 36.8529 104.103 39.9867C98.8181 43.1205 97.0974 49.9848 100.26 55.3187C103.423 60.6526 110.271 62.4361 115.556 59.3023Z" stroke="#060698" stroke-width="0.6517" stroke-miterlimit="10"/>
<path d="M122.12 84.9115L26.5693 84.229L26.6134 131.883L122.164 132.565L122.12 84.9115Z" fill="#3CFFB9"/>
<path d="M110.143 129.131L38.0978 128.618C38.3325 124.322 34.9229 120.681 30.637 120.65L30.5822 120.649L30.5573 94.4508L30.7898 94.4526C34.5659 94.4796 37.623 91.4268 37.6199 87.6349L110.983 88.1571C110.986 91.9497 114.05 95.0449 117.826 95.0723L118.148 95.0748L118.174 122.21L117.287 122.203C113.414 122.173 110.247 125.244 110.143 129.131Z" stroke="#060698" stroke-width="0.6517" stroke-miterlimit="10"/>
<path d="M85.5168 108.465C85.5226 114.651 80.5345 119.63 74.3757 119.586C68.2169 119.542 63.2194 114.492 63.2136 108.306C63.2077 102.12 68.1958 97.141 74.3546 97.1849C80.5135 97.2287 85.5109 102.279 85.5168 108.465Z" stroke="#060698" stroke-width="0.6517" stroke-miterlimit="10"/>
<path d="M177.28 41.9045L88.5258 76.7371L106.101 121.143L194.855 86.3102L177.28 41.9045Z" fill="#3CFFB9"/>
<path d="M182.444 87.5922L115.522 113.853C114.159 109.762 109.661 107.632 105.68 109.195L105.629 109.215L95.9683 84.8016L96.1839 84.7169C99.6909 83.3409 101.401 79.3601 100.002 75.8263L168.147 49.0848C169.546 52.619 173.522 54.368 177.03 52.991L177.329 52.8736L187.336 78.1594L186.511 78.4823C182.914 79.8908 181.11 83.9298 182.444 87.5922Z" stroke="#060698" stroke-width="0.6517" stroke-miterlimit="10"/>
<path d="M151.948 85.9357C154.318 80.2454 151.631 73.6657 145.947 71.2397C140.262 68.8136 133.733 71.4598 131.363 77.1501C128.993 82.8405 131.68 89.4201 137.364 91.8462C143.048 94.2722 149.578 91.626 151.948 85.9357Z" stroke="#060698" stroke-width="0.6517" stroke-miterlimit="10"/>
</svg>
