<svg width="360" height="614" viewBox="0 0 360 614" fill="none" xmlns="http://www.w3.org/2000/svg">
<path d="M281.992 3H360V254.5L0 252V51.5L15.5047 60.5V208H38.7618V120.5H121.615V168H129.852V104.5L160.377 99.5V186.5H178.304V80H272.301V129H281.992V3Z" fill="#DEE1EE" stroke="#DEE1EE" stroke-width="5"/>
<path d="M327.052 49H356.608L349.825 366H0.968994V202.5H52.3284V249H63.9569V226.5L61.0498 223V187L63.9569 182.5V163.5H135.182V220.5H234.993V187L229.663 182.5V148L234.993 144V125.5L308.156 124V215.5H323.661V130.5L327.052 124V109L323.661 107V69.5L329.96 63L327.052 49Z" fill="#BDCEFA" stroke="#BDCEFA" stroke-width="5"/>
<path d="M266.003 216H351.279H356.124V402.5H0V242.5H14.5357V86L41.6689 100V252H87.214V233.5H104.657V331H167.645V118H222.88V354.5H266.003V216Z" fill="#6088E4" stroke="#6088E4" stroke-width="5"/>
<path fill-rule="evenodd" clip-rule="evenodd" d="M344.85 193H358V620H1V308.5H25.352V403.5H43.8595V347H84.2838V389H102.304V345.5V328.5L98.895 324V290L102.304 285V271L98.895 268V232L102.304 225V215.5C102.304 215.5 97.4338 213 98.895 211.5C100.356 210 137.371 211.5 137.371 211.5V156H144.19H151.739H158.923H167.08V251H195.329V347H250.851V271H262.053L271.307 258.5H289.327L302.477 271H310.757V307.5H346.311V255L342.415 250V213.5L346.311 210L344.85 193Z" fill="#060698"/>
<path d="M144.19 156H137.371V211.5C137.371 211.5 100.356 210 98.895 211.5C97.4338 213 102.304 215.5 102.304 215.5V225L98.895 232V268L102.304 271V285L98.895 290V324L102.304 328.5V345.5V389H84.2838V347H43.8595V403.5H25.352V308.5H1V620H358V193H344.85L346.311 210L342.415 213.5V250L346.311 255V307.5H310.757V271H302.477L289.327 258.5H271.307L262.053 271H250.851V347H195.329V251H167.08V156H158.923M144.19 156V148.5H137.371L151.739 148.25M144.19 156H151.739M166.106 148L158.923 148.125M151.739 148.25V156M151.739 148.25L158.923 148.125M151.739 156H158.923M158.923 148.125V156" stroke="#060698" stroke-width="5"/>
</svg>
