<svg width="204" height="560" viewBox="0 0 204 560" fill="none" xmlns="http://www.w3.org/2000/svg">
<path d="M40.19 320.391L61.4717 235.3L38.7517 235.03L32.6779 318.157C32.6779 318.157 24.3501 326.007 21.0054 327.717C17.6606 329.426 20.8498 337.311 24.6798 336.879C28.5097 336.447 31.3076 331.469 31.3076 331.469C31.3076 331.469 31.6993 330.197 34.0565 330.076C38.3571 329.855 36.7524 335.518 40.166 335.133C43.5796 334.748 40.19 320.391 40.19 320.391Z" fill="#F7E0D8"/>
<path d="M171.326 320.333L146.083 236.304L168.766 234.998L178.725 317.758C178.725 317.758 187.412 325.221 190.833 326.776C194.254 328.331 191.437 336.352 187.591 336.096C183.745 335.839 180.717 330.994 180.717 330.994C180.717 330.994 180.267 329.742 177.906 329.728C173.6 329.703 175.468 335.287 172.04 335.059C168.612 334.83 171.326 320.333 171.326 320.333Z" fill="#F7E0D8"/>
<path d="M14.0249 224.148L45.9528 188.654L61.1207 231.181L59.5285 238.462L35.9806 236.228L14.0249 224.148Z" fill="#BDCEFA"/>
<path d="M159.921 188.654L191.849 224.148L169.894 236.228L148.357 238.462L144.753 231.181L159.921 188.654Z" fill="#BDCEFA"/>
<path d="M77.4618 176.326C77.4618 176.326 85.5904 183.69 99.5013 184.103C113.412 184.517 123.384 176.326 123.384 176.326L104.11 224.148L77.4618 176.326Z" fill="#BDCEFA"/>
<path d="M14.0249 224.148L45.9528 188.654L61.1207 231.181L59.5285 238.462L35.9806 236.228L14.0249 224.148Z" stroke="#BDCEFA" stroke-width="2.5" stroke-linecap="round"/>
<path d="M159.921 188.654L191.849 224.148L169.894 236.228L148.357 238.462L144.753 231.181L159.921 188.654Z" stroke="#BDCEFA" stroke-width="2.5" stroke-linecap="round"/>
<path d="M77.4618 176.326C77.4618 176.326 85.5904 183.69 99.5013 184.103C113.412 184.517 123.384 176.326 123.384 176.326L104.11 224.148L77.4618 176.326Z" stroke="#BDCEFA" stroke-width="2.5" stroke-linecap="round"/>
<path d="M79.5566 176.408L86.3445 149.767H100.423H113.161L119.613 176.408C119.613 176.408 115.172 183.689 100.423 183.937C85.6741 184.185 79.5566 176.408 79.5566 176.408Z" fill="#F7E0D8"/>
<path d="M82.7404 532.153C82.7404 529.131 80.813 510.583 80.813 510.583L107.545 508.929C107.545 508.929 107.21 528.716 106.372 532.153C105.534 535.589 82.7404 535.175 82.7404 532.153Z" fill="#F7E0D8"/>
<path d="M137.547 532.153C137.547 529.131 135.619 510.583 135.619 510.583L162.351 508.929C162.351 508.929 162.016 528.716 161.178 532.153C160.34 535.589 137.547 535.175 137.547 532.153Z" fill="#F7E0D8"/>
<path fill-rule="evenodd" clip-rule="evenodd" d="M133.365 539.458L131.354 543.181C145.847 547.102 153.969 546.399 168.477 542.437L165.502 538.548L161.094 533.087H137.378L133.365 539.458Z" fill="#6088E4"/>
<path d="M131.354 543.181C131.354 543.181 130.013 552.282 131.354 553.606C132.695 554.93 137.806 557.743 147.862 557.991C157.918 558.239 168.98 553.193 169.399 551.29C169.818 549.387 168.477 542.437 168.477 542.437C153.969 546.399 145.847 547.102 131.354 543.181Z" fill="#3558AB" fill-opacity="0.894118"/>
<path d="M131.354 543.181C131.354 543.181 130.013 552.282 131.354 553.606C132.695 554.93 137.806 557.743 147.862 557.991C157.918 558.239 168.98 553.193 169.399 551.29C169.818 549.387 168.477 542.437 168.477 542.437M131.354 543.181C145.847 547.102 153.969 546.399 168.477 542.437M131.354 543.181L133.365 539.458M168.477 542.437L165.502 538.548M165.502 538.548L161.094 533.087H137.378L133.365 539.458M165.502 538.548C152.954 536.908 145.899 536.988 133.365 539.458" stroke="#3558AB" stroke-width="2.5"/>
<path fill-rule="evenodd" clip-rule="evenodd" d="M78.5598 539.458L76.5486 543.181C91.0422 547.102 99.1636 546.399 113.672 542.437L110.697 538.548L106.288 533.087H82.5729L78.5598 539.458Z" fill="#6088E4"/>
<path d="M76.5486 543.181C76.5486 543.181 75.2077 552.282 76.5486 553.606C77.8894 554.93 83.0012 557.743 93.0572 557.991C103.113 558.239 114.175 553.193 114.594 551.29C115.013 549.387 113.672 542.437 113.672 542.437C99.1636 546.399 91.0422 547.102 76.5486 543.181Z" fill="#3558AB" fill-opacity="0.894118"/>
<path d="M76.5486 543.181C76.5486 543.181 75.2077 552.282 76.5486 553.606C77.8894 554.93 83.0012 557.743 93.0572 557.991C103.113 558.239 114.175 553.193 114.594 551.29C115.013 549.387 113.672 542.437 113.672 542.437M76.5486 543.181C91.0422 547.102 99.1636 546.399 113.672 542.437M76.5486 543.181L78.5598 539.458M113.672 542.437L110.697 538.548M110.697 538.548L106.288 533.087H82.5729L78.5598 539.458M110.697 538.548C98.1489 536.908 91.0934 536.988 78.5598 539.458" stroke="#3558AB" stroke-width="2.5"/>
<path d="M61.5394 327.651C63.1316 308.291 78.6347 272.879 78.6347 272.879L108.384 267.915L136.624 272.879C136.624 272.879 152.211 311.352 156.569 327.651C160.927 343.95 201.319 492.629 201.989 497.179C202.659 501.73 173.245 510.666 156.569 510.666C139.893 510.666 132.937 511.079 130.256 508.101C127.575 505.122 118.272 353.796 112.825 344.695C107.378 335.594 111.066 504.791 110.311 508.101C109.556 511.41 104.445 513.561 84.8359 513.561C65.2266 513.561 54.4163 513.23 52.1537 510.666C49.8911 508.101 59.9472 347.012 61.5394 327.651Z" fill="#3558AB" stroke="#3558AB" stroke-width="2.5" stroke-linecap="round"/>
<path d="M110.063 297.204C110.063 297.204 110.063 327.072 112.071 326.907C114.079 326.741 115.928 311.435 115.928 311.435M131.097 295.467C132.515 304.206 135.289 308.371 145.259 314M84.5846 295.467C83.1664 304.206 80.393 308.371 70.4224 314" stroke="#214492" stroke-width="2.5" stroke-linecap="round"/>
<path d="M73.355 286.284L79.0534 270.812L136.457 268.33L140.814 283.719C140.814 283.719 118.859 293.895 109.557 293.233C100.255 292.572 73.355 286.284 73.355 286.284Z" fill="#DD41DB" stroke="#DD41DB" stroke-width="2.5" stroke-linecap="round"/>
<path d="M40.6729 200.319L79.8076 175.746L103.607 221.169L121.792 175.746L161.429 185.757C149.803 215.872 140.744 232.241 136.959 270.563L118.607 280.739L108.384 270.563L98.4113 280.739L78.383 272.466C64.7641 236.516 56.6983 220.883 40.6729 200.319Z" fill="#6088E4" stroke="#6088E4" stroke-width="2.5" stroke-linecap="round"/>
<circle cx="113.663" cy="244.585" r="4.16335" fill="#3558AB"/>
<circle cx="114.669" cy="258.814" r="4.16335" fill="#3558AB"/>
<path d="M103.608 219.1L108.468 269.983" stroke="#3558AB" stroke-width="2.5" stroke-linecap="round"/>
<circle cx="112.658" cy="230.353" r="4.16335" fill="#3558AB"/>
<path d="M65.2708 146.421C65.2708 146.421 58.1478 141.539 56.3042 135.334C54.4605 129.129 45.9967 98.9295 46.6671 91.7314C47.3375 84.5333 46.2481 79.0726 51.2761 74.7703C56.3042 70.468 79.3493 62.0288 79.3493 62.0288H109.685C109.685 62.0288 137.507 70.0543 142.954 74.7703C148.401 79.4863 148.568 82.2166 148.317 91.7314C148.066 101.246 142.954 128.301 141.864 135.334C140.775 142.366 135.16 146.421 135.16 146.421C135.16 146.421 116.724 154.363 100.216 154.529C83.7069 154.694 65.2708 146.421 65.2708 146.421Z" fill="#F7E0D8" stroke="#D7AD9F" stroke-width="2.5"/>
<path d="M98.2038 32.8215C101.975 32.8215 108.554 28.3475 116.975 26.2025C129.095 23.1155 138.429 26.2034 148.316 32.8215C158.204 39.4395 181.024 65.4346 194.071 89.3309C194.071 89.3309 202.201 104.803 200.273 116.965C198.346 129.127 198.499 131.714 189.714 138.559C182.165 144.442 171.447 139.693 167.088 148.157C162.662 156.749 172.598 162.518 172.954 172.151C173.481 186.43 164.657 209.382 163.317 207.479C161.976 205.576 163.686 198.7 160.635 194.49C158 190.853 155.226 189.722 150.998 188.119C144.155 185.524 139.163 190.46 132.227 188.119C123.463 185.161 118.783 180.444 114.88 172.151C112.568 167.237 112.309 163.988 111.947 158.582C111.781 156.099 111.277 154.445 111.947 153.204C112.617 151.963 134.154 148.074 138.679 141.207C143.205 134.34 146.305 102.982 146.305 102.982C146.305 102.982 147.841 91.0535 146.305 92.8058C144.784 94.5411 110.456 79.1408 109.616 77.5427C112.24 85.0361 123.342 91.2358 122.757 92.8058C122.171 94.3789 104.599 88.8347 98.2038 80.2298C92.1593 88.5318 76.4152 93.8804 75.1587 92.8058C73.9023 91.7313 81.406 82.6487 83.3712 77.4995C71.0217 85.546 48.0074 88.8345 47.5884 92.8058C47.1694 96.7772 48.3155 99.0209 48.9292 102.982C51.2815 118.166 54.9628 135.995 60.4099 141.207C65.8569 146.419 88.9858 153.204 88.9858 153.204C88.9858 153.204 89.2197 156.105 88.9858 158.582C88.4641 164.107 87.3864 167.27 84.712 172.151C79.7192 181.262 67.4921 179.503 64.2647 189.36C62.3722 195.14 61.7497 199.371 64.2647 204.915C65.2405 207.066 66.3597 206.9 67.6167 209.962C68.8737 213.023 50.914 210.989 44.9906 204.915L29.8227 189.36C23.8993 183.286 25.4476 183.265 25.2137 178.77C24.7906 170.637 38.284 170.008 37.6162 161.891C37.3234 158.333 36.2299 156.366 34.2642 153.369C28.6843 144.864 16.9066 151.075 9.87825 143.689C3.89834 137.405 3.03521 131.725 1.41442 123.253C-1.09654 110.127 5.85584 89.3309 5.85584 89.3309C5.85584 89.3309 11.9451 75.1349 17.5879 67.0746C27.1319 53.4416 34.6068 46.6762 48.9292 38.0339C59.1003 31.8965 65.1554 24.8988 77.0023 26.2025C86.4545 27.2427 94.4328 32.8215 98.2038 32.8215Z" fill="#060698"/>
<path d="M34.0089 95.9008L37.3914 124.166C37.3914 124.166 16.5643 125.266 14.9128 113.995C13.2614 102.724 34.0089 95.9008 34.0089 95.9008Z" fill="#F7E0D8"/>
<path d="M161.002 95.9008L157.619 124.166C157.619 124.166 178.446 125.266 180.098 113.995C181.749 102.724 161.002 95.9008 161.002 95.9008Z" fill="#F7E0D8"/>
<path d="M86.2212 136.492C95.3641 142.761 100.46 143.017 109.601 136.492" stroke="#D7AD9F" stroke-width="2.5" stroke-linecap="round"/>
<circle cx="67.2816" cy="129.293" r="7.49403" fill="#FF82BE"/>
<path d="M91.5845 126.823C94.2661 121.848 101.892 122.84 103.987 126.823" stroke="#D7AD9F" stroke-width="2.5" stroke-linecap="round"/>
<circle cx="128.624" cy="129.293" r="7.49403" fill="#FF82BE"/>
<path d="M135.336 103.408C135.333 103.404 135.33 103.401 135.327 103.397C135.33 103.401 135.333 103.404 135.336 103.408C135.819 103.935 142.167 101.176 141.864 101.494C141.559 101.815 137.003 105.714 137.003 105.714C137.003 105.714 136.006 104.237 135.336 103.408Z" fill="#060698"/>
<path d="M135.327 103.397L136.298 102.61L136.239 102.536L136.168 102.472L135.327 103.397ZM122.003 98.7639L121.977 97.5142L122.003 98.7639ZM107.335 102.403C106.786 102.821 106.68 103.605 107.098 104.155C107.516 104.704 108.3 104.81 108.85 104.392L108.092 103.397L107.335 102.403ZM141.864 101.494L140.958 100.633L140.958 100.633L141.864 101.494ZM137.003 105.714L135.967 106.413L136.752 107.575L137.816 106.664L137.003 105.714ZM135.327 103.397C136.168 102.472 136.168 102.472 136.167 102.472C136.167 102.471 136.167 102.471 136.167 102.471C136.166 102.47 136.165 102.47 136.164 102.469C136.163 102.467 136.161 102.466 136.159 102.464C136.154 102.46 136.148 102.454 136.141 102.448C136.127 102.436 136.108 102.419 136.083 102.398C136.035 102.355 135.965 102.297 135.876 102.224C135.698 102.078 135.44 101.876 135.108 101.636C134.443 101.157 133.477 100.527 132.247 99.9036C129.791 98.6585 126.257 97.4262 121.977 97.5142L122.003 98.7639L122.029 100.014C125.794 99.9362 128.922 101.021 131.117 102.133C132.213 102.689 133.069 103.248 133.646 103.664C133.934 103.872 134.152 104.043 134.294 104.159C134.365 104.217 134.417 104.261 134.449 104.289C134.465 104.303 134.476 104.313 134.483 104.319C134.486 104.322 134.488 104.323 134.488 104.324C134.489 104.324 134.489 104.324 134.488 104.324C134.488 104.324 134.488 104.324 134.488 104.323C134.488 104.323 134.487 104.323 134.487 104.323C134.487 104.323 134.487 104.322 135.327 103.397ZM122.003 98.7639L121.977 97.5142C117.734 97.6015 114.085 98.8216 111.508 100.007C110.217 100.601 109.186 101.191 108.473 101.636C108.116 101.859 107.838 102.045 107.646 102.179C107.55 102.245 107.476 102.299 107.424 102.337C107.398 102.356 107.377 102.371 107.362 102.382C107.355 102.388 107.349 102.392 107.344 102.396C107.342 102.397 107.34 102.399 107.338 102.4C107.338 102.401 107.337 102.401 107.336 102.402C107.336 102.402 107.336 102.402 107.336 102.402C107.335 102.403 107.335 102.403 108.092 103.397C108.85 104.392 108.849 104.392 108.849 104.392C108.849 104.392 108.849 104.392 108.849 104.392C108.848 104.393 108.848 104.393 108.848 104.393C108.848 104.393 108.848 104.393 108.849 104.392C108.85 104.391 108.853 104.389 108.857 104.387C108.864 104.381 108.878 104.371 108.897 104.357C108.934 104.33 108.994 104.287 109.074 104.231C109.234 104.12 109.477 103.956 109.796 103.757C110.434 103.359 111.373 102.822 112.553 102.278C114.921 101.188 118.227 100.092 122.029 100.014L122.003 98.7639ZM135.327 103.397L134.309 104.122C134.342 104.168 134.377 104.212 134.414 104.252L135.336 103.408L136.258 102.564C136.289 102.597 136.318 102.633 136.346 102.673L135.327 103.397ZM135.336 103.408L134.414 104.252C134.751 104.62 135.176 104.691 135.342 104.711C135.551 104.736 135.751 104.724 135.906 104.706C136.222 104.671 136.582 104.588 136.931 104.492C137.642 104.298 138.512 103.998 139.321 103.704C140.113 103.417 140.949 103.098 141.47 102.906C141.754 102.802 141.946 102.735 142.051 102.703C142.138 102.677 142.072 102.704 141.953 102.714C141.918 102.718 141.813 102.725 141.678 102.705C141.598 102.693 141.181 102.63 140.877 102.228C140.491 101.719 140.639 101.183 140.729 100.979C140.814 100.785 140.928 100.664 140.958 100.633L141.864 101.494L142.769 102.356C142.809 102.314 142.929 102.185 143.018 101.984C143.111 101.773 143.258 101.232 142.869 100.718C142.562 100.313 142.139 100.246 142.05 100.233C141.906 100.211 141.789 100.219 141.738 100.224C141.56 100.239 141.388 100.292 141.329 100.31C141.143 100.366 140.885 100.458 140.609 100.56C140.01 100.779 139.286 101.057 138.468 101.354C137.667 101.645 136.879 101.915 136.273 102.081C135.964 102.165 135.751 102.208 135.629 102.222C135.565 102.229 135.579 102.221 135.642 102.229C135.663 102.231 135.982 102.262 136.258 102.564L135.336 103.408ZM141.864 101.494L140.958 100.633C140.964 100.627 140.904 100.684 140.735 100.835C140.586 100.968 140.387 101.143 140.153 101.348C139.686 101.755 139.091 102.271 138.503 102.778C137.915 103.284 137.337 103.781 136.906 104.151C136.69 104.336 136.511 104.489 136.386 104.596C136.324 104.65 136.275 104.692 136.242 104.721C136.225 104.735 136.212 104.746 136.204 104.753C136.199 104.757 136.196 104.76 136.194 104.761C136.193 104.762 136.192 104.763 136.191 104.764C136.191 104.764 136.191 104.764 136.191 104.764C136.191 104.764 136.191 104.764 136.191 104.764C136.191 104.764 136.191 104.764 137.003 105.714C137.816 106.664 137.816 106.663 137.816 106.663C137.816 106.663 137.816 106.663 137.816 106.663C137.817 106.663 137.817 106.663 137.817 106.663C137.818 106.662 137.818 106.662 137.82 106.661C137.822 106.659 137.825 106.656 137.829 106.652C137.838 106.645 137.851 106.634 137.868 106.619C137.901 106.591 137.95 106.549 138.013 106.495C138.138 106.388 138.318 106.234 138.534 106.048C138.966 105.677 139.546 105.179 140.135 104.671C140.725 104.163 141.325 103.644 141.798 103.23C142.236 102.848 142.642 102.49 142.769 102.356L141.864 101.494ZM137.003 105.714C138.039 105.014 138.039 105.014 138.039 105.014C138.039 105.014 138.039 105.014 138.039 105.014C138.039 105.014 138.039 105.014 138.039 105.014C138.039 105.014 138.039 105.013 138.038 105.013C138.038 105.012 138.037 105.011 138.036 105.009C138.034 105.006 138.031 105.002 138.027 104.996C138.019 104.984 138.008 104.967 137.993 104.946C137.963 104.902 137.921 104.84 137.868 104.763C137.762 104.608 137.613 104.393 137.443 104.152C137.108 103.676 136.671 103.071 136.308 102.622L135.336 103.408L134.364 104.194C134.671 104.574 135.068 105.122 135.399 105.592C135.562 105.823 135.705 106.029 135.807 106.178C135.857 106.252 135.898 106.311 135.926 106.352C135.94 106.372 135.95 106.388 135.957 106.398C135.961 106.403 135.963 106.407 135.965 106.41C135.966 106.411 135.967 106.412 135.967 106.413C135.967 106.413 135.967 106.413 135.967 106.413C135.967 106.413 135.967 106.413 135.967 106.413C135.967 106.413 135.967 106.413 135.967 106.413C135.967 106.413 135.967 106.413 137.003 105.714ZM135.336 103.408L136.308 102.622C136.305 102.618 136.301 102.614 136.298 102.61L135.327 103.397L134.356 104.184C134.359 104.188 134.362 104.191 134.364 104.194L135.336 103.408Z" fill="#060698"/>
<path d="M87.1427 103.64C86.7611 108.16 82.2944 113.156 78.2599 112.824C74.2253 112.492 71.3545 110.045 71.7362 105.524C72.1178 101.004 71.7942 98.5149 75.8287 98.8469C79.8633 99.179 87.3243 101.489 87.1427 103.64Z" fill="#060698"/>
<path d="M58.8483 103.385C58.9 103.38 58.9194 103.359 58.9011 103.32C58.8837 103.341 58.8661 103.363 58.8483 103.385C58.2045 103.456 52.5552 101.152 52.3647 101.417C52.1589 101.702 57.2251 105.636 57.2251 105.636C57.2251 105.636 58.1792 104.223 58.8483 103.385Z" fill="#060698"/>
<path d="M58.9011 103.32L57.9301 102.532L57.99 102.459L58.0604 102.395L58.9011 103.32ZM72.2254 98.6863L72.1997 99.936L72.2254 98.6863ZM86.8936 102.325C87.4428 102.743 87.5489 103.528 87.1306 104.077C86.7124 104.626 85.928 104.732 85.3788 104.314L86.1362 103.32L86.8936 102.325ZM52.3647 101.417L51.3504 100.686L51.3504 100.686L52.3647 101.417ZM57.2251 105.636L58.2611 106.336L57.5137 107.443L56.4585 106.624L57.2251 105.636ZM58.9011 103.32C58.0604 102.395 58.0607 102.394 58.0611 102.394C58.0613 102.394 58.0617 102.393 58.062 102.393C58.0626 102.393 58.0633 102.392 58.0641 102.391C58.0657 102.39 58.0676 102.388 58.0699 102.386C58.0744 102.382 58.0801 102.377 58.0872 102.371C58.1014 102.358 58.1207 102.341 58.1451 102.32C58.194 102.278 58.2633 102.219 58.3524 102.146C58.5306 102 58.7884 101.798 59.1209 101.558C59.7853 101.079 60.7518 100.449 61.9812 99.826C64.437 98.5809 67.9718 97.3486 72.2511 97.4366L72.2254 98.6863L72.1997 99.936C68.4341 99.8586 65.3067 100.943 63.1117 102.056C62.0156 102.612 61.1595 103.171 60.5826 103.586C60.2944 103.794 60.0769 103.965 59.935 104.081C59.864 104.139 59.812 104.184 59.7796 104.212C59.7634 104.226 59.7521 104.236 59.7458 104.241C59.7426 104.244 59.7407 104.246 59.7401 104.246C59.7397 104.247 59.7397 104.247 59.74 104.246C59.7402 104.246 59.7404 104.246 59.7407 104.246C59.7409 104.245 59.7412 104.245 59.7413 104.245C59.7416 104.245 59.7419 104.245 58.9011 103.32ZM72.2254 98.6863L72.2511 97.4366C76.4944 97.5239 80.1439 98.7439 82.7202 99.9295C84.0113 100.524 85.0425 101.114 85.7555 101.558C86.1123 101.781 86.3903 101.968 86.5822 102.101C86.6782 102.168 86.7527 102.221 86.8049 102.259C86.831 102.278 86.8515 102.294 86.8663 102.305C86.8737 102.31 86.8797 102.315 86.8843 102.318C86.8866 102.32 86.8885 102.321 86.89 102.322C86.8908 102.323 86.8915 102.324 86.8921 102.324C86.8924 102.324 86.8928 102.325 86.8929 102.325C86.8933 102.325 86.8936 102.325 86.1362 103.32C85.3788 104.314 85.3791 104.314 85.3794 104.314C85.3795 104.314 85.3797 104.315 85.3798 104.315C85.3801 104.315 85.3802 104.315 85.3803 104.315C85.3804 104.315 85.3802 104.315 85.3796 104.315C85.3785 104.314 85.3759 104.312 85.372 104.309C85.3641 104.303 85.3507 104.293 85.3319 104.279C85.2942 104.252 85.2349 104.209 85.1547 104.153C84.9944 104.042 84.7513 103.878 84.4324 103.679C83.7942 103.281 82.856 102.744 81.6751 102.201C79.3071 101.111 76.0012 100.014 72.1997 99.936L72.2254 98.6863ZM58.9011 103.32L60.0321 102.787C60.1375 103.011 60.319 103.616 59.8613 104.165C59.5231 104.571 59.0721 104.618 58.9853 104.628L58.8483 103.385L58.7113 102.143C58.6763 102.147 58.2608 102.181 57.9407 102.565C57.501 103.092 57.6831 103.667 57.7701 103.852L58.9011 103.32ZM58.8483 103.385L58.9853 104.628C58.7638 104.652 58.5609 104.621 58.4642 104.605C58.3388 104.584 58.2072 104.553 58.0812 104.521C57.8277 104.456 57.525 104.363 57.2051 104.26C56.5634 104.052 55.7732 103.772 55.0213 103.507C54.257 103.238 53.535 102.985 52.9935 102.815C52.7179 102.729 52.5237 102.675 52.4079 102.65C52.3426 102.636 52.3526 102.642 52.4059 102.645C52.4288 102.646 52.5246 102.65 52.6536 102.623C52.7484 102.603 53.1125 102.517 53.379 102.147L52.3647 101.417L51.3504 100.686C51.6288 100.3 52.0155 100.202 52.1429 100.176C52.3044 100.142 52.4429 100.144 52.5177 100.147C52.675 100.154 52.8266 100.183 52.9353 100.206C53.1674 100.256 53.4509 100.339 53.7417 100.43C54.3331 100.615 55.0994 100.884 55.8517 101.149C56.6165 101.419 57.3712 101.685 57.9757 101.881C58.279 101.98 58.5248 102.053 58.7042 102.1C58.7946 102.123 58.8506 102.134 58.8788 102.139C58.9356 102.149 58.8524 102.127 58.7113 102.143L58.8483 103.385ZM52.3647 101.417L53.379 102.147C53.67 101.743 53.6141 101.331 53.5802 101.18C53.5439 101.018 53.4825 100.911 53.4668 100.884C53.4301 100.821 53.4091 100.805 53.4525 100.854C53.5259 100.937 53.667 101.078 53.8821 101.275C54.3021 101.66 54.8947 102.161 55.5111 102.668C56.1235 103.171 56.744 103.666 57.2123 104.037C57.4463 104.222 57.6416 104.375 57.7783 104.482C57.8466 104.536 57.9003 104.578 57.9367 104.606C57.9549 104.62 57.9688 104.631 57.9781 104.638C57.9827 104.642 57.9862 104.645 57.9885 104.646C57.9896 104.647 57.9905 104.648 57.991 104.648C57.9913 104.649 57.9915 104.649 57.9916 104.649C57.9917 104.649 57.9917 104.649 57.9917 104.649C57.9917 104.649 57.9917 104.649 57.2251 105.636C56.4585 106.624 56.4584 106.624 56.4584 106.623C56.4583 106.623 56.4582 106.623 56.4582 106.623C56.458 106.623 56.4577 106.623 56.4574 106.623C56.4567 106.622 56.4557 106.621 56.4544 106.62C56.4518 106.618 56.448 106.615 56.4431 106.612C56.4332 106.604 56.4187 106.593 56.3998 106.578C56.3621 106.549 56.3071 106.506 56.2373 106.451C56.0978 106.342 55.8989 106.186 55.6611 105.997C55.186 105.621 54.5527 105.116 53.9243 104.6C53.2999 104.087 52.6645 103.551 52.1925 103.118C51.9615 102.906 51.7406 102.693 51.5764 102.506C51.501 102.421 51.3922 102.29 51.3039 102.138C51.2624 102.066 51.1843 101.921 51.1408 101.727C51.0999 101.545 51.0465 101.108 51.3504 100.686L52.3647 101.417ZM57.2251 105.636C56.1891 104.937 56.1891 104.937 56.1891 104.937C56.1892 104.937 56.1892 104.937 56.1892 104.937C56.1893 104.937 56.1893 104.936 56.1894 104.936C56.1896 104.936 56.1898 104.936 56.1901 104.935C56.1906 104.935 56.1914 104.933 56.1924 104.932C56.1944 104.929 56.1974 104.925 56.2011 104.919C56.2087 104.908 56.2197 104.892 56.2338 104.871C56.2621 104.829 56.303 104.769 56.354 104.695C56.4559 104.546 56.5989 104.34 56.7634 104.106C57.088 103.644 57.512 103.055 57.8716 102.605L58.8483 103.385L59.825 104.165C59.5155 104.553 59.1279 105.089 58.8082 105.544C58.6505 105.768 58.5132 105.967 58.4153 106.11C58.3664 106.181 58.3275 106.238 58.301 106.277C58.2878 106.296 58.2776 106.311 58.2709 106.321C58.2675 106.326 58.265 106.33 58.2633 106.332C58.2625 106.334 58.2619 106.334 58.2615 106.335C58.2614 106.335 58.2612 106.335 58.2612 106.336C58.2611 106.336 58.2611 106.336 58.2611 106.336C58.2611 106.336 58.2611 106.336 58.2611 106.336C58.2611 106.336 58.2611 106.336 57.2251 105.636ZM58.8483 103.385L57.8716 102.605C57.8912 102.581 57.9107 102.556 57.9301 102.532L58.9011 103.32L59.8722 104.107C59.8568 104.126 59.8411 104.145 59.825 104.165L58.8483 103.385Z" fill="#060698"/>
<path d="M108.679 94.3011C108.679 94.3011 115.802 90.7434 121.333 90.9089C126.864 91.0744 133.652 94.3011 133.652 94.3011" stroke="#161648" stroke-width="2.5" stroke-linecap="round"/>
<path d="M81.6958 94.3011C81.6958 94.3011 74.5728 90.7434 69.0419 90.9089C63.5111 91.0744 56.7233 94.3011 56.7233 94.3011" stroke="#161648" stroke-width="2.5" stroke-linecap="round"/>
<path d="M174.076 59.051C172.507 62.2502 168.584 66.2491 165.446 66.2491H159.17H145.049L150.54 54.4922L152.894 49.4535C152.894 49.4535 156.032 42.2554 162.308 42.2554H181.921C181.921 42.2554 175.645 55.8518 174.076 59.051Z" fill="#6088E4"/>
<path d="M145.049 66.2491C145.049 66.2491 153.07 66.2491 159.17 66.2491M145.049 66.2491H159.17M145.049 66.2491L150.54 54.4922M159.17 66.2491C162.018 66.2491 164.447 66.2491 165.446 66.2491C168.584 66.2491 172.507 62.2502 174.076 59.051C175.645 55.8518 181.921 42.2554 181.921 42.2554C181.921 42.2554 168.584 42.2554 162.308 42.2554C156.032 42.2554 152.894 49.4535 152.894 49.4535L150.54 54.4922M159.17 66.2491C159.17 66.2491 164.662 62.0102 166.231 58.2512C167.8 54.4922 170.153 49.4535 170.153 49.4535C170.153 49.4535 162.308 49.4535 159.17 49.4535C156.032 49.4535 150.54 54.4922 150.54 54.4922" stroke="#1919EF" stroke-width="2.5" stroke-linecap="round"/>
<path d="M26.8582 59.051C28.4273 62.2502 32.3498 66.2491 35.4879 66.2491H41.764H55.8853L50.3937 54.4922L48.0401 49.4535C48.0401 49.4535 44.9021 42.2554 38.6259 42.2554H19.0131C19.0131 42.2554 25.2892 55.8518 26.8582 59.051Z" fill="#6088E4"/>
<path d="M55.8853 66.2491C55.8853 66.2491 47.8641 66.2491 41.764 66.2491M55.8853 66.2491H41.764M55.8853 66.2491L50.3937 54.4922M41.764 66.2491C38.916 66.2491 36.4867 66.2491 35.4879 66.2491C32.3498 66.2491 28.4273 62.2502 26.8582 59.051C25.2892 55.8518 19.0131 42.2554 19.0131 42.2554C19.0131 42.2554 32.3498 42.2554 38.6259 42.2554C44.9021 42.2554 48.0401 49.4535 48.0401 49.4535L50.3937 54.4922M41.764 66.2491C41.764 66.2491 36.2724 62.0102 34.7034 58.2512C33.1344 54.4922 30.7808 49.4535 30.7808 49.4535C30.7808 49.4535 38.6259 49.4535 41.764 49.4535C44.9021 49.4535 50.3937 54.4922 50.3937 54.4922" stroke="#1919EF" stroke-width="2.5" stroke-linecap="round"/>
<path d="M163.317 119.035C163.317 119.035 173.914 118.618 174.671 113.063C175.428 107.508 166.009 103.48 166.009 103.48" stroke="#D7AD9F" stroke-width="2.5" stroke-linecap="round"/>
<path d="M30.4102 119.035C30.4102 119.035 19.8135 118.618 19.0566 113.063C18.2997 107.508 27.7189 103.48 27.7189 103.48" stroke="#D7AD9F" stroke-width="2.5" stroke-linecap="round"/>
<path d="M136.836 107.121C135.747 110.927 131.85 113.236 127.815 112.904C123.781 112.572 122.662 107.187 122.709 105.623C122.757 104.059 122.533 98.5049 126.568 98.8369C130.602 99.169 137.218 102.6 136.836 107.121Z" fill="#060698"/>
<path d="M130.496 41.5824C124.046 42.9991 74.2838 40.4863 71.4279 38.8851C68.5721 37.2839 80.8768 21.6388 82.7106 9.21481C84.5445 -3.20916 83.3743 24.05 90.0112 23.3756C96.6481 22.7013 103.285 -0.899712 104.612 1.12291C105.94 3.14553 103.949 23.3756 111.913 23.3756C119.877 23.3756 121.889 -4.01724 121.204 9.21481C120.52 22.4469 136.946 40.1657 130.496 41.5824Z" fill="#DD41DB" stroke="#CF27CC" stroke-width="2" stroke-linecap="round"/>
</svg>
