<svg width="204" height="557" viewBox="0 0 204 557" fill="none" xmlns="http://www.w3.org/2000/svg">
<path d="M40.19 317.391L61.4717 232.3L38.7517 232.03L32.6779 315.157C32.6779 315.157 24.3501 323.007 21.0054 324.717C17.6606 326.426 20.8498 334.311 24.6798 333.879C28.5097 333.447 31.3076 328.469 31.3076 328.469C31.3076 328.469 31.6993 327.197 34.0565 327.076C38.3571 326.855 36.7524 332.518 40.166 332.133C43.5796 331.748 40.19 317.391 40.19 317.391Z" fill="#F7E0D8"/>
<path d="M171.326 317.333L146.083 233.304L168.766 231.998L178.725 314.758C178.725 314.758 187.412 322.221 190.833 323.776C194.254 325.331 191.437 333.352 187.591 333.096C183.745 332.839 180.717 327.994 180.717 327.994C180.717 327.994 180.267 326.742 177.906 326.728C173.6 326.703 175.468 332.287 172.04 332.059C168.612 331.83 171.326 317.333 171.326 317.333Z" fill="#F7E0D8"/>
<path d="M14.0249 221.148L45.9528 185.654L61.1207 228.181L59.5285 235.462L35.9806 233.228L14.0249 221.148Z" fill="#BDCEFA"/>
<path d="M159.921 185.654L191.849 221.148L169.894 233.228L148.357 235.462L144.753 228.181L159.921 185.654Z" fill="#BDCEFA"/>
<path d="M77.4618 173.326C77.4618 173.326 85.5904 180.69 99.5013 181.103C113.412 181.517 123.384 173.326 123.384 173.326L104.11 221.148L77.4618 173.326Z" fill="#BDCEFA"/>
<path d="M14.0249 221.148L45.9528 185.654L61.1207 228.181L59.5285 235.462L35.9806 233.228L14.0249 221.148Z" stroke="#BDCEFA" stroke-width="2.5" stroke-linecap="round"/>
<path d="M159.921 185.654L191.849 221.148L169.894 233.228L148.357 235.462L144.753 228.181L159.921 185.654Z" stroke="#BDCEFA" stroke-width="2.5" stroke-linecap="round"/>
<path d="M77.4618 173.326C77.4618 173.326 85.5904 180.69 99.5013 181.103C113.412 181.517 123.384 173.326 123.384 173.326L104.11 221.148L77.4618 173.326Z" stroke="#BDCEFA" stroke-width="2.5" stroke-linecap="round"/>
<path d="M79.5566 173.408L86.3445 146.767H100.423H113.161L119.613 173.408C119.613 173.408 115.172 180.689 100.423 180.937C85.6741 181.185 79.5566 173.408 79.5566 173.408Z" fill="#F7E0D8"/>
<path d="M82.7404 529.153C82.7404 526.131 80.813 507.583 80.813 507.583L107.545 505.929C107.545 505.929 107.21 525.716 106.372 529.153C105.534 532.589 82.7404 532.175 82.7404 529.153Z" fill="#F7E0D8"/>
<path d="M137.547 529.153C137.547 526.131 135.619 507.583 135.619 507.583L162.351 505.929C162.351 505.929 162.016 525.716 161.178 529.153C160.34 532.589 137.547 532.175 137.547 529.153Z" fill="#F7E0D8"/>
<path fill-rule="evenodd" clip-rule="evenodd" d="M133.365 536.458L131.354 540.181C145.847 544.102 153.969 543.399 168.477 539.437L165.502 535.548L161.094 530.087H137.378L133.365 536.458Z" fill="#6088E4"/>
<path d="M131.354 540.181C131.354 540.181 130.013 549.282 131.354 550.606C132.695 551.93 137.806 554.743 147.862 554.991C157.918 555.239 168.98 550.193 169.399 548.29C169.818 546.387 168.477 539.437 168.477 539.437C153.969 543.399 145.847 544.102 131.354 540.181Z" fill="#3558AB" fill-opacity="0.894118"/>
<path d="M131.354 540.181C131.354 540.181 130.013 549.282 131.354 550.606C132.695 551.93 137.806 554.743 147.862 554.991C157.918 555.239 168.98 550.193 169.399 548.29C169.818 546.387 168.477 539.437 168.477 539.437M131.354 540.181C145.847 544.102 153.969 543.399 168.477 539.437M131.354 540.181L133.365 536.458M168.477 539.437L165.502 535.548M165.502 535.548L161.094 530.087H137.378L133.365 536.458M165.502 535.548C152.954 533.908 145.899 533.988 133.365 536.458" stroke="#3558AB" stroke-width="2.5"/>
<path fill-rule="evenodd" clip-rule="evenodd" d="M78.5598 536.458L76.5486 540.181C91.0422 544.102 99.1636 543.399 113.672 539.437L110.697 535.548L106.288 530.087H82.5729L78.5598 536.458Z" fill="#6088E4"/>
<path d="M76.5486 540.181C76.5486 540.181 75.2077 549.282 76.5486 550.606C77.8894 551.93 83.0012 554.743 93.0572 554.991C103.113 555.239 114.175 550.193 114.594 548.29C115.013 546.387 113.672 539.437 113.672 539.437C99.1636 543.399 91.0422 544.102 76.5486 540.181Z" fill="#3558AB" fill-opacity="0.894118"/>
<path d="M76.5486 540.181C76.5486 540.181 75.2077 549.282 76.5486 550.606C77.8894 551.93 83.0012 554.743 93.0572 554.991C103.113 555.239 114.175 550.193 114.594 548.29C115.013 546.387 113.672 539.437 113.672 539.437M76.5486 540.181C91.0422 544.102 99.1636 543.399 113.672 539.437M76.5486 540.181L78.5598 536.458M113.672 539.437L110.697 535.548M110.697 535.548L106.288 530.087H82.5729L78.5598 536.458M110.697 535.548C98.1489 533.908 91.0934 533.988 78.5598 536.458" stroke="#3558AB" stroke-width="2.5"/>
<path d="M61.5394 324.651C63.1316 305.291 78.6347 269.879 78.6347 269.879L108.384 264.915L136.624 269.879C136.624 269.879 152.211 308.352 156.569 324.651C160.927 340.95 201.319 489.629 201.989 494.179C202.659 498.73 173.245 507.666 156.569 507.666C139.893 507.666 132.937 508.079 130.256 505.101C127.575 502.122 118.272 350.796 112.825 341.695C107.378 332.594 111.066 501.791 110.311 505.101C109.556 508.41 104.445 510.561 84.8359 510.561C65.2266 510.561 54.4163 510.23 52.1537 507.666C49.8911 505.101 59.9472 344.012 61.5394 324.651Z" fill="#3558AB" stroke="#3558AB" stroke-width="2.5" stroke-linecap="round"/>
<path d="M110.063 294.204C110.063 294.204 110.063 324.072 112.071 323.907C114.079 323.741 115.928 308.435 115.928 308.435M131.097 292.467C132.515 301.206 135.289 305.371 145.259 311M84.5846 292.467C83.1664 301.206 80.393 305.371 70.4224 311" stroke="#214492" stroke-width="2.5" stroke-linecap="round"/>
<path d="M73.355 283.284L79.0534 267.812L136.457 265.33L140.814 280.719C140.814 280.719 118.859 290.895 109.557 290.233C100.255 289.572 73.355 283.284 73.355 283.284Z" fill="#DD41DB" stroke="#DD41DB" stroke-width="2.5" stroke-linecap="round"/>
<path d="M40.6729 197.319L79.8076 172.746L103.607 218.169L121.792 172.746L161.429 182.757C149.803 212.872 140.744 229.241 136.959 267.563L118.607 277.739L108.384 267.563L98.4113 277.739L78.383 269.466C64.7641 233.516 56.6983 217.883 40.6729 197.319Z" fill="#6088E4" stroke="#6088E4" stroke-width="2.5" stroke-linecap="round"/>
<circle cx="113.663" cy="241.585" r="4.16335" fill="#3558AB"/>
<circle cx="114.669" cy="255.814" r="4.16335" fill="#3558AB"/>
<path d="M103.608 216.1L108.468 266.983" stroke="#3558AB" stroke-width="2.5" stroke-linecap="round"/>
<circle cx="112.658" cy="227.353" r="4.16335" fill="#3558AB"/>
<path d="M65.2708 143.421C65.2708 143.421 58.1478 138.539 56.3042 132.334C54.4605 126.129 45.9967 95.9295 46.6671 88.7314C47.3375 81.5333 46.2481 76.0726 51.2761 71.7703C56.3042 67.468 79.3493 59.0288 79.3493 59.0288H109.685C109.685 59.0288 137.507 67.0543 142.954 71.7703C148.401 76.4863 148.568 79.2166 148.317 88.7314C148.066 98.2462 142.954 125.301 141.864 132.334C140.775 139.366 135.16 143.421 135.16 143.421C135.16 143.421 116.724 151.363 100.216 151.529C83.7069 151.694 65.2708 143.421 65.2708 143.421Z" fill="#F7E0D8" stroke="#D7AD9F" stroke-width="2.5"/>
<path d="M98.2038 29.8215C101.975 29.8215 108.554 25.3475 116.975 23.2025C129.095 20.1155 138.429 23.2034 148.316 29.8215C158.204 36.4395 181.024 62.4346 194.071 86.3309C194.071 86.3309 202.201 101.803 200.273 113.965C198.346 126.127 198.499 128.714 189.714 135.559C182.165 141.442 171.447 136.693 167.088 145.157C162.662 153.749 172.598 159.518 172.954 169.151C173.481 183.43 164.657 206.382 163.317 204.479C161.976 202.576 163.686 195.7 160.635 191.49C158 187.853 155.226 186.722 150.998 185.119C144.155 182.524 139.163 187.46 132.227 185.119C123.463 182.161 118.783 177.444 114.88 169.151C112.568 164.237 112.309 160.988 111.947 155.582C111.781 153.099 111.277 151.445 111.947 150.204C112.617 148.963 134.154 145.074 138.679 138.207C143.205 131.34 146.305 99.9825 146.305 99.9825C146.305 99.9825 147.841 88.0535 146.305 89.8058C144.784 91.5411 110.456 76.1408 109.616 74.5427C112.24 82.0361 123.342 88.2358 122.757 89.8058C122.171 91.3789 104.599 85.8347 98.2038 77.2298C92.1593 85.5318 76.4152 90.8804 75.1587 89.8058C73.9023 88.7313 81.406 79.6487 83.3712 74.4995C71.0217 82.546 48.0074 85.8345 47.5884 89.8058C47.1694 93.7772 48.3155 96.0209 48.9292 99.9825C51.2815 115.166 54.9628 132.995 60.4099 138.207C65.8569 143.419 88.9858 150.204 88.9858 150.204C88.9858 150.204 89.2197 153.105 88.9858 155.582C88.4641 161.107 87.3864 164.27 84.712 169.151C79.7192 178.262 67.4921 176.503 64.2647 186.36C62.3722 192.14 61.7497 196.371 64.2647 201.915C65.2405 204.066 66.3597 203.9 67.6167 206.962C68.8737 210.023 50.914 207.989 44.9906 201.915L29.8227 186.36C23.8993 180.286 25.4476 180.265 25.2137 175.77C24.7906 167.637 38.284 167.008 37.6162 158.891C37.3234 155.333 36.2299 153.366 34.2642 150.369C28.6843 141.864 16.9066 148.075 9.87825 140.689C3.89834 134.405 3.03521 128.725 1.41442 120.253C-1.09654 107.127 5.85584 86.3309 5.85584 86.3309C5.85584 86.3309 11.9451 72.1349 17.5879 64.0746C27.1319 50.4416 34.6068 43.6762 48.9292 35.0339C59.1003 28.8965 65.1554 21.8988 77.0023 23.2025C86.4545 24.2427 94.4328 29.8215 98.2038 29.8215Z" fill="#060698"/>
<path d="M34.0089 92.9008L37.3914 121.166C37.3914 121.166 16.5643 122.266 14.9128 110.995C13.2614 99.7238 34.0089 92.9008 34.0089 92.9008Z" fill="#F7E0D8"/>
<path d="M161.002 92.9008L157.619 121.166C157.619 121.166 178.446 122.266 180.098 110.995C181.749 99.7238 161.002 92.9008 161.002 92.9008Z" fill="#F7E0D8"/>
<path d="M86.2212 133.492C95.3641 139.761 100.46 140.017 109.601 133.492" stroke="#D7AD9F" stroke-width="2.5" stroke-linecap="round"/>
<circle cx="67.2816" cy="126.293" r="7.49403" fill="#FF82BE"/>
<path d="M91.5845 123.823C94.2661 118.848 101.892 119.84 103.987 123.823" stroke="#D7AD9F" stroke-width="2.5" stroke-linecap="round"/>
<circle cx="128.624" cy="126.293" r="7.49403" fill="#FF82BE"/>
<path d="M135.336 100.408C135.333 100.404 135.33 100.401 135.327 100.397C135.33 100.401 135.333 100.404 135.336 100.408C135.819 100.935 142.167 98.1757 141.864 98.4943C141.559 98.8149 137.003 102.714 137.003 102.714C137.003 102.714 136.006 101.237 135.336 100.408Z" fill="#060698"/>
<path d="M135.327 100.397L136.298 99.6101L136.239 99.5362L136.168 99.4722L135.327 100.397ZM122.003 95.7639L121.977 94.5142L121.977 94.5142L122.003 95.7639ZM107.335 99.4028C106.786 99.8211 106.68 100.605 107.098 101.155C107.516 101.704 108.3 101.81 108.85 101.392L108.092 100.397L107.335 99.4028ZM141.864 98.4943L140.958 97.6326L140.958 97.6326L141.864 98.4943ZM137.003 102.714L135.967 103.413L136.752 104.575L137.816 103.664L137.003 102.714ZM135.327 100.397C136.168 99.4722 136.168 99.4719 136.167 99.4715C136.167 99.4714 136.167 99.471 136.167 99.4707C136.166 99.4702 136.165 99.4695 136.164 99.4688C136.163 99.4674 136.161 99.4656 136.159 99.4636C136.154 99.4596 136.148 99.4544 136.141 99.4482C136.127 99.4356 136.108 99.4186 136.083 99.3975C136.035 99.3553 135.965 99.2966 135.876 99.2237C135.698 99.078 135.44 98.8756 135.108 98.6359C134.443 98.1571 133.477 97.5269 132.247 96.9036C129.791 95.6585 126.257 94.4262 121.977 94.5142L122.003 95.7639L122.029 97.0137C125.794 96.9362 128.922 98.0205 131.117 99.1334C132.213 99.6892 133.069 100.248 133.646 100.664C133.934 100.872 134.152 101.043 134.294 101.159C134.365 101.217 134.417 101.261 134.449 101.289C134.465 101.303 134.476 101.313 134.483 101.319C134.486 101.322 134.488 101.323 134.488 101.324C134.489 101.324 134.489 101.324 134.488 101.324C134.488 101.324 134.488 101.324 134.488 101.323C134.488 101.323 134.487 101.323 134.487 101.323C134.487 101.323 134.487 101.322 135.327 100.397ZM122.003 95.7639L121.977 94.5142C117.734 94.6015 114.085 95.8216 111.508 97.0071C110.217 97.6013 109.186 98.1912 108.473 98.636C108.116 98.8585 107.838 99.0452 107.646 99.1787C107.55 99.2455 107.476 99.299 107.424 99.337C107.398 99.3561 107.377 99.3712 107.362 99.3823C107.355 99.3878 107.349 99.3923 107.344 99.3957C107.342 99.3975 107.34 99.3989 107.338 99.4001C107.338 99.4007 107.337 99.4012 107.336 99.4017C107.336 99.4019 107.336 99.4022 107.336 99.4023C107.335 99.4026 107.335 99.4028 108.092 100.397C108.85 101.392 108.849 101.392 108.849 101.392C108.849 101.392 108.849 101.392 108.849 101.392C108.848 101.393 108.848 101.393 108.848 101.393C108.848 101.393 108.848 101.393 108.849 101.392C108.85 101.391 108.853 101.389 108.857 101.387C108.864 101.381 108.878 101.371 108.897 101.357C108.934 101.33 108.994 101.287 109.074 101.231C109.234 101.12 109.477 100.956 109.796 100.757C110.434 100.359 111.373 99.8216 112.553 99.2782C114.921 98.1884 118.227 97.0919 122.029 97.0137L122.003 95.7639ZM135.327 100.397L134.309 101.122C134.342 101.168 134.377 101.212 134.414 101.252L135.336 100.408L136.258 99.564C136.289 99.5972 136.318 99.6334 136.346 99.6726L135.327 100.397ZM135.336 100.408L134.414 101.252C134.751 101.62 135.176 101.691 135.342 101.711C135.551 101.736 135.751 101.724 135.906 101.706C136.222 101.671 136.582 101.588 136.931 101.492C137.642 101.298 138.512 100.998 139.321 100.704C140.113 100.417 140.949 100.098 141.47 99.9064C141.754 99.8024 141.946 99.7351 142.051 99.7033C142.138 99.6772 142.072 99.7042 141.953 99.7144C141.918 99.7175 141.813 99.7255 141.678 99.7052C141.598 99.6932 141.181 99.6296 140.877 99.2282C140.491 98.7189 140.639 98.1834 140.729 97.9789C140.814 97.7848 140.928 97.6644 140.958 97.6326L141.864 98.4943L142.769 99.356C142.809 99.3141 142.929 99.1853 143.018 98.9842C143.111 98.7727 143.258 98.2317 142.869 97.7182C142.562 97.3127 142.139 97.2464 142.05 97.233C141.906 97.2114 141.789 97.2193 141.738 97.2237C141.56 97.239 141.388 97.2922 141.329 97.31C141.143 97.3661 140.885 97.458 140.609 97.5596C140.01 97.7795 139.286 98.0575 138.468 98.3543C137.667 98.645 136.879 98.9154 136.273 99.0806C135.964 99.1649 135.751 99.2081 135.629 99.2217C135.565 99.2288 135.579 99.2212 135.642 99.2289C135.663 99.2313 135.982 99.262 136.258 99.564L135.336 100.408ZM141.864 98.4943L140.958 97.6326C140.964 97.6271 140.904 97.6839 140.735 97.8353C140.586 97.9681 140.387 98.1433 140.153 98.3475C139.686 98.7554 139.091 99.2708 138.503 99.7776C137.915 100.284 137.337 100.781 136.906 101.151C136.69 101.336 136.511 101.489 136.386 101.596C136.324 101.65 136.275 101.692 136.242 101.721C136.225 101.735 136.212 101.746 136.204 101.753C136.199 101.757 136.196 101.76 136.194 101.761C136.193 101.762 136.192 101.763 136.191 101.764C136.191 101.764 136.191 101.764 136.191 101.764C136.191 101.764 136.191 101.764 136.191 101.764C136.191 101.764 136.191 101.764 137.003 102.714C137.816 103.664 137.816 103.663 137.816 103.663C137.816 103.663 137.816 103.663 137.816 103.663C137.817 103.663 137.817 103.663 137.817 103.663C137.818 103.662 137.818 103.662 137.82 103.661C137.822 103.659 137.825 103.656 137.829 103.652C137.838 103.645 137.851 103.634 137.868 103.619C137.901 103.591 137.95 103.549 138.013 103.495C138.138 103.388 138.318 103.234 138.534 103.048C138.966 102.677 139.546 102.179 140.135 101.671C140.725 101.163 141.325 100.644 141.798 100.23C142.236 99.8478 142.642 99.4902 142.769 99.356L141.864 98.4943ZM137.003 102.714C138.039 102.014 138.039 102.014 138.039 102.014C138.039 102.014 138.039 102.014 138.039 102.014C138.039 102.014 138.039 102.014 138.039 102.014C138.039 102.014 138.039 102.013 138.038 102.013C138.038 102.012 138.037 102.011 138.036 102.009C138.034 102.006 138.031 102.002 138.027 101.996C138.019 101.984 138.008 101.967 137.993 101.946C137.963 101.902 137.921 101.84 137.868 101.763C137.762 101.608 137.613 101.393 137.443 101.152C137.108 100.676 136.671 100.071 136.308 99.622L135.336 100.408L134.364 101.194C134.671 101.574 135.068 102.122 135.399 102.592C135.562 102.823 135.705 103.029 135.807 103.178C135.857 103.252 135.898 103.311 135.926 103.352C135.94 103.372 135.95 103.388 135.957 103.398C135.961 103.403 135.963 103.407 135.965 103.41C135.966 103.411 135.967 103.412 135.967 103.413C135.967 103.413 135.967 103.413 135.967 103.413C135.967 103.413 135.967 103.413 135.967 103.413C135.967 103.413 135.967 103.413 135.967 103.413C135.967 103.413 135.967 103.413 137.003 102.714ZM135.336 100.408L136.308 99.6222C136.305 99.6179 136.301 99.6138 136.298 99.6101L135.327 100.397L134.356 101.184C134.359 101.188 134.362 101.191 134.364 101.194L135.336 100.408Z" fill="#060698"/>
<path d="M87.1427 100.64C86.7611 105.16 82.2944 110.156 78.2599 109.824C74.2253 109.492 71.3545 107.045 71.7362 102.524C72.1178 98.0036 71.7942 95.5149 75.8287 95.8469C79.8633 96.179 87.3243 98.4886 87.1427 100.64Z" fill="#060698"/>
<path d="M58.8483 100.385C58.9 100.38 58.9194 100.359 58.9011 100.32C58.8837 100.341 58.8661 100.363 58.8483 100.385C58.2045 100.456 52.5552 98.1521 52.3647 98.4166C52.1589 98.7024 57.2251 102.636 57.2251 102.636C57.2251 102.636 58.1792 101.223 58.8483 100.385Z" fill="#060698"/>
<path d="M58.9011 100.32L57.9301 99.5325L57.99 99.4586L58.0603 99.3946L58.9011 100.32ZM72.2254 95.6863L72.1997 96.936L72.1997 96.936L72.2254 95.6863ZM86.8936 99.3252C87.4428 99.7435 87.5489 100.528 87.1306 101.077C86.7124 101.626 85.928 101.732 85.3788 101.314L86.1362 100.32L86.8936 99.3252ZM52.3647 98.4166L51.3504 97.6861L51.3504 97.6861L52.3647 98.4166ZM57.2251 102.636L58.2611 103.336L57.5137 104.443L56.4585 103.624L57.2251 102.636ZM58.9011 100.32C58.0603 99.3946 58.0607 99.3943 58.0611 99.3939C58.0613 99.3938 58.0617 99.3934 58.062 99.3931C58.0626 99.3925 58.0633 99.3919 58.0641 99.3912C58.0657 99.3897 58.0676 99.388 58.0699 99.386C58.0744 99.382 58.0801 99.3768 58.0872 99.3705C58.1014 99.358 58.1207 99.341 58.1451 99.3199C58.194 99.2777 58.2633 99.2189 58.3524 99.146C58.5306 99.0003 58.7884 98.7979 59.1209 98.5583C59.7853 98.0795 60.7518 97.4493 61.9812 96.826C64.437 95.5809 67.9718 94.3486 72.2511 94.4366L72.2254 95.6863L72.1997 96.936C68.4341 96.8586 65.3067 97.9429 63.1117 99.0558C62.0156 99.6115 61.1595 100.171 60.5826 100.586C60.2944 100.794 60.0769 100.965 59.935 101.081C59.864 101.139 59.812 101.184 59.7796 101.212C59.7634 101.226 59.7521 101.236 59.7458 101.241C59.7426 101.244 59.7407 101.246 59.7401 101.246C59.7397 101.247 59.7397 101.247 59.74 101.246C59.7402 101.246 59.7404 101.246 59.7407 101.246C59.7409 101.245 59.7412 101.245 59.7413 101.245C59.7416 101.245 59.7419 101.245 58.9011 100.32ZM72.2254 95.6863L72.2511 94.4366C76.4944 94.5239 80.1439 95.7439 82.7202 96.9295C84.0113 97.5236 85.0425 98.1136 85.7555 98.5583C86.1123 98.7809 86.3903 98.9676 86.5822 99.1011C86.6782 99.1679 86.7527 99.2213 86.8049 99.2594C86.831 99.2784 86.8515 99.2936 86.8663 99.3047C86.8737 99.3102 86.8797 99.3147 86.8843 99.3181C86.8866 99.3198 86.8885 99.3213 86.89 99.3224C86.8908 99.323 86.8915 99.3236 86.8921 99.324C86.8924 99.3242 86.8928 99.3245 86.8929 99.3246C86.8933 99.3249 86.8936 99.3252 86.1362 100.32C85.3788 101.314 85.3791 101.314 85.3794 101.314C85.3795 101.314 85.3797 101.315 85.3798 101.315C85.3801 101.315 85.3802 101.315 85.3803 101.315C85.3804 101.315 85.3802 101.315 85.3796 101.315C85.3785 101.314 85.3759 101.312 85.372 101.309C85.3641 101.303 85.3507 101.293 85.3319 101.279C85.2942 101.252 85.2349 101.209 85.1547 101.153C84.9944 101.042 84.7513 100.878 84.4324 100.679C83.7942 100.281 82.856 99.744 81.6751 99.2005C79.3071 98.1108 76.0012 97.0142 72.1997 96.936L72.2254 95.6863ZM58.9011 100.32L60.0321 99.7873C60.1375 100.011 60.319 100.616 59.8613 101.165C59.5231 101.571 59.0721 101.618 58.9853 101.628L58.8483 100.385L58.7113 99.1428C58.6763 99.1466 58.2608 99.1805 57.9407 99.5647C57.501 100.092 57.6831 100.667 57.7701 100.852L58.9011 100.32ZM58.8483 100.385L58.9853 101.628C58.7638 101.652 58.5609 101.621 58.4642 101.605C58.3388 101.584 58.2072 101.553 58.0812 101.521C57.8277 101.456 57.525 101.363 57.2051 101.26C56.5634 101.052 55.7732 100.772 55.0213 100.507C54.257 100.238 53.535 99.9852 52.9935 99.8153C52.7179 99.7289 52.5237 99.675 52.4079 99.65C52.3426 99.636 52.3526 99.6423 52.4059 99.6447C52.4288 99.6457 52.5246 99.6498 52.6536 99.6228C52.7484 99.6031 53.1125 99.5172 53.379 99.1471L52.3647 98.4166L51.3504 97.6861C51.6288 97.2995 52.0155 97.2021 52.1429 97.1756C52.3044 97.1419 52.4429 97.1438 52.5177 97.1472C52.675 97.1542 52.8266 97.1829 52.9353 97.2063C53.1674 97.2564 53.4509 97.3387 53.7417 97.4299C54.3331 97.6154 55.0994 97.8844 55.8517 98.1493C56.6165 98.4186 57.3712 98.6854 57.9757 98.8812C58.279 98.9795 58.5248 99.0535 58.7042 99.0996C58.7946 99.1229 58.8506 99.1345 58.8788 99.1392C58.9356 99.1488 58.8524 99.1272 58.7113 99.1428L58.8483 100.385ZM52.3647 98.4166L53.379 99.1471C53.67 98.7431 53.6141 98.3312 53.5802 98.1803C53.5439 98.0183 53.4825 97.9113 53.4668 97.8843C53.4301 97.821 53.4091 97.8045 53.4525 97.8538C53.5259 97.9372 53.667 98.078 53.8821 98.2752C54.3021 98.6604 54.8947 99.1614 55.5111 99.6677C56.1235 100.171 56.744 100.666 57.2123 101.037C57.4463 101.222 57.6416 101.375 57.7783 101.482C57.8466 101.536 57.9003 101.578 57.9367 101.606C57.9549 101.62 57.9688 101.631 57.9781 101.638C57.9827 101.642 57.9862 101.645 57.9885 101.646C57.9896 101.647 57.9905 101.648 57.991 101.648C57.9913 101.649 57.9915 101.649 57.9916 101.649C57.9917 101.649 57.9917 101.649 57.9917 101.649C57.9917 101.649 57.9917 101.649 57.2251 102.636C56.4585 103.624 56.4584 103.624 56.4584 103.623C56.4583 103.623 56.4582 103.623 56.4582 103.623C56.458 103.623 56.4577 103.623 56.4574 103.623C56.4567 103.622 56.4557 103.621 56.4544 103.62C56.4518 103.618 56.448 103.615 56.4431 103.612C56.4332 103.604 56.4187 103.593 56.3998 103.578C56.3621 103.549 56.3071 103.506 56.2373 103.451C56.0978 103.342 55.8989 103.186 55.6611 102.997C55.186 102.621 54.5527 102.116 53.9243 101.6C53.2999 101.087 52.6645 100.551 52.1925 100.118C51.9615 99.906 51.7406 99.6926 51.5764 99.5062C51.501 99.4205 51.3922 99.2903 51.3039 99.138C51.2624 99.0664 51.1843 98.9211 51.1408 98.7275C51.0999 98.5449 51.0465 98.108 51.3504 97.6861L52.3647 98.4166ZM57.2251 102.636C56.1891 101.937 56.1891 101.937 56.1891 101.937C56.1892 101.937 56.1892 101.937 56.1892 101.937C56.1893 101.937 56.1893 101.936 56.1894 101.936C56.1896 101.936 56.1898 101.936 56.1901 101.935C56.1906 101.935 56.1914 101.933 56.1924 101.932C56.1944 101.929 56.1974 101.925 56.2011 101.919C56.2087 101.908 56.2197 101.892 56.2338 101.871C56.2621 101.829 56.303 101.769 56.354 101.695C56.4559 101.546 56.5989 101.34 56.7634 101.106C57.088 100.644 57.512 100.055 57.8716 99.6051L58.8483 100.385L59.825 101.165C59.5155 101.553 59.1279 102.089 58.8082 102.544C58.6505 102.768 58.5132 102.967 58.4153 103.11C58.3664 103.181 58.3275 103.238 58.301 103.277C58.2878 103.296 58.2776 103.311 58.2709 103.321C58.2675 103.326 58.265 103.33 58.2633 103.332C58.2625 103.334 58.2619 103.334 58.2615 103.335C58.2614 103.335 58.2612 103.335 58.2612 103.336C58.2611 103.336 58.2611 103.336 58.2611 103.336C58.2611 103.336 58.2611 103.336 58.2611 103.336C58.2611 103.336 58.2611 103.336 57.2251 102.636ZM58.8483 100.385L57.8716 99.6051C57.8912 99.5806 57.9107 99.5564 57.9301 99.5325L58.9011 100.32L59.8722 101.107C59.8568 101.126 59.8411 101.145 59.825 101.165L58.8483 100.385Z" fill="#060698"/>
<path d="M108.679 91.3011C108.679 91.3011 115.802 87.7434 121.333 87.9089C126.864 88.0744 133.652 91.3011 133.652 91.3011" stroke="#161648" stroke-width="2.5" stroke-linecap="round"/>
<path d="M81.6958 91.3011C81.6958 91.3011 74.5728 87.7434 69.0419 87.9089C63.5111 88.0744 56.7233 91.3011 56.7233 91.3011" stroke="#161648" stroke-width="2.5" stroke-linecap="round"/>
<path d="M174.076 56.051C172.507 59.2502 168.584 63.2491 165.446 63.2491H159.17H145.049L150.54 51.4922L152.894 46.4535C152.894 46.4535 156.032 39.2554 162.308 39.2554H181.921C181.921 39.2554 175.645 52.8518 174.076 56.051Z" fill="#6088E4"/>
<path d="M145.049 63.2491C145.049 63.2491 153.07 63.2491 159.17 63.2491M145.049 63.2491H159.17M145.049 63.2491L150.54 51.4922M159.17 63.2491C162.018 63.2491 164.447 63.2491 165.446 63.2491C168.584 63.2491 172.507 59.2502 174.076 56.051C175.645 52.8518 181.921 39.2554 181.921 39.2554C181.921 39.2554 168.584 39.2554 162.308 39.2554C156.032 39.2554 152.894 46.4535 152.894 46.4535L150.54 51.4922M159.17 63.2491C159.17 63.2491 164.662 59.0102 166.231 55.2512C167.8 51.4922 170.153 46.4535 170.153 46.4535C170.153 46.4535 162.308 46.4535 159.17 46.4535C156.032 46.4535 150.54 51.4922 150.54 51.4922" stroke="#1919EF" stroke-width="2.5" stroke-linecap="round"/>
<path d="M26.8582 56.051C28.4273 59.2502 32.3498 63.2491 35.4879 63.2491H41.764H55.8853L50.3937 51.4922L48.0401 46.4535C48.0401 46.4535 44.9021 39.2554 38.6259 39.2554H19.0131C19.0131 39.2554 25.2892 52.8518 26.8582 56.051Z" fill="#6088E4"/>
<path d="M55.8853 63.2491C55.8853 63.2491 47.8641 63.2491 41.764 63.2491M55.8853 63.2491H41.764M55.8853 63.2491L50.3937 51.4922M41.764 63.2491C38.916 63.2491 36.4867 63.2491 35.4879 63.2491C32.3498 63.2491 28.4273 59.2502 26.8582 56.051C25.2892 52.8518 19.0131 39.2554 19.0131 39.2554C19.0131 39.2554 32.3498 39.2554 38.6259 39.2554C44.9021 39.2554 48.0401 46.4535 48.0401 46.4535L50.3937 51.4922M41.764 63.2491C41.764 63.2491 36.2724 59.0102 34.7034 55.2512C33.1344 51.4922 30.7808 46.4535 30.7808 46.4535C30.7808 46.4535 38.6259 46.4535 41.764 46.4535C44.9021 46.4535 50.3937 51.4922 50.3937 51.4922" stroke="#1919EF" stroke-width="2.5" stroke-linecap="round"/>
<path d="M163.317 116.035C163.317 116.035 173.914 115.618 174.671 110.063C175.428 104.508 166.009 100.48 166.009 100.48" stroke="#D7AD9F" stroke-width="2.5" stroke-linecap="round"/>
<path d="M30.4102 116.035C30.4102 116.035 19.8135 115.618 19.0566 110.063C18.2997 104.508 27.7189 100.48 27.7189 100.48" stroke="#D7AD9F" stroke-width="2.5" stroke-linecap="round"/>
<path d="M136.836 104.121C135.747 107.927 131.85 110.236 127.815 109.904C123.781 109.572 122.662 104.187 122.709 102.623C122.757 101.059 122.533 95.5049 126.568 95.8369C130.602 96.169 137.218 99.6001 136.836 104.121Z" fill="#060698"/>
<path d="M89.7112 14.5306C90.6302 14.0742 91.4775 13.4589 92.3085 12.7855C92.3092 12.7849 92.31 12.7844 92.3107 12.7838C92.3107 12.7838 88.8393 8.19398 87.7421 7.73937C86.6449 7.28476 82.6326 4.65056 81.0876 5.25349C79.5425 5.85641 80.3004 7.92994 80.6609 8.56438C81.0214 9.19882 83.8808 10.1725 85.1039 10.6641C86.3269 11.1558 89.7112 14.5306 89.7112 14.5306Z" fill="#3CFFB9"/>
<path d="M92.3085 12.7855C91.4775 13.4589 90.6302 14.0742 89.7112 14.5306C85.8671 16.4399 81.8379 12.887 77.6861 14.9589C73.3614 17.1171 71.59 20.1138 70.3119 24.6852C68.5556 30.9672 69.0935 37.0562 74.5415 40.9965C78.6419 43.962 82.5182 43.9775 87.4147 42.8001C92.7313 41.5217 93.5089 36.8098 98.3679 34.3908C103.679 31.7467 108.918 34.6013 113.174 30.5511C115.729 28.1204 117.272 26.2049 117.531 22.7129C117.833 18.6414 115.996 16.1166 113.114 13.0869C109.717 9.51675 106.484 7.73366 101.53 7.82957C97.4342 7.90885 94.9549 10.6405 92.3107 12.7838C92.31 12.7844 92.3092 12.7849 92.3085 12.7855Z" fill="#3CFFB9"/>
<path d="M89.7112 14.5306C85.8671 16.4399 81.8379 12.887 77.6861 14.9589C73.3614 17.1171 71.59 20.1138 70.3119 24.6852C68.5556 30.9672 69.0935 37.0562 74.5415 40.9964C78.6419 43.962 82.5182 43.9775 87.4147 42.8001C92.7313 41.5217 93.5089 36.8098 98.3679 34.3908C103.679 31.7467 108.918 34.6013 113.174 30.5511C115.729 28.1204 117.272 26.2049 117.531 22.7129C117.833 18.6414 115.996 16.1166 113.114 13.0869C109.717 9.51675 106.484 7.73366 101.53 7.82957M89.7112 14.5306C89.7112 14.5306 86.3269 11.1558 85.1039 10.6641C83.8808 10.1725 81.0214 9.19882 80.6609 8.56438C80.3004 7.92994 79.5425 5.85641 81.0876 5.25349C82.6326 4.65056 86.6449 7.28476 87.7421 7.73937C88.8393 8.19398 92.3107 12.7838 92.3107 12.7838M89.7112 14.5306C90.6302 14.0741 91.4775 13.4589 92.3085 12.7855M101.53 7.82957C97.4342 7.90885 94.9549 10.6405 92.3107 12.7838M101.53 7.82957C97.433 7.90887 94.9536 10.642 92.3085 12.7855M92.3107 12.7838C92.31 12.7844 92.3092 12.7849 92.3085 12.7855" stroke="#23C38A" stroke-width="2" stroke-linecap="round"/>
</svg>
