<svg width="130" height="127" viewBox="0 0 130 127" fill="none" xmlns="http://www.w3.org/2000/svg">
<path d="M41.909 82.3013C41.909 82.3013 37.2721 78.9927 36.0719 74.7868C34.8718 70.5809 29.3621 50.1122 29.7985 45.2333C30.2349 40.3545 29.5257 36.6533 32.7988 33.7372C36.0719 30.8211 51.0737 25.1011 51.0737 25.1011H70.8214C70.8214 25.1011 88.9326 30.5407 92.4784 33.7372C96.0243 36.9337 96.1334 38.7843 95.9697 45.2333C95.8061 51.6824 92.4784 70.0201 91.7692 74.7868C91.0601 79.5534 87.4051 82.3013 87.4051 82.3013C87.4051 82.3013 75.4037 87.6848 64.657 87.797C53.9103 87.9092 41.909 82.3013 41.909 82.3013Z" fill="#F7E0D8" stroke="#D7AD9F" stroke-width="2"/>
<path d="M63.3629 5.30134C65.8178 5.30134 70.1005 2.26893 75.5825 0.815051C83.4721 -1.2773 89.5481 0.815661 95.9849 5.30134C102.422 9.78703 117.277 27.4063 125.77 43.6031C125.77 43.6031 131.062 54.0898 129.807 62.3333C128.553 70.5769 128.653 72.3301 122.933 76.9699C118.019 80.9568 111.042 77.7385 108.204 83.475C105.324 89.2987 111.791 93.2087 112.023 99.7378C112.366 109.416 106.622 124.973 105.75 123.683C104.877 122.394 105.99 117.733 104.004 114.879C102.289 112.414 100.483 111.648 97.7305 110.561C93.2757 108.802 90.0264 112.148 85.5109 110.561C79.8058 108.556 76.7591 105.359 74.2187 99.7378C72.7135 96.4072 72.5452 94.2054 72.3094 90.5409C72.2012 88.8583 71.873 87.737 72.3094 86.8958C72.7458 86.0546 86.7656 83.4189 89.7114 78.7644C92.6572 74.1099 94.6756 52.856 94.6756 52.856C94.6756 52.856 95.6754 44.7707 94.6756 45.9584C93.6856 47.1345 71.3391 36.6963 70.7918 35.6131C72.5004 40.6921 79.7273 44.8942 79.3466 45.9584C78.9651 47.0246 67.5259 43.2667 63.3629 37.4344C59.4282 43.0615 49.1791 46.6867 48.3612 45.9584C47.5433 45.2301 52.428 39.0739 53.7073 35.5838C45.6681 41.0377 30.6864 43.2666 30.4137 45.9584C30.1409 48.6501 30.887 50.1709 31.2865 52.856C32.8178 63.1472 35.2142 75.2314 38.7601 78.7644C42.306 82.2973 57.3622 86.8958 57.3622 86.8958C57.3622 86.8958 57.5145 88.8619 57.3622 90.5409C57.0226 94.2859 56.3211 96.4296 54.5801 99.7378C51.3299 105.914 43.3705 104.721 41.2695 111.402C40.0375 115.32 39.6323 118.187 41.2695 121.945C41.9047 123.403 42.6333 123.291 43.4515 125.366C44.2698 127.441 32.5786 126.062 28.7226 121.945L18.8487 111.402C14.9927 107.285 16.0006 107.271 15.8484 104.224C15.5729 98.7118 24.3568 98.2854 23.922 92.784C23.7314 90.3721 23.0196 89.039 21.74 87.0079C18.1076 81.2428 10.4407 85.4525 5.8654 80.4467C1.97264 76.1877 1.41076 72.3379 0.35567 66.5953C-1.27889 57.6989 3.24691 43.6031 3.24691 43.6031C3.24691 43.6031 7.21086 33.9811 10.8842 28.5179C17.0971 19.2776 21.963 14.692 31.2865 8.8343C37.9076 4.67443 41.8493 -0.0685886 49.5613 0.815051C55.7145 1.52007 60.9081 5.30134 63.3629 5.30134Z" fill="#060698"/>
<path d="M21.5796 48.0513L23.7815 67.2091C23.7815 67.2091 10.2236 67.9549 9.14853 60.3154C8.07347 52.6759 21.5796 48.0513 21.5796 48.0513Z" fill="#F7E0D8"/>
<path d="M104.216 48.0513L102.015 67.2091C102.015 67.2091 115.572 67.9549 116.647 60.3154C117.723 52.6759 104.216 48.0513 104.216 48.0513Z" fill="#F7E0D8"/>
<path d="M57 75C63.1451 79.2067 66.5157 78.7869 72 75" stroke="#D7AD9F" stroke-width="2" stroke-linecap="round"/>
<circle cx="43.2195" cy="70.6859" r="4.97789" fill="#FF82BE"/>
<path d="M60 69.2837C61.7457 65.9117 66.7099 66.5844 68.0737 69.2837" stroke="#D7AD9F" stroke-width="2" stroke-linecap="round"/>
<circle cx="83.144" cy="70.6859" r="4.97789" fill="#FF82BE"/>
<path d="M91.7789 51.8485C91.9775 51.6312 87.7897 53.5274 87.5239 53.1384C87.9603 53.6989 88.6149 54.7086 88.6149 54.7086C88.6149 54.7086 91.5803 52.0659 91.7789 51.8485Z" fill="#060698"/>
<path d="M87.5239 53.1384L88.3129 52.5241L88.2663 52.4642L88.2112 52.4121L87.5239 53.1384ZM78.8501 49.998L78.8716 50.9977L78.8501 49.998ZM69.1732 52.3548C68.7405 52.698 68.6679 53.327 69.011 53.7597C69.3542 54.1924 69.9832 54.2651 70.4159 53.9219L69.7946 53.1384L69.1732 52.3548ZM91.7789 51.8485L91.0408 51.1739L91.0408 51.1739L91.7789 51.8485ZM88.6149 54.7086L87.7758 55.2526L88.41 56.2306L89.2802 55.4551L88.6149 54.7086ZM87.5239 53.1384C88.2112 52.4121 88.211 52.4118 88.2107 52.4115C88.2105 52.4114 88.2102 52.4111 88.21 52.4109C88.2095 52.4104 88.209 52.4099 88.2084 52.4094C88.2072 52.4083 88.2059 52.407 88.2043 52.4055C88.2011 52.4025 88.1971 52.3988 88.1922 52.3943C88.1824 52.3853 88.1693 52.3732 88.1528 52.3584C88.1199 52.3288 88.0735 52.2879 88.0142 52.2374C87.8957 52.1365 87.725 51.9969 87.5053 51.832C87.0664 51.5027 86.4286 51.0698 85.6177 50.6418C83.9984 49.7869 81.6615 48.9375 78.8287 48.9982L78.8501 49.998L78.8716 50.9977C81.2758 50.9462 83.2757 51.667 84.684 52.4104C85.3869 52.7815 85.9357 53.1547 86.3049 53.4317C86.4892 53.57 86.6278 53.6837 86.7177 53.7602C86.7626 53.7985 86.7952 53.8273 86.8152 53.8453C86.8252 53.8543 86.832 53.8605 86.8355 53.8638C86.8373 53.8654 86.8383 53.8664 86.8385 53.8665C86.8385 53.8666 86.8384 53.8665 86.8381 53.8662C86.8379 53.866 86.8377 53.8658 86.8374 53.8656C86.8373 53.8654 86.8371 53.8652 86.837 53.8651C86.8368 53.8649 86.8365 53.8647 87.5239 53.1384ZM78.8501 49.998L78.8287 48.9982C76.0262 49.0582 73.6201 49.8968 71.9264 50.7084C71.0769 51.1154 70.3982 51.5196 69.9284 51.8248C69.6932 51.9775 69.5096 52.1059 69.3823 52.1981C69.3187 52.2442 69.269 52.2813 69.234 52.3079C69.2165 52.3212 69.2026 52.3319 69.1924 52.3398C69.1874 52.3437 69.1832 52.3469 69.18 52.3495C69.1784 52.3507 69.177 52.3518 69.1759 52.3527C69.1753 52.3531 69.1748 52.3535 69.1744 52.3539C69.1741 52.3541 69.1739 52.3543 69.1737 52.3544C69.1735 52.3546 69.1732 52.3548 69.7946 53.1384C70.4159 53.9219 70.4157 53.9221 70.4155 53.9222C70.4154 53.9223 70.4152 53.9225 70.4151 53.9225C70.4149 53.9227 70.4147 53.9228 70.4146 53.9229C70.4144 53.9231 70.4144 53.9231 70.4147 53.9229C70.4152 53.9225 70.4166 53.9214 70.4189 53.9196C70.4235 53.916 70.4317 53.9097 70.4434 53.9008C70.4669 53.8829 70.5044 53.8549 70.5554 53.8179C70.6574 53.7441 70.8131 53.635 71.0177 53.5021C71.4275 53.2359 72.0308 52.8761 72.7906 52.512C74.3154 51.7814 76.4371 51.0499 78.8716 50.9977L78.8501 49.998ZM87.5239 53.1384L86.6982 53.7025C86.9444 54.0627 87.3095 54.148 87.4533 54.172C87.6244 54.2005 87.7832 54.1917 87.8924 54.1806C88.1186 54.1576 88.369 54.0976 88.5987 54.0333C89.0708 53.9009 89.6479 53.6937 90.1786 53.4934C90.699 53.297 91.2519 53.0774 91.5926 52.9471C91.7798 52.8754 91.9015 52.8312 91.9648 52.8112C92.0242 52.7925 91.9616 52.8176 91.8599 52.8271C91.8295 52.83 91.7429 52.8371 91.6319 52.8206C91.5613 52.8101 91.2284 52.7575 90.9861 52.4357C90.6857 52.0368 90.7941 51.6178 90.8622 51.4548C90.9271 51.2992 91.0158 51.2013 91.0408 51.1739L91.7789 51.8485L92.5171 52.5232C92.5483 52.489 92.641 52.3854 92.7079 52.225C92.7779 52.0572 92.8863 51.6345 92.5838 51.2327C92.3394 50.9081 92.0023 50.8537 91.9257 50.8423C91.8086 50.8249 91.714 50.8321 91.6736 50.8358C91.5322 50.8491 91.3999 50.8923 91.3632 50.9038C91.2345 50.9444 91.0595 51.0096 90.8779 51.0791C90.4809 51.231 90.0074 51.4204 89.4725 51.6222C88.9478 51.8202 88.4405 52.0005 88.0589 52.1075C87.8617 52.1628 87.7429 52.1855 87.69 52.1908C87.6596 52.1939 87.7013 52.1858 87.782 52.1992C87.8353 52.2081 88.1366 52.2626 88.3495 52.5742L87.5239 53.1384ZM91.7789 51.8485L91.0408 51.1739C91.0499 51.1639 91.0175 51.1969 90.905 51.3015C90.8088 51.3909 90.6798 51.5091 90.5278 51.6474C90.2243 51.9235 89.837 52.2725 89.4544 52.6159C89.0721 52.9591 88.6959 53.2957 88.4151 53.5465C88.2747 53.6719 88.1583 53.7758 88.077 53.8484C88.0363 53.8847 88.0045 53.9131 87.9827 53.9324C87.9719 53.9421 87.9636 53.9495 87.958 53.9545C87.9552 53.957 87.9531 53.9589 87.9517 53.9601C87.951 53.9608 87.9505 53.9612 87.9501 53.9615C87.9499 53.9617 87.9498 53.9618 87.9497 53.9619C87.9497 53.9619 87.9496 53.962 87.9496 53.962C87.9496 53.962 87.9496 53.962 88.6149 54.7086C89.2802 55.4551 89.2802 55.4551 89.2803 55.4551C89.2803 55.4551 89.2803 55.455 89.2804 55.455C89.2805 55.4549 89.2806 55.4548 89.2808 55.4546C89.2812 55.4543 89.2817 55.4538 89.2824 55.4532C89.2839 55.4519 89.286 55.45 89.2888 55.4474C89.2945 55.4424 89.3028 55.435 89.3138 55.4252C89.3356 55.4058 89.3676 55.3772 89.4084 55.3408C89.4901 55.268 89.6068 55.1637 89.7476 55.038C90.0291 54.7865 90.4066 54.4488 90.7905 54.1042C91.174 53.7598 91.5653 53.4074 91.8737 53.1268C92.1542 52.8716 92.4271 52.6216 92.5171 52.5232L91.7789 51.8485ZM88.6149 54.7086C89.454 54.1645 89.454 54.1645 89.4539 54.1645C89.4539 54.1645 89.4539 54.1644 89.4539 54.1644C89.4538 54.1643 89.4538 54.1643 89.4537 54.1642C89.4536 54.164 89.4535 54.1638 89.4533 54.1635C89.4529 54.1629 89.4523 54.162 89.4516 54.1609C89.4502 54.1588 89.4482 54.1557 89.4456 54.1517C89.4404 54.1436 89.4328 54.132 89.4231 54.1171C89.4036 54.0874 89.3756 54.0446 89.3406 53.9916C89.2708 53.8857 89.1731 53.7385 89.0613 53.5733C88.8416 53.2487 88.5531 52.8325 88.3129 52.5241L87.5239 53.1384L86.7348 53.7527C86.9311 54.0048 87.188 54.3737 87.4048 54.6941C87.5112 54.8513 87.6044 54.9916 87.671 55.0925C87.7042 55.143 87.7307 55.1834 87.7488 55.211C87.7578 55.2249 87.7647 55.2355 87.7693 55.2425C87.7716 55.246 87.7733 55.2487 87.7744 55.2504C87.7749 55.2512 87.7753 55.2518 87.7756 55.2522C87.7757 55.2524 87.7758 55.2525 87.7758 55.2526C87.7759 55.2526 87.7759 55.2526 87.7759 55.2526C87.7759 55.2526 87.7759 55.2526 87.7759 55.2526C87.7759 55.2526 87.7758 55.2526 88.6149 54.7086Z" fill="#060698"/>
<path d="M45.3356 50.8051C47.0684 53.3111 47.4837 56.862 45.3356 58.4316C43.1875 60.0013 40.2062 60.9376 38.4734 58.4316C36.7406 55.9256 35.5211 54.7764 37.6692 53.2067C39.8174 51.6371 44.511 49.6126 45.3356 50.8051Z" fill="#060698"/>
<path d="M78.6495 51.2187C79.7574 54.0746 79.3449 57.6258 76.8968 58.6293C74.4488 59.6329 71.3367 59.8186 70.2289 56.9628C69.1211 54.1069 68.2002 52.694 70.6483 51.6905C73.0963 50.6869 78.1224 49.8597 78.6495 51.2187Z" fill="#060698"/>
<path d="M37.7254 53.136C37.7591 53.1321 37.7717 53.1179 37.7598 53.0915C37.7485 53.106 37.737 53.1209 37.7254 53.136C37.3064 53.1841 33.6288 51.6224 33.5048 51.8017C33.3708 51.9954 36.6688 54.6617 36.6688 54.6617C36.6688 54.6617 37.2899 53.7038 37.7254 53.136Z" fill="#060698"/>
<path d="M37.7598 53.0915L36.9708 52.4772L37.0174 52.4173L37.0724 52.3652L37.7598 53.0915ZM46.4335 49.9511L46.455 48.9513L46.4335 49.9511ZM56.1105 52.308C56.5432 52.6511 56.6158 53.2801 56.2727 53.7128C55.9295 54.1456 55.3005 54.2182 54.8678 53.875L55.4891 53.0915L56.1105 52.308ZM33.5048 51.8017L32.6824 51.2328L32.6824 51.2328L33.5048 51.8017ZM36.6688 54.6617L37.5079 55.2057L36.9037 56.1375L36.0401 55.4393L36.6688 54.6617ZM37.7598 53.0915C37.0724 52.3652 37.0727 52.3649 37.073 52.3646C37.0732 52.3645 37.0735 52.3642 37.0737 52.364C37.0742 52.3635 37.0747 52.363 37.0753 52.3625C37.0765 52.3614 37.0778 52.3601 37.0794 52.3586C37.0826 52.3556 37.0866 52.3519 37.0915 52.3474C37.1013 52.3384 37.1144 52.3264 37.1309 52.3115C37.1638 52.2819 37.2102 52.241 37.2695 52.1905C37.388 52.0896 37.5587 51.95 37.7784 51.7852C38.2173 51.4558 38.855 51.023 39.666 50.5949C41.2853 49.7401 43.6222 48.8906 46.455 48.9513L46.4335 49.9511L46.4121 50.9508C44.0079 50.8994 42.008 51.6201 40.5997 52.3636C39.8968 52.7346 39.348 53.1079 38.9788 53.3849C38.7945 53.5232 38.6558 53.6368 38.566 53.7134C38.5211 53.7516 38.4885 53.7805 38.4685 53.7984C38.4585 53.8074 38.4517 53.8136 38.4482 53.8169C38.4464 53.8186 38.4454 53.8195 38.4452 53.8196C38.4452 53.8197 38.4453 53.8196 38.4456 53.8193C38.4458 53.8191 38.446 53.8189 38.4462 53.8187C38.4464 53.8186 38.4466 53.8183 38.4467 53.8183C38.4469 53.818 38.4472 53.8178 37.7598 53.0915ZM46.4335 49.9511L46.455 48.9513C49.2575 49.0113 51.6636 49.85 53.3573 50.6615C54.2068 51.0686 54.8855 51.4728 55.3553 51.7779C55.5905 51.9307 55.7741 52.059 55.9014 52.1512C55.965 52.1973 56.0147 52.2344 56.0497 52.261C56.0672 52.2743 56.0811 52.285 56.0912 52.2929C56.0963 52.2968 56.1005 52.3001 56.1037 52.3026C56.1053 52.3038 56.1067 52.3049 56.1078 52.3058C56.1084 52.3063 56.1089 52.3067 56.1093 52.307C56.1095 52.3072 56.1098 52.3074 56.1099 52.3075C56.1102 52.3077 56.1105 52.308 55.4891 53.0915C54.8678 53.875 54.868 53.8752 54.8682 53.8754C54.8683 53.8754 54.8685 53.8756 54.8686 53.8757C54.8688 53.8758 54.869 53.876 54.8691 53.876C54.8693 53.8762 54.8693 53.8762 54.869 53.876C54.8685 53.8756 54.8671 53.8745 54.8648 53.8727C54.8602 53.8691 54.852 53.8628 54.8402 53.8539C54.8168 53.8361 54.7793 53.808 54.7283 53.7711C54.6263 53.6972 54.4706 53.5881 54.266 53.4552C53.8562 53.1891 53.2529 52.8292 52.4931 52.4652C50.9683 51.7346 48.8466 51.003 46.4121 50.9508L46.4335 49.9511ZM37.7598 53.0915L38.6711 52.6796C38.7483 52.8506 38.8857 53.3157 38.5405 53.747C38.2746 54.0793 37.9132 54.121 37.8395 54.1295L37.7254 53.136L37.6114 52.1425C37.5714 52.1471 37.2331 52.1798 36.979 52.4973C36.6455 52.914 36.7832 53.3588 36.8486 53.5034L37.7598 53.0915ZM37.7254 53.136L37.8395 54.1295C37.6623 54.1498 37.5043 54.1236 37.4379 54.112C37.3475 54.0962 37.2552 54.0739 37.1701 54.051C36.9985 54.0051 36.7966 53.9408 36.5869 53.8701C36.166 53.7281 35.6485 53.5376 35.1602 53.3585C34.6616 53.1757 34.1954 53.0056 33.8472 52.8919C33.669 52.8337 33.5504 52.7998 33.4853 52.7852C33.4466 52.7765 33.4676 52.784 33.5215 52.7866C33.5453 52.7877 33.6289 52.791 33.7389 52.7671C33.8259 52.7482 34.1183 52.6725 34.3272 52.3705L33.5048 51.8017L32.6824 51.2328C32.899 50.9196 33.2061 50.8362 33.3143 50.8127C33.4455 50.7841 33.5569 50.786 33.6146 50.7887C33.7361 50.7944 33.8493 50.8171 33.9238 50.8338C34.0852 50.8701 34.2775 50.9284 34.4681 50.9907C34.8574 51.1178 35.36 51.3016 35.8487 51.4808C36.3477 51.6637 36.836 51.8434 37.2263 51.975C37.4223 52.0412 37.5773 52.0896 37.6876 52.1192C37.7434 52.1341 37.7732 52.1402 37.7828 52.1419C37.8164 52.1478 37.7362 52.1282 37.6114 52.1425L37.7254 53.136ZM33.5048 51.8017L34.3272 52.3705C34.5478 52.0516 34.5046 51.7319 34.4796 51.6163C34.4523 51.4893 34.4056 51.4037 34.392 51.3793C34.3611 51.3238 34.3398 51.3037 34.3657 51.3343C34.4077 51.384 34.4944 51.4745 34.6332 51.607C34.9031 51.8646 35.2858 52.2017 35.6865 52.5443C36.084 52.8843 36.487 53.2194 36.7914 53.4702C36.9434 53.5954 37.0703 53.6992 37.1591 53.7716C37.2035 53.8078 37.2383 53.836 37.2619 53.8552C37.2737 53.8648 37.2827 53.8721 37.2887 53.8769C37.2917 53.8794 37.294 53.8812 37.2954 53.8824C37.2962 53.883 37.2967 53.8834 37.2971 53.8837C37.2972 53.8838 37.2973 53.8839 37.2974 53.884C37.2975 53.884 37.2975 53.884 37.2975 53.884C37.2975 53.884 37.2975 53.884 36.6688 54.6617C36.0401 55.4393 36.0401 55.4393 36.04 55.4393C36.04 55.4392 36.0399 55.4392 36.0399 55.4391C36.0397 55.439 36.0395 55.4389 36.0393 55.4387C36.0389 55.4383 36.0382 55.4378 36.0374 55.4371C36.0357 55.4357 36.0332 55.4337 36.0299 55.4311C36.0235 55.4259 36.014 55.4182 36.0016 55.4082C35.977 55.3882 35.9411 55.359 35.8956 55.3219C35.8045 55.2477 35.6748 55.1416 35.5197 55.0139C35.21 54.7587 34.7968 54.4151 34.3866 54.0643C33.9795 53.7162 33.5629 53.3503 33.2521 53.0536C33.1006 52.9089 32.9515 52.7593 32.8388 52.626C32.7874 52.5652 32.709 52.468 32.6445 52.3521C32.6141 52.2975 32.5565 52.186 32.5245 52.0375C32.495 51.9005 32.4534 51.5639 32.6824 51.2328L33.5048 51.8017ZM36.6688 54.6617C35.8297 54.1176 35.8297 54.1176 35.8298 54.1176C35.8298 54.1176 35.8298 54.1176 35.8298 54.1175C35.8298 54.1175 35.8299 54.1174 35.8299 54.1173C35.8301 54.1171 35.8302 54.1169 35.8304 54.1166C35.8308 54.1161 35.8313 54.1152 35.8319 54.1142C35.8333 54.1122 35.8352 54.1092 35.8377 54.1054C35.8426 54.0978 35.8499 54.0867 35.8591 54.0725C35.8776 54.0442 35.9043 54.0034 35.9377 53.9528C36.0043 53.8518 36.0977 53.711 36.2051 53.552C36.4167 53.2387 36.6949 52.8364 36.932 52.5273L37.7254 53.136L38.5189 53.7446C38.3204 54.0033 38.0703 54.3638 37.8624 54.6715C37.7602 54.8229 37.6711 54.9571 37.6076 55.0534C37.5759 55.1015 37.5507 55.14 37.5335 55.1663C37.525 55.1794 37.5184 55.1895 37.514 55.1962C37.5119 55.1995 37.5103 55.202 37.5092 55.2036C37.5087 55.2044 37.5083 55.205 37.5081 55.2053C37.508 55.2055 37.5079 55.2056 37.5079 55.2057C37.5078 55.2057 37.5078 55.2058 37.5078 55.2058C37.5078 55.2058 37.5078 55.2057 37.5078 55.2057C37.5078 55.2057 37.5079 55.2057 36.6688 54.6617ZM37.7254 53.136L36.932 52.5273C36.9449 52.5105 36.9579 52.4937 36.9708 52.4772L37.7598 53.0915L38.5489 53.7058C38.5392 53.7183 38.5291 53.7312 38.5189 53.7447L37.7254 53.136Z" fill="#060698"/>
<path d="M70.7906 45.1368C70.7906 45.1368 76.3997 42.8874 80.0001 42.9995C83.6005 43.1117 87.0471 45.1368 87.0471 45.1368" stroke="#161648" stroke-width="2" stroke-linecap="round"/>
<path d="M112.748 23.0739C111.727 25.2423 109.173 27.9527 107.131 27.9527H103.045H93.8524L97.4273 19.984L98.9594 16.5688C98.9594 16.5688 101.002 11.6899 105.088 11.6899H117.855C117.855 11.6899 113.77 20.9055 112.748 23.0739Z" fill="#6088E4"/>
<path d="M93.8524 27.9527C93.8524 27.9527 99.0739 27.9527 103.045 27.9527M93.8524 27.9527H103.045M93.8524 27.9527L97.4273 19.984M103.045 27.9527C104.899 27.9527 106.48 27.9527 107.131 27.9527C109.173 27.9527 111.727 25.2423 112.748 23.0739C113.77 20.9055 117.855 11.6899 117.855 11.6899C117.855 11.6899 109.173 11.6899 105.088 11.6899C101.002 11.6899 98.9594 16.5688 98.9594 16.5688L97.4273 19.984M103.045 27.9527C103.045 27.9527 106.62 25.0796 107.641 22.5318C108.663 19.984 110.195 16.5688 110.195 16.5688C110.195 16.5688 105.088 16.5688 103.045 16.5688C101.002 16.5688 97.4273 19.984 97.4273 19.984" stroke="#1919EF" stroke-width="2" stroke-linecap="round"/>
<path d="M16.9115 23.0739C17.9328 25.2423 20.4863 27.9527 22.5291 27.9527H26.6147H35.8073L32.2324 19.984L30.7003 16.5688C30.7003 16.5688 28.6575 11.6899 24.5719 11.6899H11.8045C11.8045 11.6899 15.8901 20.9055 16.9115 23.0739Z" fill="#6088E4"/>
<path d="M35.8073 27.9527C35.8073 27.9527 30.5857 27.9527 26.6147 27.9527M35.8073 27.9527H26.6147M35.8073 27.9527L32.2324 19.984M26.6147 27.9527C24.7607 27.9527 23.1793 27.9527 22.5291 27.9527C20.4863 27.9527 17.9329 25.2423 16.9115 23.0739C15.8901 20.9055 11.8045 11.6899 11.8045 11.6899C11.8045 11.6899 20.4863 11.6899 24.5719 11.6899C28.6575 11.6899 30.7003 16.5688 30.7003 16.5688L32.2324 19.984M26.6147 27.9527C26.6147 27.9527 23.0398 25.0796 22.0184 22.5318C20.997 19.984 19.4649 16.5688 19.4649 16.5688C19.4649 16.5688 24.5719 16.5688 26.6147 16.5688C28.6575 16.5688 32.2324 19.984 32.2324 19.984" stroke="#1919EF" stroke-width="2" stroke-linecap="round"/>
<path d="M105.739 63.7357C105.739 63.7357 112.637 63.4533 113.13 59.688C113.622 55.9227 107.491 53.1929 107.491 53.1929" stroke="#D7AD9F" stroke-width="2" stroke-linecap="round"/>
<path d="M19.2318 63.7357C19.2318 63.7357 12.3337 63.4533 11.841 59.688C11.3482 55.9227 17.4799 53.1929 17.4799 53.1929" stroke="#D7AD9F" stroke-width="2" stroke-linecap="round"/>
<path d="M52.5198 45.1368C52.5198 45.1368 48.1004 42.8874 44.5 42.9995C40.8996 43.1117 36.2634 45.1368 36.2634 45.1368" stroke="#161648" stroke-width="2" stroke-linecap="round"/>
</svg>
