<svg width="51" height="42" viewBox="0 0 51 42" fill="none" xmlns="http://www.w3.org/2000/svg">
<path d="M21.8411 11.015C22.7601 10.5585 23.6074 9.94332 24.4384 9.26991C24.4391 9.26932 24.4398 9.26873 24.4406 9.26815C24.4406 9.26815 20.9692 4.67835 19.872 4.22374C18.7748 3.76913 14.7625 1.13493 13.2175 1.73786C11.6724 2.34079 12.4303 4.41431 12.7908 5.04875C13.1512 5.6832 16.0107 6.65688 17.2338 7.14852C18.4568 7.64015 21.8411 11.015 21.8411 11.015Z" fill="#3CFFB9"/>
<path d="M24.4384 9.26991C23.6074 9.94332 22.7601 10.5585 21.8411 11.015C17.997 12.9242 13.9678 9.37135 9.81597 11.4433C5.49125 13.6014 3.71993 16.5981 2.44183 21.1696C0.685501 27.4516 1.22339 33.5406 6.67141 37.4808C10.7717 40.4463 14.6481 40.4618 19.5446 39.2845C24.8612 38.0061 25.6388 33.2942 30.4978 30.8751C35.8087 28.231 41.0483 31.0857 45.3043 27.0355C47.8584 24.6048 49.4021 22.6893 49.6612 19.1973C49.9633 15.1257 48.1258 12.601 45.2434 9.57129C41.8469 6.00112 38.6141 4.21804 33.6596 4.31394C29.564 4.39322 27.0848 7.12491 24.4406 9.26815C24.4398 9.26873 24.4391 9.26932 24.4384 9.26991Z" fill="#3CFFB9"/>
<path d="M21.8411 11.015C17.997 12.9242 13.9678 9.37135 9.81597 11.4433C5.49125 13.6014 3.71993 16.5981 2.44183 21.1696C0.685501 27.4516 1.22339 33.5406 6.67141 37.4808C10.7717 40.4463 14.6481 40.4618 19.5446 39.2845C24.8612 38.0061 25.6388 33.2942 30.4978 30.8751C35.8087 28.231 41.0483 31.0857 45.3043 27.0355C47.8584 24.6048 49.4021 22.6893 49.6612 19.1973C49.9633 15.1257 48.1258 12.601 45.2434 9.57129C41.8469 6.00112 38.6141 4.21804 33.6596 4.31394M21.8411 11.015C21.8411 11.015 18.4568 7.64015 17.2338 7.14852C16.0107 6.65688 13.1512 5.6832 12.7908 5.04875C12.4303 4.41431 11.6724 2.34079 13.2175 1.73786C14.7625 1.13493 18.7748 3.76913 19.872 4.22374C20.9692 4.67835 24.4406 9.26815 24.4406 9.26815M21.8411 11.015C22.7601 10.5585 23.6074 9.94332 24.4384 9.26991M33.6596 4.31394C29.564 4.39322 27.0848 7.12492 24.4406 9.26815M33.6596 4.31394C29.5629 4.39324 27.0835 7.12641 24.4384 9.26991M24.4406 9.26815C24.4398 9.26873 24.4391 9.26932 24.4384 9.26991" stroke="#23C38A" stroke-width="2" stroke-linecap="round"/>
</svg>
