<svg width="76" height="26" viewBox="0 0 76 26" fill="none" xmlns="http://www.w3.org/2000/svg">
<path d="M35.9872 13.5218C35.2079 13.5626 34.988 13.5219 33.9888 13.5218C32.1953 13.5215 26.8026 8.74154 21.6654 6.86051C17.3993 5.2984 14.8633 4.63291 10.3413 4.196C7.10459 3.88327 1.68165 3.19697 2.01465 4.196C2.34764 5.19502 6.67755 7.85971 6.67755 7.85971C6.67755 7.85971 9.67513 21.5153 18.6679 22.5145C27.6606 23.5137 32.3235 17.5186 33.9888 17.5186H35.9872C38.3187 17.5186 43.6477 26.1783 55.9711 23.5137C68.2945 20.8492 70.959 7.85971 70.959 6.86051C70.959 5.86132 73.2904 4.19591 73.9566 2.53067C74.6227 0.865442 67.4685 3.59737 63.2985 4.196C58.2362 4.92272 55.2102 4.40074 50.309 5.86132C44.2303 7.67277 42.3214 13.1902 35.9872 13.5218Z" fill="#D6E0F9" stroke="#D6E0F9" stroke-width="3" stroke-linecap="round"/>
<path d="M46.6823 20.183C43.3 19.652 42.3154 16.4243 42.3154 15.4846C42.3154 14.545 45.3408 11.8401 47.9488 10.4733C51.3868 8.67148 53.9488 9.62176 57.764 8.90723C61.506 8.20642 66.662 6.23397 67.2953 6.8604C67.9285 7.48683 65.1105 12.9314 62.5133 15.4847L62.4304 15.5662C60.0463 17.9104 57.735 20.183 55.2311 20.183C52.6981 20.183 50.0647 20.7139 46.6823 20.183Z" fill="black" stroke="black" stroke-width="2" stroke-linecap="round"/>
<path d="M25.512 18.8469C25.512 18.8469 28.9228 17.1066 28.993 15.1148C29.0756 12.7728 25.6887 11.6083 24.5025 11.1342C23.3163 10.6601 19.6962 10.5728 16.6786 9.89022C13.9012 9.26195 10.18 7.3629 9.67525 7.86049C9.17048 8.35808 10.8225 13.0868 12.8928 15.1149C14.8166 16.9996 16.1105 18.0922 18.6977 18.8469C21.2524 19.5921 25.512 18.8469 25.512 18.8469Z" fill="black" stroke="black" stroke-width="2" stroke-linecap="round"/>
</svg>
