<svg width="44" height="44" viewBox="0 0 44 44" fill="none" xmlns="http://www.w3.org/2000/svg">
<path d="M42.828 3.88453C43.4161 5.28336 42.3215 6.20333 42.1466 7.71121C41.8144 10.574 42.1466 15.0912 42.1466 15.0912C42.1466 15.0912 42.1466 17.2779 40.1022 17.2779C39.0346 17.2779 36.5311 17.1636 33.5602 16.5885C38.9433 24.8653 43.7517 37.7346 42.828 38.3246C41.9043 38.9146 34.2416 36.6846 34.2416 36.6846C34.2416 36.6846 28.2447 43.1081 27.6996 42.9713C27.1545 42.8345 24.0197 13.5879 24.0197 13.5879H19.7947C19.7947 13.5879 17.6143 44.0645 16.1149 42.9713C14.6155 41.8781 9.43658 36.0012 9.43658 36.0012C9.43658 36.0012 2.40332 39.6961 1.12278 38.3246C-0.0945455 37.0208 8.10378 18.0519 9.65914 16.8906C7.8671 17.1908 5.92388 17.3259 3.57598 17.2779C3.57598 17.2779 1.6679 16.1847 1.6679 15.0912C1.6679 13.9978 2.2242 10.5939 2.07677 7.71121C2.00001 6.21022 1.01951 5.23958 1.6679 3.88453C2.2621 2.64272 3.30235 2.4523 4.53003 1.83453C10.1412 -0.989078 19.7947 6.8912 19.7947 6.8912H24.9738C24.9738 6.8912 35.1595 -1.64714 40.5111 1.83453C41.5234 2.49312 42.3593 2.76954 42.828 3.88453Z" fill="#FF82BE"/>
<path d="M24.9738 6.8912C24.9738 6.8912 35.1595 -1.64714 40.5111 1.83453C41.5234 2.49312 42.3593 2.76954 42.828 3.88453C43.4161 5.28336 42.3215 6.20333 42.1466 7.71121C41.8144 10.574 42.1466 15.0912 42.1466 15.0912C42.1466 15.0912 42.1466 17.2779 40.1022 17.2779C39.0346 17.2779 36.5311 17.1636 33.5602 16.5885M24.9738 6.8912V13.5879M24.9738 6.8912H19.7947M24.9738 13.5879H24.0197M24.9738 13.5879C27.7328 15.1506 30.8422 16.0624 33.5602 16.5885M19.7947 13.5879V6.8912M19.7947 13.5879H24.0197M19.7947 13.5879C19.7947 13.5879 17.6143 44.0645 16.1149 42.9713C14.6155 41.8781 9.43658 36.0012 9.43658 36.0012C9.43658 36.0012 2.40332 39.6961 1.12278 38.3246C-0.157759 36.9531 8.98063 16.0342 9.84545 16.8587M19.7947 13.5879C15.9112 15.1587 13.1185 16.2862 9.84545 16.8587M19.7947 6.8912C19.7947 6.8912 10.1412 -0.989078 4.53002 1.83453C3.30235 2.4523 2.2621 2.64272 1.6679 3.88453C1.01951 5.23958 2.00001 6.21022 2.07677 7.71121C2.2242 10.5939 1.6679 13.9978 1.6679 15.0912C1.6679 16.1847 3.57598 17.2779 3.57598 17.2779C6.00548 17.3275 8.00168 17.1812 9.84545 16.8587M24.0197 13.5879C24.0197 13.5879 27.1545 42.8345 27.6996 42.9713C28.2447 43.1081 34.2416 36.6846 34.2416 36.6846C34.2416 36.6846 41.9043 38.9146 42.828 38.3246C43.7517 37.7346 38.9433 24.8653 33.5602 16.5885" stroke="#F2509E" stroke-linecap="round"/>
</svg>
