<svg width="35" height="35" viewBox="0 0 35 35" fill="none" xmlns="http://www.w3.org/2000/svg">
<path d="M20.9001 31.6426C28.6805 29.7955 33.4903 21.9909 31.6431 14.2105C29.796 6.43018 21.9914 1.62035 14.2111 3.46748C6.43072 5.31461 1.6209 13.1192 3.46803 20.8996C5.31516 28.6799 13.1198 33.4897 20.9001 31.6426Z" fill="#1919EF" stroke="black" stroke-width="0.9776" stroke-miterlimit="10"/>
<path d="M24.6095 26.4972C29.5552 22.5827 30.3912 15.4001 26.4768 10.4543C22.5623 5.50858 15.3797 4.67254 10.4339 8.58702C5.48813 12.5015 4.6521 19.6841 8.56658 24.6299C12.4811 29.5757 19.6637 30.4117 24.6095 26.4972Z" fill="#1919EF" stroke="#DEE1EE" stroke-width="0.5808" stroke-miterlimit="10"/>
<path d="M23.4359 14.7276L16.3363 23.9857L13.2143 21.5922L18.5091 14.6874L16.9218 13.4706L18.7265 11.1172L23.4359 14.7276Z" fill="#1919EF" stroke="#DEE1EE" stroke-width="0.5808" stroke-miterlimit="10"/>
</svg>
