<svg width="360" height="642" viewBox="0 0 360 642" fill="none" xmlns="http://www.w3.org/2000/svg">
<path d="M75.8579 78L266.499 109C266.499 109 301.302 117.884 301.302 179.5C301.302 241.116 247.881 240.707 247.881 240.707L116.416 224.827C116.416 224.827 75.858 210.222 75.8579 290.5C75.8578 370.778 105.49 346.531 124.999 350.943C144.507 355.355 232.967 350.943 232.967 350.943C232.967 350.943 301.302 335.057 301.302 401.007C301.302 466.957 232.967 464.067 232.967 464.067C232.967 464.067 95.4718 438.312 67 511C38.5282 583.688 220.999 590 220.999 590" stroke="#D6E0F9" stroke-width="60" stroke-linecap="round"/>
<rect x="24.5" y="19.5" width="105" height="105" rx="52.5" fill="#6088E4"/>
<rect x="24.5" y="19.5" width="105" height="105" rx="52.5" stroke="#BDCEFA" stroke-width="5"/>
<path d="M73.0143 93L79.6703 63.24C77.8143 63.816 75.7663 64.136 73.4623 64.136H66.3583L68.2143 55.432H74.8063C79.4783 55.432 81.6543 54.088 82.3583 51.016H92.0863L82.7423 93H73.0143Z" fill="white"/>
<rect x="218" y="72" width="110" height="110" rx="55" fill="#6088E4"/>
<rect x="218" y="72" width="110" height="110" rx="55" stroke="#BDCEFA" stroke-width="5"/>
<path d="M249.74 148L251.468 140.448L275.212 128.608C283.468 124.448 285.132 123.04 285.58 119.968L285.708 119.392C286.284 115.616 283.084 113.44 276.876 113.44C270.54 113.44 266.764 115.68 265.804 120.032L265.484 121.312H255.884L256.204 119.968C258.316 110.048 265.164 105.248 277.132 105.248C289.42 105.248 296.652 111.136 295.244 119.776L295.116 120.48C294.284 125.984 290.188 129.888 279.564 135.264L269.772 140.064H291.916L290.188 148H249.74Z" fill="white"/>
<rect x="27" y="182" width="110" height="110" rx="55" fill="#6088E4"/>
<rect x="27" y="182" width="110" height="110" rx="55" stroke="#BDCEFA" stroke-width="5"/>
<path d="M80.3348 258.768C65.9348 258.704 58.3828 253.264 60.1108 244.24L60.1748 243.92H69.7748L69.7108 244.24C68.8148 248.272 72.6548 250.448 80.6548 250.448C88.1428 250.448 92.0468 248.848 92.7508 245.52L92.9428 244.752C93.5828 241.552 90.1268 239.888 82.4468 239.888H74.6388L76.2388 232.528L91.0228 224.208H65.3588L67.1508 216.016H108.047L106.255 224.208L90.0628 232.976C99.0868 234.192 103.695 238.992 102.223 245.904L102.095 246.608C100.559 254.736 93.3908 258.768 80.3348 258.768Z" fill="white"/>
<rect x="218" y="280" width="110" height="110" rx="55" fill="#6088E4"/>
<rect x="218" y="280" width="110" height="110" rx="55" stroke="#BDCEFA" stroke-width="5"/>
<path d="M248.666 338.976C256.538 329.888 261.53 322.4 265.626 314.016H275.93L275.61 315.488C271.77 323.104 266.586 330.976 260.058 338.976H278.874L282.842 321.312H292.57L288.602 338.976H298.074L296.218 347.488H286.746L284.826 356H275.098L277.018 347.488H246.81L248.666 338.976Z" fill="white"/>
<rect x="29" y="422" width="110" height="110" rx="55" fill="#6088E4"/>
<rect x="29" y="422" width="110" height="110" rx="55" stroke="#BDCEFA" stroke-width="5"/>
<path d="M82.375 498.768C68.231 498.768 60.487 493.904 61.959 486.032L62.087 485.584H71.751L71.623 486.032C71.047 488.784 75.271 490.448 82.759 490.448C90.247 490.448 94.471 488.592 95.239 485.008L95.367 484.304C96.199 480.72 92.039 478.48 84.359 478.48C77.703 478.48 73.223 479.824 72.391 482.128H62.855L70.023 456.016H108.807L107.015 464.4H76.551L74.311 472.592C77.447 471.12 81.415 470.352 86.151 470.352C99.079 470.352 106.631 476.432 104.839 485.136L104.647 485.84C103.047 494.352 95.431 498.768 82.375 498.768Z" fill="white"/>
<rect x="157" y="529" width="110" height="110" rx="55" fill="#6088E4"/>
<rect x="157" y="529" width="110" height="110" rx="55" stroke="#BDCEFA" stroke-width="5"/>
<path d="M211.548 605.768C196.636 605.768 188.38 598.152 190.94 587.272L192.924 578.184C195.036 567.816 203.164 562.248 216.732 562.248C230.044 562.248 238.236 568.008 236.7 576.328L236.636 576.712H226.972L227.036 576.328C227.74 572.744 223.644 570.504 216.54 570.504C208.284 570.504 203.356 573.512 202.14 579.272L201.692 581.32C205.34 579.208 209.628 578.248 215.196 578.248C228.188 578.248 235.42 583.816 233.628 592.264L233.5 592.968C231.9 601.288 224.156 605.768 211.548 605.768ZM199.836 589.704C199.132 594.632 203.484 597.512 212.06 597.512C219.164 597.512 223.324 595.656 224.028 592.2L224.156 591.56C224.924 588.04 221.34 586.184 213.916 586.184C207.708 586.184 202.652 587.464 199.836 589.704Z" fill="white"/>
<path d="M55.6143 149.71L-9.61963 127L-21.0001 159.69L44.2338 182.4L55.6143 149.71Z" fill="#1919EF"/>
<path d="M36.8262 177.255L-12.3616 160.132C-11.1721 157.239 -12.6339 153.949 -15.5598 152.93L-15.5973 152.917L-9.34066 134.945L-9.18218 135C-6.60434 135.898 -3.78069 134.516 -2.87484 131.914L47.213 149.351C46.3073 151.953 47.6626 154.789 50.2404 155.687L50.4606 155.764L43.9801 174.379L43.3745 174.167C40.7317 173.245 37.8281 174.614 36.8262 177.255Z" fill="#1919EF" stroke="#BDCEFA" stroke-miterlimit="10"/>
<path d="M14.6316 162.384C18.8367 163.848 23.4432 161.594 24.9206 157.351C26.398 153.107 24.1868 148.48 19.9817 147.016C15.7766 145.552 11.17 147.806 9.69261 152.049C8.21521 156.293 10.4264 160.92 14.6316 162.384Z" fill="#1919EF" stroke="#BDCEFA" stroke-miterlimit="10"/>
<path d="M106.187 138.134L62.957 139.756L63.77 161.419L107 159.797L106.187 138.134Z" fill="#1919EF"/>
<path d="M101.506 158.485L68.9101 159.708C68.9447 157.75 67.3419 156.164 65.403 156.237L65.3781 156.237L64.9311 144.327L65.0361 144.323C66.7445 144.259 68.0767 142.81 68.012 141.086L101.205 139.84C101.269 141.564 102.707 142.91 104.415 142.846L104.561 142.84L105.024 155.176L104.622 155.191C102.87 155.255 101.489 156.716 101.506 158.485Z" fill="#1919EF" stroke="#BDCEFA" stroke-miterlimit="10"/>
<path d="M85.1696 154.869C87.9563 154.764 90.1298 152.4 90.0243 149.587C89.9187 146.775 87.5741 144.58 84.7874 144.684C82.0007 144.789 79.8273 147.154 79.9328 149.966C80.0383 152.778 82.383 154.973 85.1696 154.869Z" fill="#1919EF" stroke="#BDCEFA" stroke-miterlimit="10"/>
<path d="M373.335 571.903C373.794 573.07 373.22 574.389 372.053 574.849L325.166 593.294C323.999 593.753 322.68 593.178 322.221 592.011L318.622 582.864C318.162 581.695 318.737 580.377 319.904 579.918L366.791 561.473C367.959 561.014 369.276 561.587 369.736 562.756L373.335 571.903Z" fill="#1919EF"/>
<path d="M365.764 561.877L320.931 579.514L326.193 592.89L371.026 575.253L365.764 561.877Z" fill="#8E98A4"/>
<path d="M375.254 541.297C375.713 542.464 375.139 543.782 373.972 544.241L360.047 549.719C358.88 550.178 357.561 549.605 357.102 548.438L331.61 483.637C331.151 482.47 331.725 481.151 332.892 480.692L346.817 475.214C347.984 474.755 349.303 475.329 349.762 476.496L375.254 541.297Z" fill="#1919EF"/>
<path d="M346.448 475.359L343.475 476.529L370.63 545.557L373.603 544.387L346.448 475.359Z" fill="#8E98A4"/>
<path d="M376.698 556.615C378.995 562.452 376.124 569.046 370.287 571.343L324.07 589.524C318.233 591.82 311.639 588.949 309.343 583.112L273.026 490.797C270.73 484.96 273.6 478.366 279.437 476.069L325.655 457.888C331.492 455.591 338.086 458.462 340.382 464.299L376.698 556.615Z" fill="#1919EF"/>
<path d="M368.939 562.455C369.422 563.683 368.818 565.07 367.591 565.553L322.099 583.449C320.871 583.932 319.485 583.328 319.002 582.099L298.469 529.904C297.986 528.676 298.589 527.29 299.816 526.807L345.308 508.91C346.536 508.428 347.922 509.031 348.405 510.259L368.939 562.455Z" fill="#DEE1EE"/>
<path d="M343.467 503.341C343.926 504.508 343.352 505.827 342.184 506.287L300.314 522.758C299.146 523.217 297.828 522.643 297.368 521.476L276.664 468.845C276.204 467.677 276.778 466.359 277.946 465.899L319.816 449.428C320.984 448.969 322.303 449.542 322.762 450.71L343.467 503.341Z" fill="#DEE1EE"/>
<path d="M324.574 467.691L286.908 482.509L298.094 510.944L335.76 496.126L324.574 467.691Z" fill="#6088E4"/>
<path d="M309.754 511.998C310.039 512.723 309.682 513.543 308.956 513.828L302.507 516.365C301.782 516.651 300.962 516.295 300.677 515.568C300.391 514.843 300.748 514.023 301.473 513.738L307.923 511.2C308.648 510.915 309.468 511.272 309.754 511.998Z" fill="#1919EF"/>
<path d="M338.342 500.751C338.627 501.477 338.27 502.296 337.545 502.582L331.095 505.119C330.37 505.404 329.551 505.048 329.265 504.322C328.98 503.597 329.336 502.777 330.062 502.491L336.511 499.954C337.237 499.668 338.056 500.026 338.342 500.751Z" fill="#1919EF"/>
<path d="M324.048 506.375C324.333 507.1 323.976 507.919 323.251 508.205L316.801 510.742C316.076 511.027 315.257 510.671 314.971 509.945C314.686 509.22 315.043 508.4 315.768 508.114L322.217 505.577C322.943 505.292 323.762 505.649 324.048 506.375Z" fill="#1919EF"/>
<path d="M332.835 572.393C333.137 573.163 332.759 574.034 331.988 574.337L324.543 577.266C323.773 577.569 322.902 577.19 322.599 576.419L320.596 571.327C320.293 570.557 320.672 569.687 321.442 569.384L328.887 566.455C329.658 566.152 330.528 566.53 330.831 567.3L332.835 572.393Z" fill="#DD41DB"/>
<path d="M347.774 566.516C348.076 567.286 347.698 568.157 346.927 568.46L339.482 571.389C338.711 571.692 337.841 571.313 337.538 570.543L335.534 565.45C335.232 564.68 335.61 563.81 336.381 563.507L343.826 560.578C344.597 560.275 345.467 560.653 345.77 561.423L347.774 566.516Z" fill="#6088E4"/>
<path d="M362.713 560.639C363.015 561.409 362.637 562.28 361.866 562.583L354.421 565.512C353.651 565.815 352.78 565.436 352.477 564.666L350.473 559.573C350.17 558.803 350.549 557.933 351.32 557.63L358.765 554.701C359.536 554.398 360.406 554.776 360.709 555.546L362.713 560.639Z" fill="#FF82BE"/>
<path d="M328.913 562.425C329.216 563.195 328.838 564.066 328.067 564.369L320.621 567.298C319.851 567.601 318.981 567.222 318.678 566.451L316.674 561.359C316.372 560.589 316.75 559.718 317.52 559.415L324.966 556.486C325.736 556.183 326.607 556.562 326.91 557.332L328.913 562.425Z" fill="#1919EF"/>
<path d="M343.852 556.548C344.155 557.318 343.776 558.189 343.006 558.492L335.56 561.421C334.79 561.724 333.919 561.345 333.616 560.574L331.613 555.482C331.31 554.712 331.688 553.841 332.459 553.538L339.904 550.609C340.675 550.306 341.546 550.685 341.849 551.455L343.852 556.548Z" fill="#1919EF"/>
<path d="M358.791 550.671C359.094 551.441 358.715 552.312 357.945 552.615L350.499 555.544C349.729 555.847 348.858 555.468 348.555 554.698L346.552 549.605C346.249 548.835 346.627 547.964 347.398 547.661L354.843 544.732C355.614 544.429 356.485 544.808 356.788 545.578L358.791 550.671Z" fill="#1919EF"/>
<path d="M324.992 552.457C325.295 553.227 324.917 554.098 324.146 554.401L316.701 557.33C315.93 557.633 315.06 557.254 314.757 556.484L312.753 551.391C312.451 550.621 312.829 549.75 313.599 549.447L321.045 546.518C321.815 546.215 322.686 546.594 322.989 547.365L324.992 552.457Z" fill="#1919EF"/>
<path d="M339.931 546.58C340.234 547.35 339.855 548.221 339.084 548.525L331.639 551.454C330.868 551.757 329.998 551.377 329.695 550.607L327.691 545.515C327.389 544.745 327.767 543.874 328.538 543.57L335.983 540.642C336.754 540.338 337.624 540.718 337.927 541.488L339.931 546.58Z" fill="#1919EF"/>
<path d="M354.87 540.704C355.172 541.473 354.794 542.345 354.023 542.648L346.578 545.577C345.808 545.88 344.937 545.501 344.634 544.73L342.63 539.638C342.328 538.868 342.706 537.997 343.477 537.694L350.922 534.765C351.692 534.462 352.563 534.841 352.866 535.611L354.87 540.704Z" fill="#1919EF"/>
<path d="M321.071 542.49C321.374 543.259 320.995 544.131 320.224 544.434L312.779 547.363C312.009 547.666 311.138 547.286 310.835 546.516L308.832 541.424C308.529 540.654 308.908 539.784 309.679 539.481L317.124 536.552C317.894 536.249 318.765 536.627 319.067 537.397L321.071 542.49Z" fill="#1919EF"/>
<path d="M336.01 536.613C336.313 537.383 335.934 538.254 335.163 538.557L327.718 541.486C326.947 541.789 326.077 541.41 325.774 540.64L323.771 535.547C323.468 534.777 323.847 533.908 324.617 533.604L332.063 530.676C332.833 530.372 333.703 530.751 334.006 531.52L336.01 536.613Z" fill="#1919EF"/>
<path d="M350.949 530.736C351.252 531.506 350.873 532.377 350.102 532.68L342.657 535.609C341.887 535.912 341.016 535.533 340.713 534.763L338.709 529.67C338.407 528.9 338.786 528.031 339.556 527.727L347.002 524.799C347.772 524.496 348.642 524.874 348.945 525.644L350.949 530.736Z" fill="#1919EF"/>
<path d="M317.149 532.522C317.452 533.292 317.074 534.163 316.303 534.466L308.858 537.395C308.087 537.698 307.217 537.319 306.914 536.548L304.911 531.456C304.608 530.686 304.986 529.815 305.757 529.512L313.202 526.583C313.972 526.28 314.843 526.659 315.146 527.429L317.149 532.522Z" fill="#1919EF"/>
<path d="M332.088 526.645C332.391 527.415 332.013 528.286 331.242 528.589L323.797 531.518C323.026 531.821 322.156 531.442 321.853 530.671L319.849 525.579C319.546 524.809 319.925 523.938 320.696 523.635L328.141 520.706C328.912 520.403 329.782 520.782 330.085 521.552L332.088 526.645Z" fill="#1919EF"/>
<path d="M347.027 520.768C347.33 521.538 346.952 522.409 346.181 522.712L338.736 525.641C337.965 525.944 337.095 525.565 336.792 524.794L334.788 519.702C334.485 518.932 334.864 518.061 335.635 517.758L343.08 514.829C343.85 514.526 344.721 514.905 345.024 515.675L347.027 520.768Z" fill="#1919EF"/>
<path d="M319.922 457.11C320.181 457.769 319.857 458.514 319.198 458.774L284.768 472.318C284.108 472.578 283.363 472.253 283.104 471.594C282.844 470.934 283.169 470.189 283.828 469.929L318.258 456.385C318.917 456.125 319.662 456.45 319.922 457.11Z" fill="#1919EF"/>
<path d="M307.636 430.138L306.512 433.51L303.391 431.809L302.267 435.18L299.15 433.477L298.028 436.847L294.91 435.145L293.788 438.515L290.669 436.813L289.549 440.183L286.433 438.48L285.311 441.85L282.196 440.146L281.075 443.517L277.957 441.814L276.836 445.184L273.719 443.481L284.554 471.023L318.471 457.68L307.636 430.138Z" fill="white"/>
<path d="M298.368 447.755L283.082 453.769L283.739 455.44L299.026 449.427L298.368 447.755Z" fill="#8E98A4"/>
<path d="M307.11 438.429L281.076 448.671L281.733 450.343L307.768 440.101L307.11 438.429Z" fill="#8E98A4"/>
<path d="M309.116 443.527L303.383 445.782L304.041 447.454L309.773 445.199L309.116 443.527Z" fill="#8E98A4"/>
<path d="M300.074 452.092L284.787 458.106L285.445 459.777L300.731 453.764L300.074 452.092Z" fill="#8E98A4"/>
<path d="M310.822 447.864L305.089 450.119L305.747 451.791L311.479 449.536L310.822 447.864Z" fill="#8E98A4"/>
<path d="M301.78 456.428L286.493 462.442L287.151 464.114L302.437 458.1L301.78 456.428Z" fill="#8E98A4"/>
<path d="M312.528 452.2L306.795 454.455L307.453 456.127L313.185 453.872L312.528 452.2Z" fill="#8E98A4"/>
<path d="M126.637 21.6512V16.731C126.637 10.972 121.966 6.30162 116.207 6.30162C110.448 6.27641 105.76 10.9239 105.734 16.6852V16.731V21.6512" stroke="#DD41DB" stroke-width="3" stroke-linecap="round" stroke-linejoin="round"/>
<path fill-rule="evenodd" clip-rule="evenodd" d="M124.94 48.697H107.43C102.631 48.697 98.7397 44.808 98.7397 40.007V30.178C98.7397 25.377 102.631 21.488 107.43 21.488H124.94C129.739 21.488 133.63 25.377 133.63 30.178V40.007C133.63 44.808 129.739 48.697 124.94 48.697Z" fill="#DD41DB" stroke="#DD41DB" stroke-width="3" stroke-linecap="round" stroke-linejoin="round"/>
<path d="M116.186 32.5479V37.6376" stroke="black" stroke-width="3" stroke-linecap="round" stroke-linejoin="round"/>
<path d="M248.637 71.6512V66.731C248.637 60.972 243.966 56.3016 238.207 56.3016C232.448 56.2764 227.76 60.9239 227.734 66.6852V66.731V71.6512" stroke="#DD41DB" stroke-width="3" stroke-linecap="round" stroke-linejoin="round"/>
<path fill-rule="evenodd" clip-rule="evenodd" d="M246.94 98.697H229.43C224.631 98.697 220.74 94.808 220.74 90.007V80.178C220.74 75.377 224.631 71.488 229.43 71.488H246.94C251.739 71.488 255.63 75.377 255.63 80.178V90.007C255.63 94.808 251.739 98.697 246.94 98.697Z" fill="#DD41DB" stroke="#DD41DB" stroke-width="3" stroke-linecap="round" stroke-linejoin="round"/>
<path d="M238.186 82.5479V87.6376" stroke="black" stroke-width="3" stroke-linecap="round" stroke-linejoin="round"/>
<path d="M125.637 181.651V176.731C125.637 170.972 120.966 166.302 115.207 166.302C109.448 166.276 104.76 170.924 104.734 176.685V176.731V181.651" stroke="#DD41DB" stroke-width="3" stroke-linecap="round" stroke-linejoin="round"/>
<path fill-rule="evenodd" clip-rule="evenodd" d="M123.94 208.697H106.43C101.631 208.697 97.7397 204.808 97.7397 200.007V190.178C97.7397 185.377 101.631 181.488 106.43 181.488H123.94C128.739 181.488 132.63 185.377 132.63 190.178V200.007C132.63 204.808 128.739 208.697 123.94 208.697Z" fill="#DD41DB" stroke="#DD41DB" stroke-width="3" stroke-linecap="round" stroke-linejoin="round"/>
<path d="M115.186 192.548V197.638" stroke="black" stroke-width="3" stroke-linecap="round" stroke-linejoin="round"/>
<path d="M250.637 279.651V274.731C250.637 268.972 245.966 264.302 240.207 264.302C234.448 264.276 229.76 268.924 229.734 274.685V274.731V279.651" stroke="#DD41DB" stroke-width="3" stroke-linecap="round" stroke-linejoin="round"/>
<path fill-rule="evenodd" clip-rule="evenodd" d="M248.94 306.697H231.43C226.631 306.697 222.74 302.808 222.74 298.007V288.178C222.74 283.377 226.631 279.488 231.43 279.488H248.94C253.739 279.488 257.63 283.377 257.63 288.178V298.007C257.63 302.808 253.739 306.697 248.94 306.697Z" fill="#DD41DB" stroke="#DD41DB" stroke-width="3" stroke-linecap="round" stroke-linejoin="round"/>
<path d="M240.186 290.548V295.638" stroke="black" stroke-width="3" stroke-linecap="round" stroke-linejoin="round"/>
<path d="M122.637 418.651V413.731C122.637 407.972 117.966 403.302 112.207 403.302C106.448 403.276 101.76 407.924 101.734 413.685V413.731V418.651" stroke="#DD41DB" stroke-width="3" stroke-linecap="round" stroke-linejoin="round"/>
<path fill-rule="evenodd" clip-rule="evenodd" d="M120.94 445.697H103.43C98.631 445.697 94.7397 441.808 94.7397 437.007V427.178C94.7397 422.377 98.631 418.488 103.43 418.488H120.94C125.739 418.488 129.63 422.377 129.63 427.178V437.007C129.63 441.808 125.739 445.697 120.94 445.697Z" fill="#DD41DB" stroke="#DD41DB" stroke-width="3" stroke-linecap="round" stroke-linejoin="round"/>
<path d="M112.186 429.548V434.638" stroke="black" stroke-width="3" stroke-linecap="round" stroke-linejoin="round"/>
<path d="M185.637 528.651V523.731C185.637 517.972 180.966 513.302 175.207 513.302C169.448 513.276 164.76 517.924 164.734 523.685V523.731V528.651" stroke="#DD41DB" stroke-width="3" stroke-linecap="round" stroke-linejoin="round"/>
<path fill-rule="evenodd" clip-rule="evenodd" d="M183.94 555.697H166.43C161.631 555.697 157.74 551.808 157.74 547.007V537.178C157.74 532.377 161.631 528.488 166.43 528.488H183.94C188.739 528.488 192.63 532.377 192.63 537.178V547.007C192.63 551.808 188.739 555.697 183.94 555.697Z" fill="#DD41DB" stroke="#DD41DB" stroke-width="3" stroke-linecap="round" stroke-linejoin="round"/>
<path d="M175.186 539.548V544.638" stroke="black" stroke-width="3" stroke-linecap="round" stroke-linejoin="round"/>
</svg>
