<svg width="360" height="1296" viewBox="0 0 360 1296" fill="none" xmlns="http://www.w3.org/2000/svg">
<path d="M75.4594 60H247.408C247.408 60 300.806 71.1992 300.806 155.255C300.806 239.31 247.408 239.542 247.408 239.542H118.743C118.743 239.542 48.0001 239.542 48 322.925C47.9999 406.308 118.743 410.343 118.743 410.343H247.408C247.408 410.343 300.806 406.03 300.806 499.5C300.806 592.97 278.816 574.079 247.408 574.079C216 574.079 162.932 550.161 118.743 574.079C72.542 599.086 42.7993 636.223 48 688.5C52.5019 733.754 73.2664 734.5 118.743 734.5C127.5 734.5 205.232 707.188 247.408 734.5C287.932 760.742 301.772 797.73 300.806 846C299.878 892.342 254 901.5 247.408 901.5C197.161 901.5 118.743 901.5 118.743 901.5C118.743 901.5 43.626 911.618 48 963C51.8705 1008.47 78.3546 1034.76 118.743 1056C163.216 1079.39 205.319 1028.55 247.408 1056C285.07 1080.56 305.705 1113.31 300.806 1158C296.73 1195.18 276.614 1214.14 247.408 1237.5C186.595 1286.14 78.5 1237.5 78.5 1237.5" stroke="#D6E0F9" stroke-width="60" stroke-linecap="round"/>
<path d="M330.696 245.007L284.115 272.627L297.956 295.97L344.537 268.35L330.696 245.007Z" fill="#1919EF"/>
<path d="M337.709 270.19L302.586 291.015C301.454 288.841 298.743 288.054 296.654 289.293L296.627 289.308L289.017 276.475L289.131 276.408C290.971 275.317 291.571 272.926 290.469 271.068L326.235 249.861C327.336 251.719 329.721 252.34 331.562 251.249L331.719 251.156L339.601 264.448L339.168 264.704C337.28 265.822 336.633 268.254 337.709 270.19Z" fill="#1919EF" stroke="#BDCEFA" stroke-width="2" stroke-miterlimit="10"/>
<path d="M317.579 275.976C320.582 274.196 321.559 270.296 319.762 267.265C317.966 264.235 314.075 263.222 311.072 265.002C308.069 266.783 307.092 270.682 308.889 273.713C310.685 276.743 314.576 277.756 317.579 275.976Z" fill="#1919EF" stroke="#BDCEFA" stroke-width="2" stroke-miterlimit="10"/>
<path d="M287.144 296.638L232.858 296.251L232.883 323.324L287.169 323.712L287.144 296.638Z" fill="#1919EF"/>
<path d="M280.339 321.761L239.408 321.469C239.542 319.028 237.605 316.96 235.17 316.942L235.138 316.942L235.124 302.058L235.256 302.059C237.402 302.074 239.139 300.34 239.137 298.185L280.817 298.482C280.819 300.637 282.56 302.395 284.705 302.411L284.888 302.412L284.903 317.828L284.398 317.824C282.198 317.807 280.399 319.553 280.339 321.761Z" fill="#1919EF" stroke="#BDCEFA" stroke-width="2" stroke-miterlimit="10"/>
<path d="M266.349 310.02C266.352 313.534 263.518 316.363 260.019 316.338C256.52 316.313 253.681 313.444 253.678 309.93C253.674 306.415 256.508 303.587 260.007 303.611C263.506 303.636 266.345 306.506 266.349 310.02Z" fill="#1919EF" stroke="#BDCEFA" stroke-width="2" stroke-miterlimit="10"/>
<path d="M342.919 306.873L292.495 326.663L302.48 351.891L352.904 332.101L342.919 306.873Z" fill="#1919EF"/>
<path d="M345.853 332.83L307.833 347.75C307.058 345.425 304.503 344.215 302.241 345.103L302.212 345.114L296.723 331.244L296.846 331.196C298.838 330.414 299.81 328.153 299.015 326.145L337.731 310.952C338.525 312.96 340.784 313.954 342.777 313.172L342.947 313.105L348.632 327.471L348.164 327.654C346.12 328.454 345.095 330.749 345.853 332.83Z" fill="#1919EF" stroke="#BDCEFA" stroke-width="2" stroke-miterlimit="10"/>
<path d="M328.527 331.888C329.873 328.656 328.347 324.918 325.117 323.539C321.888 322.161 318.178 323.664 316.832 326.897C315.486 330.13 317.012 333.868 320.241 335.246C323.471 336.625 327.18 335.121 328.527 331.888Z" fill="#1919EF" stroke="#BDCEFA" stroke-width="2" stroke-miterlimit="10"/>
<path d="M38.9844 724.007L85.5654 751.627L71.7246 774.97L25.1435 747.35L38.9844 724.007Z" fill="#1919EF"/>
<path d="M31.9712 749.19L67.0943 770.015C68.2265 767.841 70.9375 767.054 73.0268 768.293L73.0536 768.308L80.6629 755.475L80.5498 755.408C78.709 754.317 78.1098 751.926 79.2115 750.068L43.4457 728.861C42.3442 730.719 39.9591 731.34 38.1184 730.249L37.9611 730.156L30.0796 743.448L30.5124 743.704C32.4009 744.822 33.0478 747.254 31.9712 749.19Z" fill="#1919EF" stroke="#BDCEFA" stroke-width="2" stroke-miterlimit="10"/>
<path d="M52.1012 754.976C49.0985 753.196 48.1209 749.296 49.9177 746.265C51.7146 743.235 55.6053 742.222 58.608 744.002C61.6107 745.783 62.5883 749.682 60.7915 752.713C58.9947 755.743 55.1039 756.756 52.1012 754.976Z" fill="#1919EF" stroke="#BDCEFA" stroke-width="2" stroke-miterlimit="10"/>
<path d="M82.5363 775.639L136.822 775.251L136.797 802.325L82.5113 802.712L82.5363 775.639Z" fill="#1919EF"/>
<path d="M89.3407 800.761L130.272 800.47C130.139 798.029 132.076 795.96 134.511 795.942L134.542 795.942L134.556 781.058L134.424 781.059C132.278 781.074 130.542 779.34 130.543 777.186L88.8634 777.482C88.8614 779.637 87.1206 781.395 84.9756 781.411L84.7923 781.412L84.7777 796.829L85.2818 796.825C87.4819 796.808 89.2815 798.553 89.3407 800.761Z" fill="#1919EF" stroke="#BDCEFA" stroke-width="2" stroke-miterlimit="10"/>
<path d="M103.331 789.02C103.328 792.534 106.162 795.363 109.661 795.338C113.16 795.313 115.999 792.444 116.003 788.93C116.006 785.415 113.172 782.587 109.673 782.611C106.174 782.636 103.335 785.506 103.331 789.02Z" fill="#1919EF" stroke="#BDCEFA" stroke-width="2" stroke-miterlimit="10"/>
<path d="M26.7616 785.873L77.1858 805.663L67.2007 830.891L16.7765 811.101L26.7616 785.873Z" fill="#1919EF"/>
<path d="M23.8275 811.83L61.8478 826.75C62.6224 824.425 65.1776 823.215 67.4394 824.103L67.4684 824.115L72.9572 810.245L72.8346 810.196C70.8422 809.415 69.8707 807.153 70.6656 805.145L31.9499 789.953C31.1553 791.961 28.896 792.954 26.9034 792.172L26.7333 792.105L21.0482 806.471L21.5165 806.654C23.5604 807.455 24.5852 809.749 23.8275 811.83Z" fill="#1919EF" stroke="#BDCEFA" stroke-width="2" stroke-miterlimit="10"/>
<path d="M41.1534 810.888C39.807 807.656 41.3334 803.918 44.5628 802.539C47.7922 801.161 51.5017 802.664 52.8482 805.897C54.1946 809.13 52.6682 812.868 49.4388 814.246C46.2093 815.625 42.4999 814.121 41.1534 810.888Z" fill="#1919EF" stroke="#BDCEFA" stroke-width="2" stroke-miterlimit="10"/>
<rect x="56" y="840" width="110" height="110" rx="55" fill="#6088E4"/>
<rect x="56" y="840" width="110" height="110" rx="55" stroke="#BDCEFA" stroke-width="5"/>
<path d="M98.4933 914.4C101.053 904.352 109.117 893.472 122.685 882.4H93.7573L95.5493 874.016H136.701L134.909 882.4C120.381 894.24 111.549 905.376 109.309 914.4L108.989 916H98.1733L98.4933 914.4Z" fill="white"/>
<rect x="218" y="18" width="110" height="110" rx="55" fill="#6088E4"/>
<rect x="218" y="18" width="110" height="110" rx="55" stroke="#BDCEFA" stroke-width="5"/>
<path d="M249.74 94L251.468 86.448L275.212 74.608C283.468 70.448 285.132 69.04 285.58 65.968L285.708 65.392C286.284 61.616 283.084 59.44 276.876 59.44C270.54 59.44 266.764 61.68 265.804 66.032L265.484 67.312H255.884L256.204 65.968C258.316 56.048 265.164 51.248 277.132 51.248C289.42 51.248 296.652 57.136 295.244 65.776L295.116 66.48C294.284 71.984 290.188 75.888 279.564 81.264L269.772 86.064H291.916L290.188 94H249.74Z" fill="white"/>
<rect x="73" y="185" width="110" height="110" rx="55" fill="#6088E4"/>
<rect x="73" y="185" width="110" height="110" rx="55" stroke="#BDCEFA" stroke-width="5"/>
<path d="M126.335 261.768C111.935 261.704 104.383 256.264 106.111 247.24L106.175 246.92H115.775L115.711 247.24C114.815 251.272 118.655 253.448 126.655 253.448C134.143 253.448 138.047 251.848 138.751 248.52L138.943 247.752C139.583 244.552 136.127 242.888 128.447 242.888H120.639L122.239 235.528L137.023 227.208H111.359L113.151 219.016H154.047L152.255 227.208L136.063 235.976C145.087 237.192 149.695 241.992 148.223 248.904L148.095 249.608C146.559 257.736 139.391 261.768 126.335 261.768Z" fill="white"/>
<rect x="180" y="352" width="110" height="110" rx="55" fill="#6088E4"/>
<rect x="180" y="352" width="110" height="110" rx="55" stroke="#BDCEFA" stroke-width="5"/>
<path d="M210.666 410.976C218.538 401.888 223.53 394.4 227.626 386.016H237.93L237.61 387.488C233.77 395.104 228.586 402.976 222.058 410.976H240.874L244.842 393.312H254.57L250.602 410.976H260.074L258.218 419.488H248.746L246.826 428H237.098L239.018 419.488H208.81L210.666 410.976Z" fill="white"/>
<rect x="34" y="528" width="110" height="110" rx="55" fill="#6088E4"/>
<rect x="34" y="528" width="110" height="110" rx="55" stroke="#BDCEFA" stroke-width="5"/>
<path d="M87.375 604.768C73.231 604.768 65.487 599.904 66.959 592.032L67.087 591.584H76.751L76.623 592.032C76.047 594.784 80.271 596.448 87.759 596.448C95.247 596.448 99.471 594.592 100.239 591.008L100.367 590.304C101.199 586.72 97.039 584.48 89.359 584.48C82.703 584.48 78.223 585.824 77.391 588.128H67.855L75.023 562.016H113.807L112.015 570.4H81.551L79.311 578.592C82.447 577.12 86.415 576.352 91.151 576.352C104.079 576.352 111.631 582.432 109.839 591.136L109.647 591.84C108.047 600.352 100.431 604.768 87.375 604.768Z" fill="white"/>
<rect x="194" y="664" width="110" height="110" rx="55" fill="#6088E4"/>
<rect x="194" y="664" width="110" height="110" rx="55" stroke="#BDCEFA" stroke-width="5"/>
<path d="M248.548 740.768C233.636 740.768 225.38 733.152 227.94 722.272L229.924 713.184C232.036 702.816 240.164 697.248 253.732 697.248C267.044 697.248 275.236 703.008 273.7 711.328L273.636 711.712H263.972L264.036 711.328C264.74 707.744 260.644 705.504 253.54 705.504C245.284 705.504 240.356 708.512 239.14 714.272L238.692 716.32C242.34 714.208 246.628 713.248 252.196 713.248C265.188 713.248 272.42 718.816 270.628 727.264L270.5 727.968C268.9 736.288 261.156 740.768 248.548 740.768ZM236.836 724.704C236.132 729.632 240.484 732.512 249.06 732.512C256.164 732.512 260.324 730.656 261.028 727.2L261.156 726.56C261.924 723.04 258.34 721.184 250.916 721.184C244.708 721.184 239.652 722.464 236.836 724.704Z" fill="white"/>
<rect x="217" y="1037" width="110" height="110" rx="55" fill="#6088E4"/>
<rect x="217" y="1037" width="110" height="110" rx="55" stroke="#BDCEFA" stroke-width="5"/>
<path d="M269.999 1113.77C254.447 1113.77 246.703 1108.52 248.623 1099.5L248.751 1098.79C249.455 1094.82 252.399 1092.01 257.903 1090.34C255.023 1088.23 253.743 1085.29 254.511 1081.9L254.639 1081.13C255.919 1074.34 263.215 1070.25 276.207 1070.25C289.519 1070.25 297.583 1075.82 295.919 1083.62L295.791 1084.33C295.151 1087.72 292.911 1090.28 289.071 1091.94C292.911 1094.12 294.511 1097.38 293.743 1101.54L293.615 1102.31C292.463 1109.93 285.103 1113.77 269.999 1113.77ZM257.967 1100.46C257.135 1104.04 261.039 1105.77 270.447 1105.77C279.599 1105.77 283.759 1104.49 284.271 1101.54L284.399 1101.16C285.231 1097.45 281.647 1095.85 272.047 1095.85C262.063 1095.85 258.543 1097.19 258.031 1100.07L257.967 1100.46ZM263.535 1082.92C262.767 1086.5 266.095 1088.1 274.351 1088.1C282.927 1088.1 286.063 1086.76 286.575 1083.69L286.703 1083.3C287.407 1079.91 283.823 1078.18 275.759 1078.18C267.567 1078.18 264.239 1079.46 263.599 1082.6L263.535 1082.92Z" fill="white"/>
<rect x="24" y="1183" width="110" height="110" rx="55" fill="#6088E4"/>
<rect x="24" y="1183" width="110" height="110" rx="55" stroke="#BDCEFA" stroke-width="5"/>
<path d="M76.4998 1259.77C63.1878 1259.77 54.9958 1253.94 56.5318 1245.69L56.5958 1245.3H66.2598L66.1958 1245.69C65.4918 1249.21 69.5238 1251.51 76.6278 1251.51C84.9478 1251.51 89.8118 1248.5 91.0918 1242.68L91.5398 1240.7C87.8918 1242.81 83.5398 1243.77 77.9718 1243.77C64.9798 1243.77 57.8118 1238.2 59.5398 1229.69L59.7318 1229.05C61.3318 1220.66 69.0758 1216.25 81.6838 1216.25C96.5318 1216.25 104.852 1223.86 102.292 1234.74L100.308 1243.83C98.1958 1254.2 90.0037 1259.77 76.4998 1259.77ZM69.0118 1230.39C68.2438 1233.98 71.8278 1235.83 79.3158 1235.83C85.5238 1235.83 90.5158 1234.55 93.3958 1232.31C94.0998 1227.38 89.6838 1224.5 81.1078 1224.5C74.0038 1224.5 69.8438 1226.3 69.2038 1229.75L69.0118 1230.39Z" fill="white"/>
<rect x="26.5" y="2.5" width="105" height="105" rx="52.5" fill="#6088E4"/>
<rect x="26.5" y="2.5" width="105" height="105" rx="52.5" stroke="#BDCEFA" stroke-width="5"/>
<path d="M75.0143 76L81.6703 46.24C79.8143 46.816 77.7663 47.136 75.4623 47.136H68.3583L70.2143 38.432H76.8063C81.4783 38.432 83.6543 37.088 84.3583 34.016H94.0863L84.7423 76H75.0143Z" fill="white"/>
<path d="M243.637 21.6512V16.731C243.637 10.972 238.966 6.30162 233.208 6.30162C227.449 6.27641 222.76 10.9239 222.735 16.6852V16.731V21.6512" stroke="#DD41DB" stroke-width="3" stroke-linecap="round" stroke-linejoin="round"/>
<path fill-rule="evenodd" clip-rule="evenodd" d="M241.941 48.697H224.43C219.631 48.697 215.74 44.808 215.74 40.007V30.178C215.74 25.377 219.631 21.488 224.43 21.488H241.941C246.739 21.488 250.631 25.377 250.631 30.178V40.007C250.631 44.808 246.739 48.697 241.941 48.697Z" fill="#DD41DB" stroke="#DD41DB" stroke-width="3" stroke-linecap="round" stroke-linejoin="round"/>
<path d="M233.186 32.5479V37.6376" stroke="black" stroke-width="3" stroke-linecap="round" stroke-linejoin="round"/>
<path d="M170.637 178.651V173.731C170.637 167.972 165.966 163.302 160.208 163.302C154.449 163.276 149.76 167.924 149.735 173.685V173.731V178.651" stroke="#DD41DB" stroke-width="3" stroke-linecap="round" stroke-linejoin="round"/>
<path fill-rule="evenodd" clip-rule="evenodd" d="M168.941 205.697H151.43C146.631 205.697 142.74 201.808 142.74 197.007V187.178C142.74 182.377 146.631 178.488 151.43 178.488H168.941C173.739 178.488 177.631 182.377 177.631 187.178V197.007C177.631 201.808 173.739 205.697 168.941 205.697Z" fill="#DD41DB" stroke="#DD41DB" stroke-width="3" stroke-linecap="round" stroke-linejoin="round"/>
<path d="M160.186 189.548V194.638" stroke="black" stroke-width="3" stroke-linecap="round" stroke-linejoin="round"/>
<path d="M210.637 350.651V345.731C210.637 339.972 205.966 335.302 200.208 335.302C194.449 335.276 189.76 339.924 189.735 345.685V345.731V350.651" stroke="#DD41DB" stroke-width="3" stroke-linecap="round" stroke-linejoin="round"/>
<path fill-rule="evenodd" clip-rule="evenodd" d="M208.941 377.697H191.43C186.631 377.697 182.74 373.808 182.74 369.007V359.178C182.74 354.377 186.631 350.488 191.43 350.488H208.941C213.739 350.488 217.631 354.377 217.631 359.178V369.007C217.631 373.808 213.739 377.697 208.941 377.697Z" fill="#DD41DB" stroke="#DD41DB" stroke-width="3" stroke-linecap="round" stroke-linejoin="round"/>
<path d="M200.186 361.548V366.638" stroke="black" stroke-width="3" stroke-linecap="round" stroke-linejoin="round"/>
<path d="M132.637 526.651V521.731C132.637 515.972 127.966 511.302 122.208 511.302C116.449 511.276 111.76 515.924 111.735 521.685V521.731V526.651" stroke="#DD41DB" stroke-width="3" stroke-linecap="round" stroke-linejoin="round"/>
<path fill-rule="evenodd" clip-rule="evenodd" d="M130.941 553.697H113.43C108.631 553.697 104.74 549.808 104.74 545.007V535.178C104.74 530.377 108.631 526.488 113.43 526.488H130.941C135.739 526.488 139.631 530.377 139.631 535.178V545.007C139.631 549.808 135.739 553.697 130.941 553.697Z" fill="#DD41DB" stroke="#DD41DB" stroke-width="3" stroke-linecap="round" stroke-linejoin="round"/>
<path d="M122.186 537.548V542.638" stroke="black" stroke-width="3" stroke-linecap="round" stroke-linejoin="round"/>
<path d="M227.637 667.651V662.731C227.637 656.972 222.966 652.302 217.208 652.302C211.449 652.276 206.76 656.924 206.735 662.685V662.731V667.651" stroke="#DD41DB" stroke-width="3" stroke-linecap="round" stroke-linejoin="round"/>
<path fill-rule="evenodd" clip-rule="evenodd" d="M225.941 694.697H208.43C203.631 694.697 199.74 690.808 199.74 686.007V676.178C199.74 671.377 203.631 667.488 208.43 667.488H225.941C230.739 667.488 234.631 671.377 234.631 676.178V686.007C234.631 690.808 230.739 694.697 225.941 694.697Z" fill="#DD41DB" stroke="#DD41DB" stroke-width="3" stroke-linecap="round" stroke-linejoin="round"/>
<path d="M217.186 678.548V683.638" stroke="black" stroke-width="3" stroke-linecap="round" stroke-linejoin="round"/>
<path d="M155.637 833.651V828.731C155.637 822.972 150.966 818.302 145.208 818.302C139.449 818.276 134.76 822.924 134.735 828.685V828.731V833.651" stroke="#DD41DB" stroke-width="3" stroke-linecap="round" stroke-linejoin="round"/>
<path fill-rule="evenodd" clip-rule="evenodd" d="M153.941 860.697H136.43C131.631 860.697 127.74 856.808 127.74 852.007V842.178C127.74 837.377 131.631 833.488 136.43 833.488H153.941C158.739 833.488 162.631 837.377 162.631 842.178V852.007C162.631 856.808 158.739 860.697 153.941 860.697Z" fill="#DD41DB" stroke="#DD41DB" stroke-width="3" stroke-linecap="round" stroke-linejoin="round"/>
<path d="M145.186 844.548V849.638" stroke="black" stroke-width="3" stroke-linecap="round" stroke-linejoin="round"/>
<path d="M249.637 1040.65V1035.73C249.637 1029.97 244.966 1025.3 239.208 1025.3C233.449 1025.28 228.76 1029.92 228.735 1035.69V1035.73V1040.65" stroke="#DD41DB" stroke-width="3" stroke-linecap="round" stroke-linejoin="round"/>
<path fill-rule="evenodd" clip-rule="evenodd" d="M247.941 1067.7H230.43C225.631 1067.7 221.74 1063.81 221.74 1059.01V1049.18C221.74 1044.38 225.631 1040.49 230.43 1040.49H247.941C252.739 1040.49 256.631 1044.38 256.631 1049.18V1059.01C256.631 1063.81 252.739 1067.7 247.941 1067.7Z" fill="#DD41DB" stroke="#DD41DB" stroke-width="3" stroke-linecap="round" stroke-linejoin="round"/>
<path d="M239.186 1051.55V1056.64" stroke="black" stroke-width="3" stroke-linecap="round" stroke-linejoin="round"/>
<path d="M126.637 1183.65V1178.73C126.637 1172.97 121.966 1168.3 116.208 1168.3C110.449 1168.28 105.76 1172.92 105.735 1178.69V1178.73V1183.65" stroke="#DD41DB" stroke-width="3" stroke-linecap="round" stroke-linejoin="round"/>
<path fill-rule="evenodd" clip-rule="evenodd" d="M124.941 1210.7H107.43C102.631 1210.7 98.74 1206.81 98.74 1202.01V1192.18C98.74 1187.38 102.631 1183.49 107.43 1183.49H124.941C129.739 1183.49 133.631 1187.38 133.631 1192.18V1202.01C133.631 1206.81 129.739 1210.7 124.941 1210.7Z" fill="#DD41DB" stroke="#DD41DB" stroke-width="3" stroke-linecap="round" stroke-linejoin="round"/>
<path d="M116.186 1194.55V1199.64" stroke="black" stroke-width="3" stroke-linecap="round" stroke-linejoin="round"/>
</svg>
