<svg width="22" height="22" viewBox="0 0 22 22" fill="none" xmlns="http://www.w3.org/2000/svg">
<line x1="0.75" y1="-0.75" x2="18.5061" y2="-0.75" transform="matrix(0.556411 -0.830907 0.795432 0.606043 7.21423 20)" stroke="black" stroke-width="1.5" stroke-linecap="round"/>
<path d="M7.21387 4.75C8.43005 4.75 9.67871 6.04364 9.67871 8C9.67871 9.95636 8.43005 11.25 7.21387 11.25C5.99782 11.2497 4.75 9.95613 4.75 8C4.75 6.04387 5.99782 4.7503 7.21387 4.75Z" stroke="black" stroke-width="1.5"/>
<path d="M16.8567 12.75C18.0729 12.75 19.3215 14.0436 19.3215 16C19.3215 17.9564 18.0729 19.25 16.8567 19.25C15.6406 19.2497 14.3928 17.9561 14.3928 16C14.3928 14.0439 15.6406 12.7503 16.8567 12.75Z" stroke="black" stroke-width="1.5"/>
</svg>
