<svg width="360" height="639" viewBox="0 0 360 639" fill="none" xmlns="http://www.w3.org/2000/svg">
<path d="M281.992 22H360V273.5L0 271V70.5L15.5047 79.5V227H38.7618V139.5H121.615V187H129.852V123.5L160.377 118.5V205.5H178.304V99H272.301V148H281.992V22Z" fill="#E2E5F6" stroke="#E2E5F6" stroke-width="5"/>
<path d="M266.003 235H351.279H356.124V421.5H0V261.5H14.5357V105L41.6689 119V271H87.214V252.5H104.657V350H167.645V137H222.88V373.5H266.003V235Z" fill="#DCDFF4" stroke="#DCDFF4" stroke-width="5"/>
<path fill-rule="evenodd" clip-rule="evenodd" d="M344.85 212H358V639H1V327.5H25.352V422.5H43.8595V366H84.2838V408H102.304V364.5V347.5L98.895 343V309L102.304 304V290L98.895 287V251L102.304 244V234.5C102.304 234.5 97.4338 232 98.895 230.5C100.356 229 137.371 230.5 137.371 230.5V175H144.19H151.739H158.923H167.08V270H195.329V366H250.851V290H262.053L271.307 277.5H289.327L302.477 290H310.757V326.5H346.311V274L342.415 269V232.5L346.311 229L344.85 212Z" fill="#CBD0F0"/>
<path d="M144.19 175H137.371V230.5C137.371 230.5 100.356 229 98.895 230.5C97.4338 232 102.304 234.5 102.304 234.5V244L98.895 251V287L102.304 290V304L98.895 309V343L102.304 347.5V364.5V408H84.2838V366H43.8595V422.5H25.352V327.5H1V639H358V212H344.85L346.311 229L342.415 232.5V269L346.311 274V326.5H310.757V290H302.477L289.327 277.5H271.307L262.053 290H250.851V366H195.329V270H167.08V175H158.923M144.19 175V167.5H137.371L151.739 167.25M144.19 175H151.739M166.106 167L158.923 167.125M151.739 167.25V175M151.739 167.25L158.923 167.125M151.739 175H158.923M158.923 167.125V175" stroke="#CBD0F0" stroke-width="5"/>
<path d="M98.9867 387.938L126.581 276.187L97.1217 275.833L89.2462 385.003C89.2462 385.003 78.4481 395.314 74.1112 397.559C69.7742 399.804 73.9095 410.159 78.8755 409.592C83.8416 409.025 87.4695 402.486 87.4695 402.486C87.4695 402.486 87.9774 400.816 91.0338 400.657C96.6101 400.367 94.5293 407.804 98.9556 407.299C103.382 406.793 98.9867 387.938 98.9867 387.938Z" fill="#F7E0D8"/>
<path d="M269.022 387.862L236.291 277.506L265.703 275.791L278.617 384.48C278.617 384.48 289.88 394.281 294.316 396.323C298.752 398.365 295.1 408.9 290.113 408.563C285.126 408.226 281.2 401.862 281.2 401.862C281.2 401.862 280.615 400.218 277.555 400.2C271.971 400.168 274.393 407.501 269.948 407.201C265.503 406.9 269.022 387.862 269.022 387.862Z" fill="#F7E0D8"/>
<path d="M65.0599 261.542L106.459 214.927L126.126 270.778L124.062 280.34L93.5285 277.406L65.0599 261.542Z" fill="#BDCEFA"/>
<path d="M254.235 214.927L295.634 261.542L267.165 277.406L239.24 280.34L234.568 270.778L254.235 214.927Z" fill="#BDCEFA"/>
<path d="M147.315 198.737C147.315 198.737 157.855 208.407 175.892 208.951C193.929 209.494 206.86 198.737 206.86 198.737L181.868 261.542L147.315 198.737Z" fill="#BDCEFA"/>
<path d="M65.0599 261.542L106.459 214.927L126.126 270.778L124.062 280.34L93.5285 277.406L65.0599 261.542Z" stroke="#A8BEF8" stroke-width="3" stroke-linecap="round"/>
<path d="M254.235 214.927L295.634 261.542L267.165 277.406L239.24 280.34L234.568 270.778L254.235 214.927Z" stroke="#A8BEF8" stroke-width="3" stroke-linecap="round"/>
<path d="M147.315 198.737C147.315 198.737 157.855 208.407 175.892 208.951C193.929 209.494 206.86 198.737 206.86 198.737L181.868 261.542L147.315 198.737Z" stroke="#A8BEF8" stroke-width="3" stroke-linecap="round"/>
<path d="M150.031 198.845L158.832 163.856H177.087H193.603L201.97 198.845C201.97 198.845 196.211 208.407 177.087 208.733C157.963 209.059 150.031 198.845 150.031 198.845Z" fill="#F7E0D8"/>
<path d="M154.159 666.045C154.159 662.076 151.66 637.718 151.66 637.718L186.322 635.545C186.322 635.545 185.888 661.531 184.801 666.045C183.715 670.559 154.159 670.014 154.159 666.045Z" fill="#F7E0D8"/>
<path d="M225.223 666.045C225.223 662.076 222.724 637.718 222.724 637.718L257.386 635.545C257.386 635.545 256.951 661.531 255.864 666.045C254.778 670.559 225.223 670.014 225.223 666.045Z" fill="#F7E0D8"/>
<path d="M126.669 397.474C128.733 372.047 148.835 325.542 148.835 325.542L187.409 319.022L224.027 325.542C224.027 325.542 244.238 376.068 249.888 397.474C255.538 418.879 307.912 614.139 308.781 620.116C309.649 626.092 271.511 637.827 249.888 637.827C228.265 637.827 219.245 638.37 215.769 634.459C212.293 630.547 200.231 431.81 193.168 419.857C186.105 407.905 190.887 630.112 189.908 634.459C188.929 638.805 182.302 641.63 156.876 641.63C131.45 641.63 117.433 641.195 114.499 637.827C111.565 634.459 124.604 422.9 126.669 397.474Z" fill="#3558AB" stroke="#3558AB" stroke-width="3" stroke-linecap="round"/>
<path d="M189.587 357.486C189.587 357.486 189.587 396.712 192.19 396.495C194.793 396.278 197.191 376.176 197.191 376.176M216.86 355.205C218.699 366.682 222.295 372.152 235.224 379.544M156.55 355.205C154.711 366.682 151.115 372.152 138.187 379.544" stroke="#214492" stroke-width="3" stroke-linecap="round"/>
<path d="M141.99 343.144L149.378 322.825L223.81 319.565L229.46 339.776C229.46 339.776 200.991 353.141 188.93 352.272C176.869 351.402 141.99 343.144 141.99 343.144Z" fill="#DD41DB" stroke="#DD41DB" stroke-width="3" stroke-linecap="round"/>
<path d="M99.6121 230.247L150.356 197.976L181.215 257.629L204.794 197.976L256.189 211.123C241.115 250.673 229.368 272.171 224.461 322.499L200.665 335.864L187.408 322.499L174.478 335.864L148.509 324.998C130.85 277.785 120.391 257.254 99.6121 230.247Z" fill="#6088E4" stroke="#6088E4" stroke-width="3" stroke-linecap="round"/>
<circle cx="194.254" cy="288.381" r="5.43294" fill="#3558AB"/>
<circle cx="195.558" cy="307.069" r="5.43294" fill="#3558AB"/>
<path d="M181.216 254.913L187.519 321.738" stroke="#3558AB" stroke-width="3" stroke-linecap="round"/>
<circle cx="192.951" cy="269.691" r="5.43294" fill="#3558AB"/>
<path d="M131.507 159.461C131.507 159.461 122.271 153.051 119.881 144.901C117.49 136.752 106.516 97.0912 107.385 87.6379C108.254 78.1846 106.842 71.0131 113.361 65.3629C119.881 59.7126 149.762 48.6294 149.762 48.6294H189.097C189.097 48.6294 225.171 59.1693 232.234 65.3629C239.297 71.5564 239.514 75.1421 239.188 87.6379C238.862 100.134 232.234 135.665 230.822 144.901C229.409 154.137 222.129 159.461 222.129 159.461C222.129 159.461 198.224 169.893 176.818 170.11C155.412 170.327 131.507 159.461 131.507 159.461Z" fill="#F7E0D8" stroke="#D7AD9F" stroke-width="3"/>
<path d="M174.21 10.271C179.1 10.271 187.63 4.39533 198.549 1.57828C214.264 -2.4759 226.367 1.57946 239.188 10.271C252.009 18.9625 281.598 53.1019 298.516 84.485C298.516 84.485 309.056 104.804 306.557 120.777C304.058 136.75 304.257 140.147 292.865 149.137C283.077 156.862 269.18 150.626 263.527 161.741C257.789 173.025 270.672 180.602 271.134 193.252C271.817 212.005 260.376 242.149 258.638 239.65C256.899 237.151 259.116 228.12 255.161 222.59C251.744 217.814 248.147 216.329 242.665 214.224C233.792 210.816 227.32 217.298 218.325 214.224C206.962 210.339 200.893 204.144 195.833 193.252C192.835 186.799 192.499 182.533 192.03 175.432C191.814 172.172 191.161 170 192.03 168.37C192.899 166.74 220.824 161.633 226.692 152.614C232.56 143.595 236.58 102.414 236.58 102.414C236.58 102.414 238.571 86.7473 236.58 89.0486C234.608 91.3275 190.097 71.1022 189.007 69.0035C192.41 78.8446 206.805 86.9867 206.047 89.0486C205.287 91.1145 182.502 83.8333 174.21 72.5325C166.372 83.4356 145.958 90.4598 144.329 89.0486C142.7 87.6375 152.429 75.7092 154.977 68.9468C138.964 79.5143 109.123 83.833 108.58 89.0486C108.037 94.2642 109.523 97.2108 110.318 102.414C113.369 122.354 118.142 145.769 125.205 152.614C132.268 159.46 162.257 168.37 162.257 168.37C162.257 168.37 162.561 172.179 162.257 175.432C161.581 182.689 160.184 186.842 156.716 193.252C150.242 205.219 134.388 202.908 130.203 215.853C127.749 223.444 126.942 229.001 130.203 236.281C131.468 239.106 132.92 238.889 134.549 242.91C136.179 246.93 112.892 244.259 105.212 236.281L85.5443 215.853C77.8637 207.876 79.8713 207.849 79.568 201.945C79.0194 191.265 96.5155 190.438 95.6495 179.779C95.2699 175.105 93.8521 172.522 91.3032 168.587C84.0681 157.416 68.7967 165.573 59.6835 155.874C51.9297 147.621 50.8105 140.162 48.7089 129.035C45.4531 111.797 54.4678 84.485 54.4678 84.485C54.4678 84.485 62.3634 65.8413 69.6801 55.2557C82.0553 37.3515 91.7474 28.4665 110.318 17.1165C123.507 9.05627 131.358 -0.133875 146.719 1.57828C158.975 2.94434 169.32 10.271 174.21 10.271Z" fill="#060698"/>
<path d="M90.9723 93.1133L95.3581 130.234C95.3581 130.234 68.3529 131.679 66.2116 116.876C64.0702 102.074 90.9723 93.1133 90.9723 93.1133Z" fill="#F7E0D8"/>
<path d="M255.636 93.1133L251.25 130.234C251.25 130.234 278.255 131.679 280.396 116.876C282.538 102.074 255.636 93.1133 255.636 93.1133Z" fill="#F7E0D8"/>
<path d="M158.672 146.421C170.527 154.655 177.135 154.991 188.988 146.421" stroke="#D7AD9F" stroke-width="3" stroke-linecap="round"/>
<circle cx="134.115" cy="136.968" r="9.77929" fill="#FF82BE"/>
<path d="M165.627 133.723C169.104 127.19 178.992 128.493 181.708 133.723" stroke="#D7AD9F" stroke-width="3" stroke-linecap="round"/>
<circle cx="213.654" cy="136.968" r="9.77929" fill="#FF82BE"/>
<path d="M222.357 102.973C222.353 102.969 222.35 102.964 222.346 102.959C222.35 102.964 222.354 102.968 222.357 102.973C222.983 103.665 231.215 100.042 230.822 100.46C230.426 100.881 224.519 106.001 224.519 106.001C224.519 106.001 223.227 104.062 222.357 102.973Z" fill="#060698"/>
<path d="M222.346 102.959L223.517 102.022L223.446 101.933L223.362 101.855L222.346 102.959ZM205.069 96.8741L205.101 98.3738L205.069 96.8741ZM186.116 101.771C185.46 102.277 185.338 103.219 185.844 103.875C186.35 104.531 187.292 104.653 187.948 104.147L187.032 102.959L186.116 101.771ZM230.822 100.46L231.915 101.487V101.487L230.822 100.46ZM224.519 106.001L223.271 106.833L224.216 108.25L225.502 107.135L224.519 106.001ZM222.346 102.959C223.362 101.855 223.362 101.855 223.361 101.855C223.361 101.854 223.361 101.854 223.36 101.854C223.359 101.853 223.359 101.852 223.358 101.851C223.356 101.849 223.353 101.847 223.35 101.845C223.345 101.84 223.337 101.833 223.329 101.825C223.311 101.809 223.286 101.787 223.255 101.76C223.192 101.705 223.103 101.628 222.988 101.533C222.759 101.344 222.427 101.079 221.998 100.766C221.141 100.14 219.893 99.3162 218.305 98.5007C215.132 96.8717 210.566 95.2593 205.038 95.3745L205.069 96.8741L205.101 98.3738C210.004 98.2717 214.076 99.7017 216.934 101.169C218.362 101.902 219.477 102.64 220.229 103.189C220.605 103.464 220.889 103.69 221.075 103.844C221.168 103.921 221.236 103.98 221.279 104.017C221.3 104.036 221.315 104.049 221.324 104.057C221.328 104.061 221.331 104.063 221.332 104.064C221.333 104.065 221.333 104.065 221.332 104.065C221.332 104.064 221.332 104.064 221.332 104.064C221.331 104.064 221.331 104.063 221.331 104.063C221.331 104.063 221.33 104.063 222.346 102.959ZM205.069 96.8741L205.038 95.3745C199.554 95.4887 194.836 97.086 191.505 98.6385C189.836 99.4166 188.503 100.189 187.582 100.771C187.122 101.062 186.763 101.306 186.515 101.48C186.392 101.567 186.296 101.637 186.229 101.687C186.195 101.711 186.169 101.731 186.15 101.745C186.141 101.752 186.133 101.758 186.128 101.762C186.125 101.765 186.122 101.766 186.12 101.768C186.119 101.769 186.118 101.769 186.118 101.77C186.117 101.77 186.117 101.771 186.117 101.771C186.116 101.771 186.116 101.771 187.032 102.959C187.948 104.147 187.948 104.147 187.948 104.147C187.948 104.147 187.947 104.147 187.947 104.148C187.947 104.148 187.947 104.148 187.947 104.148C187.947 104.148 187.947 104.148 187.948 104.147C187.949 104.146 187.953 104.143 187.958 104.139C187.969 104.131 187.986 104.118 188.011 104.1C188.061 104.063 188.139 104.006 188.243 103.933C188.453 103.785 188.77 103.569 189.185 103.307C190.016 102.782 191.237 102.074 192.773 101.358C195.853 99.9221 200.154 98.4769 205.101 98.3738L205.069 96.8741ZM222.346 102.959L221.119 103.821C221.158 103.877 221.2 103.93 221.245 103.979L222.357 102.973L223.47 101.967C223.506 102.007 223.541 102.051 223.574 102.097L222.346 102.959ZM222.357 102.973L221.244 103.979C221.65 104.428 222.167 104.517 222.377 104.543C222.637 104.575 222.888 104.559 223.085 104.537C223.487 104.492 223.948 104.384 224.399 104.259C225.316 104.006 226.441 103.612 227.489 103.227C228.517 102.849 229.596 102.432 230.276 102.179C230.643 102.043 230.895 101.953 231.035 101.911C231.146 101.877 231.07 101.909 230.929 101.921C230.886 101.925 230.759 101.935 230.596 101.91C230.496 101.895 229.995 101.816 229.633 101.331C229.178 100.723 229.353 100.089 229.458 99.8465C229.558 99.615 229.692 99.4712 229.728 99.4328L230.822 100.46L231.915 101.487C231.963 101.436 232.106 101.281 232.21 101.04C232.319 100.789 232.493 100.146 232.035 99.5336C231.668 99.0433 231.159 98.9609 231.047 98.9439C230.872 98.9173 230.73 98.927 230.668 98.9325C230.449 98.9516 230.235 99.018 230.158 99.0417C229.921 99.1143 229.589 99.234 229.23 99.3675C228.457 99.655 227.513 100.022 226.454 100.411C225.415 100.793 224.389 101.15 223.6 101.368C223.197 101.479 222.915 101.537 222.749 101.556C222.661 101.566 222.672 101.557 222.742 101.566C222.763 101.568 223.143 101.605 223.47 101.967L222.357 102.973ZM230.822 100.46L229.728 99.4328C229.731 99.4304 229.649 99.5091 229.431 99.7064C229.238 99.8814 228.979 100.112 228.676 100.38C228.07 100.916 227.298 101.593 226.535 102.259C225.774 102.924 225.024 103.576 224.465 104.063C224.185 104.306 223.953 104.507 223.791 104.648C223.71 104.718 223.646 104.773 223.603 104.811C223.581 104.829 223.565 104.844 223.554 104.854C223.548 104.858 223.544 104.862 223.541 104.864C223.54 104.866 223.539 104.867 223.538 104.867C223.538 104.867 223.537 104.868 223.537 104.868C223.537 104.868 223.537 104.868 223.537 104.868C223.537 104.868 223.537 104.868 224.519 106.001C225.502 107.135 225.502 107.135 225.502 107.135C225.502 107.135 225.502 107.135 225.502 107.135C225.502 107.134 225.503 107.134 225.503 107.134C225.504 107.133 225.505 107.132 225.506 107.131C225.509 107.129 225.513 107.125 225.519 107.12C225.53 107.11 225.547 107.096 225.569 107.077C225.612 107.039 225.676 106.984 225.757 106.914C225.92 106.772 226.152 106.571 226.432 106.327C226.993 105.84 227.745 105.186 228.509 104.518C229.273 103.851 230.051 103.169 230.664 102.627C231.235 102.122 231.755 101.658 231.915 101.487L230.822 100.46ZM224.519 106.001C225.768 105.17 225.768 105.17 225.767 105.169C225.767 105.169 225.767 105.169 225.767 105.169C225.767 105.169 225.767 105.169 225.767 105.169C225.767 105.169 225.767 105.168 225.766 105.168C225.766 105.167 225.764 105.165 225.763 105.163C225.76 105.159 225.757 105.153 225.751 105.145C225.741 105.13 225.726 105.108 225.707 105.08C225.669 105.023 225.614 104.941 225.545 104.84C225.408 104.637 225.216 104.356 224.996 104.039C224.562 103.415 223.997 102.623 223.53 102.037L222.357 102.973L221.185 103.909C221.587 104.412 222.103 105.134 222.533 105.752C222.745 106.057 222.93 106.328 223.062 106.523C223.128 106.621 223.181 106.699 223.217 106.752C223.235 106.779 223.249 106.8 223.258 106.813C223.263 106.82 223.266 106.825 223.268 106.829C223.269 106.831 223.27 106.832 223.271 106.833C223.271 106.833 223.271 106.833 223.271 106.833C223.271 106.833 223.271 106.833 223.271 106.833C223.271 106.833 223.271 106.833 223.271 106.833C223.271 106.833 223.271 106.833 224.519 106.001ZM222.357 102.973L223.53 102.037C223.526 102.032 223.522 102.027 223.517 102.022L222.346 102.959L221.175 103.896C221.178 103.9 221.182 103.905 221.185 103.909L222.357 102.973Z" fill="#060698"/>
<path d="M159.867 103.278C159.372 109.215 153.58 115.775 148.349 115.339C143.118 114.903 139.395 111.689 139.89 105.752C140.385 99.8157 139.965 96.5472 145.197 96.9833C150.428 97.4193 160.102 100.453 159.867 103.278Z" fill="#060698"/>
<path d="M123.18 102.944C123.247 102.936 123.272 102.909 123.248 102.857C123.226 102.886 123.203 102.914 123.18 102.944C122.345 103.037 115.02 100.011 114.773 100.358C114.506 100.734 121.075 105.9 121.075 105.9C121.075 105.9 122.312 104.044 123.18 102.944Z" fill="#060698"/>
<path d="M123.248 102.857L122.077 101.92L122.148 101.831L122.232 101.754L123.248 102.857ZM140.525 96.7726L140.494 98.2723L140.525 96.7726ZM159.479 101.67C160.135 102.176 160.256 103.118 159.75 103.774C159.244 104.43 158.302 104.551 157.646 104.045L158.562 102.857L159.479 101.67ZM114.773 100.358L115.995 101.228L115.995 101.228L114.773 100.358ZM121.075 105.9L122.323 106.732L121.423 108.082L120.148 107.079L121.075 105.9ZM123.248 102.857C122.232 101.754 122.233 101.754 122.233 101.753C122.233 101.753 122.234 101.752 122.234 101.752C122.235 101.751 122.236 101.751 122.237 101.75C122.239 101.748 122.241 101.746 122.244 101.743C122.25 101.738 122.257 101.731 122.266 101.723C122.284 101.707 122.309 101.685 122.34 101.658C122.402 101.603 122.491 101.527 122.606 101.432C122.835 101.242 123.167 100.978 123.596 100.665C124.454 100.039 125.702 99.2146 127.29 98.3992C130.462 96.7701 135.028 95.1577 140.556 95.2729L140.525 96.7726L140.494 98.2723C135.59 98.1701 131.518 99.6002 128.66 101.068C127.233 101.801 126.118 102.539 125.365 103.088C124.989 103.362 124.705 103.588 124.52 103.742C124.427 103.819 124.358 103.878 124.316 103.916C124.294 103.934 124.279 103.948 124.27 103.955C124.266 103.959 124.263 103.962 124.262 103.963C124.262 103.963 124.262 103.963 124.262 103.963C124.262 103.963 124.263 103.963 124.263 103.962C124.263 103.962 124.263 103.962 124.263 103.962C124.264 103.961 124.264 103.961 123.248 102.857ZM140.525 96.7726L140.556 95.2729C146.04 95.3872 150.758 96.9844 154.089 98.537C155.758 99.315 157.091 100.087 158.012 100.669C158.473 100.96 158.832 101.204 159.079 101.379C159.203 101.466 159.299 101.536 159.366 101.585C159.399 101.61 159.425 101.629 159.444 101.644C159.454 101.651 159.461 101.657 159.467 101.661C159.47 101.663 159.472 101.665 159.474 101.666C159.475 101.667 159.476 101.668 159.477 101.668C159.477 101.669 159.478 101.669 159.478 101.669C159.478 101.669 159.479 101.67 158.562 102.857C157.646 104.045 157.647 104.045 157.647 104.046C157.647 104.046 157.647 104.046 157.647 104.046C157.648 104.046 157.648 104.046 157.648 104.046C157.648 104.046 157.648 104.046 157.647 104.046C157.645 104.044 157.642 104.042 157.636 104.038C157.626 104.03 157.608 104.016 157.583 103.998C157.534 103.961 157.456 103.905 157.351 103.831C157.142 103.684 156.825 103.468 156.41 103.205C155.579 102.68 154.358 101.972 152.822 101.256C149.742 99.8205 145.441 98.3753 140.494 98.2723L140.525 96.7726ZM123.248 102.857L124.609 102.225C124.733 102.493 124.947 103.213 124.406 103.87C124.001 104.362 123.457 104.422 123.346 104.434L123.18 102.944L123.013 101.453C122.97 101.458 122.472 101.5 122.09 101.964C121.572 102.593 121.787 103.273 121.888 103.49L123.248 102.857ZM123.18 102.944L123.346 104.434C123.074 104.465 122.822 104.426 122.699 104.405C122.54 104.378 122.373 104.339 122.211 104.297C121.885 104.212 121.495 104.091 121.081 103.955C120.251 103.683 119.227 103.316 118.252 102.969C117.261 102.615 116.323 102.282 115.619 102.058C115.261 101.945 115.005 101.873 114.85 101.839C114.764 101.82 114.77 101.827 114.831 101.83C114.857 101.831 114.971 101.836 115.127 101.803C115.243 101.778 115.679 101.673 115.995 101.228L114.773 100.358L113.55 99.4891C113.883 99.0218 114.348 98.9014 114.506 98.8679C114.704 98.8261 114.874 98.8285 114.967 98.8327C115.162 98.8415 115.352 98.8777 115.491 98.9081C115.787 98.9728 116.151 99.0796 116.528 99.1993C117.292 99.4422 118.284 99.7947 119.26 100.143C120.251 100.496 121.231 100.847 122.016 101.105C122.41 101.234 122.732 101.332 122.967 101.394C123.086 101.425 123.162 101.441 123.202 101.448C123.278 101.46 123.181 101.434 123.013 101.453L123.18 102.944ZM114.773 100.358L115.995 101.228C116.338 100.746 116.271 100.259 116.232 100.083C116.19 99.8924 116.119 99.7673 116.102 99.7374C116.061 99.6667 116.041 99.6534 116.099 99.7199C116.199 99.835 116.386 100.024 116.666 100.283C117.213 100.792 117.984 101.451 118.783 102.117C119.578 102.778 120.383 103.429 120.991 103.916C121.294 104.16 121.548 104.361 121.725 104.502C121.814 104.572 121.884 104.627 121.931 104.664C121.954 104.683 121.973 104.697 121.985 104.707C121.991 104.712 121.995 104.715 121.998 104.718C122 104.719 122.001 104.72 122.001 104.72C122.002 104.72 122.002 104.721 122.002 104.721C122.002 104.721 122.002 104.721 122.002 104.721C122.002 104.721 122.002 104.721 121.075 105.9C120.148 107.079 120.148 107.079 120.148 107.079C120.148 107.079 120.148 107.079 120.147 107.079C120.147 107.078 120.147 107.078 120.146 107.078C120.145 107.077 120.144 107.076 120.143 107.075C120.139 107.072 120.134 107.068 120.128 107.063C120.115 107.053 120.096 107.038 120.072 107.019C120.023 106.981 119.952 106.924 119.861 106.853C119.681 106.709 119.423 106.504 119.115 106.257C118.499 105.764 117.679 105.1 116.865 104.423C116.055 103.75 115.234 103.048 114.624 102.482C114.326 102.204 114.043 101.928 113.835 101.688C113.739 101.578 113.605 101.415 113.498 101.227C113.447 101.139 113.354 100.964 113.303 100.732C113.255 100.514 113.191 99.9939 113.55 99.4891L114.773 100.358ZM121.075 105.9C119.827 105.068 119.827 105.068 119.827 105.068C119.827 105.068 119.827 105.068 119.827 105.068C119.827 105.068 119.827 105.068 119.827 105.067C119.828 105.067 119.828 105.067 119.828 105.066C119.829 105.065 119.83 105.064 119.831 105.062C119.834 105.058 119.838 105.052 119.842 105.045C119.852 105.03 119.866 105.009 119.885 104.982C119.921 104.927 119.974 104.849 120.04 104.751C120.172 104.557 120.357 104.285 120.57 103.979C120.991 103.373 121.538 102.603 122.002 102.015L123.18 102.944L124.358 103.873C123.954 104.385 123.449 105.093 123.034 105.69C122.829 105.985 122.651 106.246 122.524 106.434C122.46 106.528 122.41 106.603 122.375 106.654C122.358 106.68 122.345 106.7 122.336 106.713C122.332 106.719 122.328 106.724 122.326 106.727C122.325 106.729 122.324 106.73 122.324 106.731C122.324 106.731 122.323 106.732 122.323 106.732C122.323 106.732 122.323 106.732 122.323 106.732C122.323 106.732 122.323 106.732 122.323 106.732C122.323 106.732 122.323 106.732 121.075 105.9ZM123.18 102.944L122.002 102.015C122.027 101.983 122.052 101.951 122.077 101.92L123.248 102.857L124.419 103.795C124.399 103.82 124.379 103.846 124.358 103.873L123.18 102.944Z" fill="#060698"/>
<path d="M187.792 91.0131C187.792 91.0131 197.028 86.3408 204.2 86.5581C211.371 86.7755 220.173 91.0131 220.173 91.0131" stroke="#161648" stroke-width="3" stroke-linecap="round"/>
<path d="M152.805 91.0131C152.805 91.0131 143.569 86.3408 136.397 86.5581C129.226 86.7755 120.424 91.0131 120.424 91.0131" stroke="#161648" stroke-width="3" stroke-linecap="round"/>
<path d="M272.588 44.7179C270.554 48.9194 265.468 54.1712 261.399 54.1712H253.261H234.951L242.071 38.7308L245.123 32.1135C245.123 32.1135 249.192 22.6602 257.33 22.6602H282.761C282.761 22.6602 274.623 40.5164 272.588 44.7179Z" fill="#6088E4"/>
<path d="M234.951 54.1712C234.951 54.1712 245.351 54.1712 253.261 54.1712M234.951 54.1712H253.261M234.951 54.1712L242.071 38.7308M253.261 54.1712C256.954 54.1712 260.104 54.1712 261.399 54.1712C265.468 54.1712 270.554 48.9194 272.588 44.7179C274.623 40.5164 282.761 22.6602 282.761 22.6602C282.761 22.6602 265.468 22.6602 257.33 22.6602C249.192 22.6602 245.123 32.1135 245.123 32.1135L242.071 38.7308M253.261 54.1712C253.261 54.1712 260.381 48.6043 262.416 43.6675C264.45 38.7308 267.502 32.1135 267.502 32.1135C267.502 32.1135 257.33 32.1135 253.261 32.1135C249.192 32.1135 242.071 38.7308 242.071 38.7308" stroke="#1919EF" stroke-width="3" stroke-linecap="round"/>
<path d="M81.7003 44.7179C83.7348 48.9194 88.8209 54.1712 92.8899 54.1712H101.028H119.338L112.217 38.7308L109.166 32.1135C109.166 32.1135 105.097 22.6602 96.9588 22.6602H71.528C71.528 22.6602 79.6659 40.5164 81.7003 44.7179Z" fill="#6088E4"/>
<path d="M119.338 54.1712C119.338 54.1712 108.937 54.1712 101.028 54.1712M119.338 54.1712H101.028M119.338 54.1712L112.217 38.7308M101.028 54.1712C97.3349 54.1712 94.1849 54.1712 92.8899 54.1712C88.8209 54.1712 83.7348 48.9194 81.7003 44.7179C79.6659 40.5164 71.528 22.6602 71.528 22.6602C71.528 22.6602 88.8209 22.6602 96.9588 22.6602C105.097 22.6602 109.166 32.1135 109.166 32.1135L112.217 38.7308M101.028 54.1712C101.028 54.1712 93.9071 48.6043 91.8726 43.6675C89.8382 38.7308 86.7865 32.1135 86.7865 32.1135C86.7865 32.1135 96.9588 32.1135 101.028 32.1135C105.097 32.1135 112.217 38.7308 112.217 38.7308" stroke="#1919EF" stroke-width="3" stroke-linecap="round"/>
<path d="M258.639 123.495C258.639 123.495 272.379 122.948 273.36 115.652C274.342 108.356 262.128 103.067 262.128 103.067" stroke="#D7AD9F" stroke-width="3" stroke-linecap="round"/>
<path d="M86.3058 123.495C86.3058 123.495 72.5657 122.948 71.5843 115.652C70.6029 108.356 82.8163 103.067 82.8163 103.067" stroke="#D7AD9F" stroke-width="3" stroke-linecap="round"/>
<path d="M224.302 107.848C222.889 112.847 217.836 115.88 212.605 115.444C207.374 115.007 205.923 107.935 205.985 105.881C206.047 103.828 205.756 96.5334 210.988 96.9694C216.219 97.4055 224.797 101.912 224.302 107.848Z" fill="#060698"/>
</svg>
